<?xml version="1.0" encoding="UTF-8" standalone="no"?>
<!DOCTYPE svg PUBLIC "-//W3C//DTD SVG 1.1//EN"
 "http://www.w3.org/Graphics/SVG/1.1/DTD/svg11.dtd">
<!-- Generated by graphviz version 2.43.0 (0)
 -->
<!-- Title: src/ws2812_cpp.cpp Pages: 1 -->
<svg width="1815pt" height="247pt"
 viewBox="0.00 0.00 1814.50 247.00" xmlns="http://www.w3.org/2000/svg" xmlns:xlink="http://www.w3.org/1999/xlink">
<g id="graph0" class="graph" transform="scale(1 1) rotate(0) translate(4 243)">
<title>src/ws2812_cpp.cpp</title>
<!-- Node1 -->
<g id="Node000001" class="node">
<title>Node1</title>
<g id="a_Node000001"><a xlink:title=" ">
<polygon fill="#999999" stroke="#666666" points="1574,-239 1460,-239 1460,-220 1574,-220 1574,-239"/>
<text text-anchor="middle" x="1517" y="-227" font-family="Helvetica,sans-Serif" font-size="10.00">src/ws2812_cpp.cpp</text>
</a>
</g>
</g>
<!-- Node2 -->
<g id="Node000002" class="node">
<title>Node2</title>
<g id="a_Node000002"><a xlink:href="ws2812__cpp_8hpp.html" target="_top" xlink:title=" ">
<polygon fill="white" stroke="#666666" points="1494,-184 1396,-184 1396,-165 1494,-165 1494,-184"/>
<text text-anchor="middle" x="1445" y="-172" font-family="Helvetica,sans-Serif" font-size="10.00">ws2812_cpp.hpp</text>
</a>
</g>
</g>
<!-- Node1&#45;&gt;Node2 -->
<g id="edge1_Node000001_Node000002" class="edge">
<title>Node1&#45;&gt;Node2</title>
<g id="a_edge1_Node000001_Node000002"><a xlink:title=" ">
<path fill="none" stroke="#63b8ff" d="M1505.43,-219.98C1494.58,-212 1478.12,-199.88 1465.12,-190.31"/>
<polygon fill="#63b8ff" stroke="#63b8ff" points="1466.91,-187.28 1456.78,-184.17 1462.76,-192.92 1466.91,-187.28"/>
</a>
</g>
</g>
<!-- Node20 -->
<g id="Node000020" class="node">
<title>Node20</title>
<g id="a_Node000020"><a xlink:title=" ">
<polygon fill="#e0e0e0" stroke="#999999" points="1806.5,-74 1699.5,-74 1699.5,-55 1806.5,-55 1806.5,-74"/>
<text text-anchor="middle" x="1753" y="-62" font-family="Helvetica,sans-Serif" font-size="10.00">driver/rmt_types.h</text>
</a>
</g>
</g>
<!-- Node1&#45;&gt;Node20 -->
<g id="edge29_Node000001_Node000020" class="edge">
<title>Node1&#45;&gt;Node20</title>
<g id="a_edge29_Node000001_Node000020"><a xlink:title=" ">
<path fill="none" stroke="#63b8ff" d="M1529.36,-219.97C1567.58,-193.57 1684.2,-113.02 1732.11,-79.93"/>
<polygon fill="#63b8ff" stroke="#63b8ff" points="1734.24,-82.71 1740.48,-74.15 1730.26,-76.95 1734.24,-82.71"/>
</a>
</g>
</g>
<!-- Node3 -->
<g id="Node000003" class="node">
<title>Node3</title>
<g id="a_Node000003"><a xlink:href="rmt__wrapper_8hpp.html" target="_top" xlink:title="A modern C++17 header‑only wrapper around the ESP‑IDF v5.3 “new” RMT driver.">
<polygon fill="white" stroke="#666666" points="626.5,-129 527.5,-129 527.5,-110 626.5,-110 626.5,-129"/>
<text text-anchor="middle" x="577" y="-117" font-family="Helvetica,sans-Serif" font-size="10.00">rmt_wrapper.hpp</text>
</a>
</g>
</g>
<!-- Node2&#45;&gt;Node3 -->
<g id="edge2_Node000002_Node000003" class="edge">
<title>Node2&#45;&gt;Node3</title>
<g id="a_edge2_Node000002_Node000003"><a xlink:title=" ">
<path fill="none" stroke="#63b8ff" d="M1395.85,-170.5C1246.7,-161.39 799.61,-134.09 636.99,-124.16"/>
<polygon fill="#63b8ff" stroke="#63b8ff" points="636.89,-120.65 626.69,-123.53 636.46,-127.64 636.89,-120.65"/>
</a>
</g>
</g>
<!-- Node8 -->
<g id="Node000008" class="node">
<title>Node8</title>
<g id="a_Node000008"><a xlink:title=" ">
<polygon fill="#e0e0e0" stroke="#999999" points="50,-74 0,-74 0,-55 50,-55 50,-74"/>
<text text-anchor="middle" x="25" y="-62" font-family="Helvetica,sans-Serif" font-size="10.00">cstdint</text>
</a>
</g>
</g>
<!-- Node2&#45;&gt;Node8 -->
<g id="edge27_Node000002_Node000008" class="edge">
<title>Node2&#45;&gt;Node8</title>
<g id="a_edge27_Node000002_Node000008"><a xlink:title=" ">
<path fill="none" stroke="#63b8ff" d="M1395.68,-172.37C1257.14,-168.93 852.77,-157.06 518,-129 316.56,-112.12 262.78,-111.24 60.25,-74.03"/>
<polygon fill="#63b8ff" stroke="#63b8ff" points="60.64,-70.54 50.17,-72.17 59.37,-77.42 60.64,-70.54"/>
</a>
</g>
</g>
<!-- Node18 -->
<g id="Node000018" class="node">
<title>Node18</title>
<g id="a_Node000018"><a xlink:href="ws2812__control_8h.html" target="_top" xlink:title="ESP&#45;IDF RMT based driver for WS2812 / NeoPixel LED chains.">
<polygon fill="white" stroke="#666666" points="1496,-129 1394,-129 1394,-110 1496,-110 1496,-129"/>
<text text-anchor="middle" x="1445" y="-117" font-family="Helvetica,sans-Serif" font-size="10.00">ws2812_control.h</text>
</a>
</g>
</g>
<!-- Node2&#45;&gt;Node18 -->
<g id="edge17_Node000002_Node000018" class="edge">
<title>Node2&#45;&gt;Node18</title>
<g id="a_edge17_Node000002_Node000018"><a xlink:title=" ">
<path fill="none" stroke="#63b8ff" d="M1445,-164.75C1445,-157.8 1445,-147.85 1445,-139.13"/>
<polygon fill="#63b8ff" stroke="#63b8ff" points="1448.5,-139.09 1445,-129.09 1441.5,-139.09 1448.5,-139.09"/>
</a>
</g>
</g>
<!-- Node25 -->
<g id="Node000025" class="node">
<title>Node25</title>
<g id="a_Node000025"><a xlink:title=" ">
<polygon fill="#e0e0e0" stroke="#999999" points="1561.5,-129 1514.5,-129 1514.5,-110 1561.5,-110 1561.5,-129"/>
<text text-anchor="middle" x="1538" y="-117" font-family="Helvetica,sans-Serif" font-size="10.00">vector</text>
</a>
</g>
</g>
<!-- Node2&#45;&gt;Node25 -->
<g id="edge28_Node000002_Node000025" class="edge">
<title>Node2&#45;&gt;Node25</title>
<g id="a_edge28_Node000002_Node000025"><a xlink:title=" ">
<path fill="none" stroke="#63b8ff" d="M1459.94,-164.98C1474.5,-156.69 1496.87,-143.94 1513.93,-134.22"/>
<polygon fill="#63b8ff" stroke="#63b8ff" points="1515.83,-137.16 1522.79,-129.17 1512.36,-131.08 1515.83,-137.16"/>
</a>
</g>
</g>
<!-- Node4 -->
<g id="Node000004" class="node">
<title>Node4</title>
<g id="a_Node000004"><a xlink:title=" ">
<polygon fill="#e0e0e0" stroke="#999999" points="170,-74 68,-74 68,-55 170,-55 170,-74"/>
<text text-anchor="middle" x="119" y="-62" font-family="Helvetica,sans-Serif" font-size="10.00">esp_idf_version.h</text>
</a>
</g>
</g>
<!-- Node3&#45;&gt;Node4 -->
<g id="edge3_Node000003_Node000004" class="edge">
<title>Node3&#45;&gt;Node4</title>
<g id="a_edge3_Node000003_Node000004"><a xlink:title=" ">
<path fill="none" stroke="#63b8ff" d="M527.31,-113.42C453.84,-105.8 311.65,-90.66 180.29,-74.13"/>
<polygon fill="#63b8ff" stroke="#63b8ff" points="180.41,-70.62 170.05,-72.84 179.53,-77.56 180.41,-70.62"/>
</a>
</g>
</g>
<!-- Node5 -->
<g id="Node000005" class="node">
<title>Node5</title>
<g id="a_Node000005"><a xlink:title=" ">
<polygon fill="#e0e0e0" stroke="#999999" points="230,-74 188,-74 188,-55 230,-55 230,-74"/>
<text text-anchor="middle" x="209" y="-62" font-family="Helvetica,sans-Serif" font-size="10.00">array</text>
</a>
</g>
</g>
<!-- Node3&#45;&gt;Node5 -->
<g id="edge4_Node000003_Node000005" class="edge">
<title>Node3&#45;&gt;Node5</title>
<g id="a_edge4_Node000003_Node000005"><a xlink:title=" ">
<path fill="none" stroke="#63b8ff" d="M527.37,-114.24C463.14,-108.23 347.7,-95.72 240.25,-73.98"/>
<polygon fill="#63b8ff" stroke="#63b8ff" points="240.71,-70.51 230.21,-71.92 239.3,-77.36 240.71,-70.51"/>
</a>
</g>
</g>
<!-- Node6 -->
<g id="Node000006" class="node">
<title>Node6</title>
<g id="a_Node000006"><a xlink:title=" ">
<polygon fill="#e0e0e0" stroke="#999999" points="298,-74 248,-74 248,-55 298,-55 298,-74"/>
<text text-anchor="middle" x="273" y="-62" font-family="Helvetica,sans-Serif" font-size="10.00">atomic</text>
</a>
</g>
</g>
<!-- Node3&#45;&gt;Node6 -->
<g id="edge5_Node000003_Node000006" class="edge">
<title>Node3&#45;&gt;Node6</title>
<g id="a_edge5_Node000003_Node000006"><a xlink:title=" ">
<path fill="none" stroke="#63b8ff" d="M527.01,-111.51C474.77,-103.92 390.22,-90.87 308.19,-74.11"/>
<polygon fill="#63b8ff" stroke="#63b8ff" points="308.7,-70.64 298.2,-72.04 307.28,-77.49 308.7,-70.64"/>
</a>
</g>
</g>
<!-- Node7 -->
<g id="Node000007" class="node">
<title>Node7</title>
<g id="a_Node000007"><a xlink:title=" ">
<polygon fill="#e0e0e0" stroke="#999999" points="369.5,-74 316.5,-74 316.5,-55 369.5,-55 369.5,-74"/>
<text text-anchor="middle" x="343" y="-62" font-family="Helvetica,sans-Serif" font-size="10.00">cstddef</text>
</a>
</g>
</g>
<!-- Node3&#45;&gt;Node7 -->
<g id="edge6_Node000003_Node000007" class="edge">
<title>Node3&#45;&gt;Node7</title>
<g id="a_edge6_Node000003_Node000007"><a xlink:title=" ">
<path fill="none" stroke="#63b8ff" d="M537.68,-109.93C499.62,-101.58 440.04,-88.39 379.8,-74.39"/>
<polygon fill="#63b8ff" stroke="#63b8ff" points="380.27,-70.91 369.74,-72.05 378.69,-77.73 380.27,-70.91"/>
</a>
</g>
</g>
<!-- Node3&#45;&gt;Node8 -->
<g id="edge7_Node000003_Node000008" class="edge">
<title>Node3&#45;&gt;Node8</title>
<g id="a_edge7_Node000003_Node000008"><a xlink:title=" ">
<path fill="none" stroke="#63b8ff" d="M527.39,-116.87C436.49,-113.3 237.07,-102.85 60.17,-73.92"/>
<polygon fill="#63b8ff" stroke="#63b8ff" points="60.6,-70.45 50.16,-72.26 59.45,-77.35 60.6,-70.45"/>
</a>
</g>
</g>
<!-- Node9 -->
<g id="Node000009" class="node">
<title>Node9</title>
<g id="a_Node000009"><a xlink:title=" ">
<polygon fill="#e0e0e0" stroke="#999999" points="432.5,-74 387.5,-74 387.5,-55 432.5,-55 432.5,-74"/>
<text text-anchor="middle" x="410" y="-62" font-family="Helvetica,sans-Serif" font-size="10.00">utility</text>
</a>
</g>
</g>
<!-- Node3&#45;&gt;Node9 -->
<g id="edge8_Node000003_Node000009" class="edge">
<title>Node3&#45;&gt;Node9</title>
<g id="a_edge8_Node000003_Node000009"><a xlink:title=" ">
<path fill="none" stroke="#63b8ff" d="M550.17,-109.98C520.8,-100.66 473.72,-85.72 442.34,-75.76"/>
<polygon fill="#63b8ff" stroke="#63b8ff" points="443.33,-72.41 432.74,-72.72 441.21,-79.08 443.33,-72.41"/>
</a>
</g>
</g>
<!-- Node10 -->
<g id="Node000010" class="node">
<title>Node10</title>
<g id="a_Node000010"><a xlink:title=" ">
<polygon fill="#e0e0e0" stroke="#999999" points="527.5,-74 450.5,-74 450.5,-55 527.5,-55 527.5,-74"/>
<text text-anchor="middle" x="489" y="-62" font-family="Helvetica,sans-Serif" font-size="10.00">esp_check.h</text>
</a>
</g>
</g>
<!-- Node3&#45;&gt;Node10 -->
<g id="edge9_Node000003_Node000010" class="edge">
<title>Node3&#45;&gt;Node10</title>
<g id="a_edge9_Node000003_Node000010"><a xlink:title=" ">
<path fill="none" stroke="#63b8ff" d="M562.86,-109.98C549.21,-101.77 528.31,-89.18 512.22,-79.49"/>
<polygon fill="#63b8ff" stroke="#63b8ff" points="513.77,-76.33 503.4,-74.17 510.16,-82.33 513.77,-76.33"/>
</a>
</g>
</g>
<!-- Node11 -->
<g id="Node000011" class="node">
<title>Node11</title>
<g id="a_Node000011"><a xlink:title=" ">
<polygon fill="#e0e0e0" stroke="#999999" points="608.5,-74 545.5,-74 545.5,-55 608.5,-55 608.5,-74"/>
<text text-anchor="middle" x="577" y="-62" font-family="Helvetica,sans-Serif" font-size="10.00">esp_log.h</text>
</a>
</g>
</g>
<!-- Node3&#45;&gt;Node11 -->
<g id="edge10_Node000003_Node000011" class="edge">
<title>Node3&#45;&gt;Node11</title>
<g id="a_edge10_Node000003_Node000011"><a xlink:title=" ">
<path fill="none" stroke="#63b8ff" d="M577,-109.75C577,-102.8 577,-92.85 577,-84.13"/>
<polygon fill="#63b8ff" stroke="#63b8ff" points="580.5,-84.09 577,-74.09 573.5,-84.09 580.5,-84.09"/>
</a>
</g>
</g>
<!-- Node12 -->
<g id="Node000012" class="node">
<title>Node12</title>
<g id="a_Node000012"><a xlink:title=" ">
<polygon fill="#e0e0e0" stroke="#999999" points="749,-74 627,-74 627,-55 749,-55 749,-74"/>
<text text-anchor="middle" x="688" y="-62" font-family="Helvetica,sans-Serif" font-size="10.00">esp_private/esp_clk.h</text>
</a>
</g>
</g>
<!-- Node3&#45;&gt;Node12 -->
<g id="edge11_Node000003_Node000012" class="edge">
<title>Node3&#45;&gt;Node12</title>
<g id="a_edge11_Node000003_Node000012"><a xlink:title=" ">
<path fill="none" stroke="#63b8ff" d="M594.83,-109.98C612.61,-101.5 640.15,-88.35 660.68,-78.54"/>
<polygon fill="#63b8ff" stroke="#63b8ff" points="662.33,-81.64 669.84,-74.17 659.31,-75.32 662.33,-81.64"/>
</a>
</g>
</g>
<!-- Node13 -->
<g id="Node000013" class="node">
<title>Node13</title>
<g id="a_Node000013"><a xlink:title=" ">
<polygon fill="#e0e0e0" stroke="#999999" points="1186,-19 1068,-19 1068,0 1186,0 1186,-19"/>
<text text-anchor="middle" x="1127" y="-7" font-family="Helvetica,sans-Serif" font-size="10.00">driver/rmt_encoder.h</text>
</a>
</g>
</g>
<!-- Node3&#45;&gt;Node13 -->
<g id="edge12_Node000003_Node000013" class="edge">
<title>Node3&#45;&gt;Node13</title>
<g id="a_edge12_Node000003_Node000013"><a xlink:title=" ">
<path fill="none" stroke="#63b8ff" d="M623.98,-109.94C661.02,-102.49 713.66,-90.3 758,-74 775.72,-67.48 777.95,-60.56 796,-55 883.76,-27.98 989.62,-17.36 1057.59,-13.19"/>
<polygon fill="#63b8ff" stroke="#63b8ff" points="1057.97,-16.68 1067.75,-12.6 1057.56,-9.69 1057.97,-16.68"/>
</a>
</g>
</g>
<!-- Node14 -->
<g id="Node000014" class="node">
<title>Node14</title>
<g id="a_Node000014"><a xlink:title=" ">
<polygon fill="#e0e0e0" stroke="#999999" points="894.5,-74 805.5,-74 805.5,-55 894.5,-55 894.5,-74"/>
<text text-anchor="middle" x="850" y="-62" font-family="Helvetica,sans-Serif" font-size="10.00">driver/rmt_rx.h</text>
</a>
</g>
</g>
<!-- Node3&#45;&gt;Node14 -->
<g id="edge13_Node000003_Node000014" class="edge">
<title>Node3&#45;&gt;Node14</title>
<g id="a_edge13_Node000003_Node000014"><a xlink:title=" ">
<path fill="none" stroke="#63b8ff" d="M620.86,-109.98C668.48,-100.74 744.58,-85.97 795.88,-76.01"/>
<polygon fill="#63b8ff" stroke="#63b8ff" points="796.64,-79.42 805.79,-74.08 795.31,-72.55 796.64,-79.42"/>
</a>
</g>
</g>
<!-- Node15 -->
<g id="Node000015" class="node">
<title>Node15</title>
<g id="a_Node000015"><a xlink:title=" ">
<polygon fill="#e0e0e0" stroke="#999999" points="1247.5,-74 1158.5,-74 1158.5,-55 1247.5,-55 1247.5,-74"/>
<text text-anchor="middle" x="1203" y="-62" font-family="Helvetica,sans-Serif" font-size="10.00">driver/rmt_tx.h</text>
</a>
</g>
</g>
<!-- Node3&#45;&gt;Node15 -->
<g id="edge14_Node000003_Node000015" class="edge">
<title>Node3&#45;&gt;Node15</title>
<g id="a_edge14_Node000003_Node000015"><a xlink:title=" ">
<path fill="none" stroke="#63b8ff" d="M626.86,-115.94C724.72,-110.63 948.98,-97.05 1148.18,-74"/>
<polygon fill="#63b8ff" stroke="#63b8ff" points="1148.72,-77.46 1158.25,-72.82 1147.91,-70.51 1148.72,-77.46"/>
</a>
</g>
</g>
<!-- Node16 -->
<g id="Node000016" class="node">
<title>Node16</title>
<g id="a_Node000016"><a xlink:title=" ">
<polygon fill="#e0e0e0" stroke="#999999" points="1025.5,-74 912.5,-74 912.5,-55 1025.5,-55 1025.5,-74"/>
<text text-anchor="middle" x="969" y="-62" font-family="Helvetica,sans-Serif" font-size="10.00">freertos/FreeRTOS.h</text>
</a>
</g>
</g>
<!-- Node3&#45;&gt;Node16 -->
<g id="edge15_Node000003_Node000016" class="edge">
<title>Node3&#45;&gt;Node16</title>
<g id="a_edge15_Node000003_Node000016"><a xlink:title=" ">
<path fill="none" stroke="#63b8ff" d="M626.65,-111.79C696.54,-102.34 824.13,-85.09 902.26,-74.52"/>
<polygon fill="#63b8ff" stroke="#63b8ff" points="903.03,-77.95 912.48,-73.14 902.1,-71.01 903.03,-77.95"/>
</a>
</g>
</g>
<!-- Node17 -->
<g id="Node000017" class="node">
<title>Node17</title>
<g id="a_Node000017"><a xlink:title=" ">
<polygon fill="#e0e0e0" stroke="#999999" points="1140.5,-74 1043.5,-74 1043.5,-55 1140.5,-55 1140.5,-74"/>
<text text-anchor="middle" x="1092" y="-62" font-family="Helvetica,sans-Serif" font-size="10.00">freertos/queue.h</text>
</a>
</g>
</g>
<!-- Node3&#45;&gt;Node17 -->
<g id="edge16_Node000003_Node000017" class="edge">
<title>Node3&#45;&gt;Node17</title>
<g id="a_edge16_Node000003_Node000017"><a xlink:title=" ">
<path fill="none" stroke="#63b8ff" d="M626.79,-114.45C709.05,-107.58 878.73,-92.67 1033.14,-74.05"/>
<polygon fill="#63b8ff" stroke="#63b8ff" points="1033.78,-77.49 1043.29,-72.81 1032.94,-70.54 1033.78,-77.49"/>
</a>
</g>
</g>
<!-- Node18&#45;&gt;Node15 -->
<g id="edge19_Node000018_Node000015" class="edge">
<title>Node18&#45;&gt;Node15</title>
<g id="a_edge19_Node000018_Node000015"><a xlink:title=" ">
<path fill="none" stroke="#63b8ff" d="M1406.12,-109.98C1364.26,-100.82 1297.57,-86.21 1252.12,-76.26"/>
<polygon fill="#63b8ff" stroke="#63b8ff" points="1252.7,-72.8 1242.19,-74.08 1251.21,-79.64 1252.7,-72.8"/>
</a>
</g>
</g>
<!-- Node19 -->
<g id="Node000019" class="node">
<title>Node19</title>
<g id="a_Node000019"><a xlink:title=" ">
<polygon fill="#e0e0e0" stroke="#999999" points="1344,-74 1266,-74 1266,-55 1344,-55 1344,-74"/>
<text text-anchor="middle" x="1305" y="-62" font-family="Helvetica,sans-Serif" font-size="10.00">driver/gpio.h</text>
</a>
</g>
</g>
<!-- Node18&#45;&gt;Node19 -->
<g id="edge18_Node000018_Node000019" class="edge">
<title>Node18&#45;&gt;Node19</title>
<g id="a_edge18_Node000018_Node000019"><a xlink:title=" ">
<path fill="none" stroke="#63b8ff" d="M1422.51,-109.98C1399.48,-101.27 1363.46,-87.63 1337.37,-77.75"/>
<polygon fill="#63b8ff" stroke="#63b8ff" points="1338.49,-74.44 1327.9,-74.17 1336.02,-80.98 1338.49,-74.44"/>
</a>
</g>
</g>
<!-- Node18&#45;&gt;Node20 -->
<g id="edge20_Node000018_Node000020" class="edge">
<title>Node18&#45;&gt;Node20</title>
<g id="a_edge20_Node000018_Node000020"><a xlink:title=" ">
<path fill="none" stroke="#63b8ff" d="M1494.49,-109.98C1548.63,-100.67 1635.4,-85.74 1693.28,-75.78"/>
<polygon fill="#63b8ff" stroke="#63b8ff" points="1694.12,-79.18 1703.38,-74.04 1692.93,-72.28 1694.12,-79.18"/>
</a>
</g>
</g>
<!-- Node21 -->
<g id="Node000021" class="node">
<title>Node21</title>
<g id="a_Node000021"><a xlink:title=" ">
<polygon fill="#e0e0e0" stroke="#999999" points="1423.5,-74 1362.5,-74 1362.5,-55 1423.5,-55 1423.5,-74"/>
<text text-anchor="middle" x="1393" y="-62" font-family="Helvetica,sans-Serif" font-size="10.00">esp_err.h</text>
</a>
</g>
</g>
<!-- Node18&#45;&gt;Node21 -->
<g id="edge21_Node000018_Node000021" class="edge">
<title>Node18&#45;&gt;Node21</title>
<g id="a_edge21_Node000018_Node000021"><a xlink:title=" ">
<path fill="none" stroke="#63b8ff" d="M1436.41,-109.75C1428.84,-102.03 1417.62,-90.6 1408.49,-81.28"/>
<polygon fill="#63b8ff" stroke="#63b8ff" points="1410.93,-78.78 1401.43,-74.09 1405.93,-83.68 1410.93,-78.78"/>
</a>
</g>
</g>
<!-- Node22 -->
<g id="Node000022" class="node">
<title>Node22</title>
<g id="a_Node000022"><a xlink:href="led__strip__encoder_8h.html" target="_top" xlink:title=" ">
<polygon fill="white" stroke="#666666" points="1552.5,-74 1441.5,-74 1441.5,-55 1552.5,-55 1552.5,-74"/>
<text text-anchor="middle" x="1497" y="-62" font-family="Helvetica,sans-Serif" font-size="10.00">led_strip_encoder.h</text>
</a>
</g>
</g>
<!-- Node18&#45;&gt;Node22 -->
<g id="edge22_Node000018_Node000022" class="edge">
<title>Node18&#45;&gt;Node22</title>
<g id="a_edge22_Node000018_Node000022"><a xlink:title=" ">
<path fill="none" stroke="#63b8ff" d="M1453.59,-109.75C1461.16,-102.03 1472.38,-90.6 1481.51,-81.28"/>
<polygon fill="#63b8ff" stroke="#63b8ff" points="1484.07,-83.68 1488.57,-74.09 1479.07,-78.78 1484.07,-83.68"/>
</a>
</g>
</g>
<!-- Node23 -->
<g id="Node000023" class="node">
<title>Node23</title>
<g id="a_Node000023"><a xlink:title=" ">
<polygon fill="#e0e0e0" stroke="#999999" points="1565.5,-19 1512.5,-19 1512.5,0 1565.5,0 1565.5,-19"/>
<text text-anchor="middle" x="1539" y="-7" font-family="Helvetica,sans-Serif" font-size="10.00">stdint.h</text>
</a>
</g>
</g>
<!-- Node18&#45;&gt;Node23 -->
<g id="edge26_Node000018_Node000023" class="edge">
<title>Node18&#45;&gt;Node23</title>
<g id="a_edge26_Node000018_Node000023"><a xlink:title=" ">
<path fill="none" stroke="#63b8ff" d="M1496.02,-112.23C1519.93,-106.44 1546.34,-95.33 1561,-74 1570.67,-59.94 1562.11,-41.22 1552.99,-27.75"/>
<polygon fill="#63b8ff" stroke="#63b8ff" points="1555.57,-25.35 1546.81,-19.39 1549.94,-29.51 1555.57,-25.35"/>
</a>
</g>
</g>
<!-- Node24 -->
<g id="Node000024" class="node">
<title>Node24</title>
<g id="a_Node000024"><a xlink:title=" ">
<polygon fill="#e0e0e0" stroke="#999999" points="1681,-74 1609,-74 1609,-55 1681,-55 1681,-74"/>
<text text-anchor="middle" x="1645" y="-62" font-family="Helvetica,sans-Serif" font-size="10.00">sdkconfig.h</text>
</a>
</g>
</g>
<!-- Node18&#45;&gt;Node24 -->
<g id="edge25_Node000018_Node000024" class="edge">
<title>Node18&#45;&gt;Node24</title>
<g id="a_edge25_Node000018_Node000024"><a xlink:title=" ">
<path fill="none" stroke="#63b8ff" d="M1477.13,-109.98C1511.15,-100.97 1565,-86.7 1602.5,-76.76"/>
<polygon fill="#63b8ff" stroke="#63b8ff" points="1603.84,-80.03 1612.61,-74.08 1602.05,-73.26 1603.84,-80.03"/>
</a>
</g>
</g>
<!-- Node22&#45;&gt;Node13 -->
<g id="edge23_Node000022_Node000013" class="edge">
<title>Node22&#45;&gt;Node13</title>
<g id="a_edge23_Node000022_Node000013"><a xlink:title=" ">
<path fill="none" stroke="#63b8ff" d="M1441.21,-55.51C1375.69,-46.12 1266.99,-30.55 1196.17,-20.41"/>
<polygon fill="#63b8ff" stroke="#63b8ff" points="1196.4,-16.91 1186.01,-18.95 1195.41,-23.83 1196.4,-16.91"/>
</a>
</g>
</g>
<!-- Node22&#45;&gt;Node23 -->
<g id="edge24_Node000022_Node000023" class="edge">
<title>Node22&#45;&gt;Node23</title>
<g id="a_edge24_Node000022_Node000023"><a xlink:title=" ">
<path fill="none" stroke="#63b8ff" d="M1503.94,-54.75C1509.87,-47.26 1518.57,-36.28 1525.82,-27.13"/>
<polygon fill="#63b8ff" stroke="#63b8ff" points="1528.73,-29.1 1532.19,-19.09 1523.24,-24.75 1528.73,-29.1"/>
</a>
</g>
</g>
</g>
</svg>
