<?xml version="1.0" encoding="UTF-8" standalone="no"?>
<!DOCTYPE svg PUBLIC "-//W3C//DTD SVG 1.1//EN"
 "http://www.w3.org/Graphics/SVG/1.1/DTD/svg11.dtd">
<!-- Generated by graphviz version 2.43.0 (0)
 -->
<!-- Title: src/ws2812_effects.cpp Pages: 1 -->
<svg width="1815pt" height="302pt"
 viewBox="0.00 0.00 1814.50 302.00" xmlns="http://www.w3.org/2000/svg" xmlns:xlink="http://www.w3.org/1999/xlink">
<g id="graph0" class="graph" transform="scale(1 1) rotate(0) translate(4 298)">
<title>src/ws2812_effects.cpp</title>
<!-- Node1 -->
<g id="Node000001" class="node">
<title>Node1</title>
<g id="a_Node000001"><a xlink:title="LED animation effects implementation.">
<polygon fill="#999999" stroke="#666666" points="1660,-294 1530,-294 1530,-275 1660,-275 1660,-294"/>
<text text-anchor="middle" x="1595" y="-282" font-family="Helvetica,sans-Serif" font-size="10.00">src/ws2812_effects.cpp</text>
</a>
</g>
</g>
<!-- Node2 -->
<g id="Node000002" class="node">
<title>Node2</title>
<g id="a_Node000002"><a xlink:href="ws2812__effects_8hpp.html" target="_top" xlink:title="LED animation effects for WS2812 strips.">
<polygon fill="white" stroke="#666666" points="1609.5,-239 1496.5,-239 1496.5,-220 1609.5,-220 1609.5,-239"/>
<text text-anchor="middle" x="1553" y="-227" font-family="Helvetica,sans-Serif" font-size="10.00">ws2812_effects.hpp</text>
</a>
</g>
</g>
<!-- Node1&#45;&gt;Node2 -->
<g id="edge1_Node000001_Node000002" class="edge">
<title>Node1&#45;&gt;Node2</title>
<g id="a_edge1_Node000001_Node000002"><a xlink:title=" ">
<path fill="none" stroke="#63b8ff" d="M1588.06,-274.75C1582.13,-267.26 1573.43,-256.28 1566.18,-247.13"/>
<polygon fill="#63b8ff" stroke="#63b8ff" points="1568.76,-244.75 1559.81,-239.09 1563.27,-249.1 1568.76,-244.75"/>
</a>
</g>
</g>
<!-- Node21 -->
<g id="Node000021" class="node">
<title>Node21</title>
<g id="a_Node000021"><a xlink:title=" ">
<polygon fill="#e0e0e0" stroke="#999999" points="1806.5,-74 1699.5,-74 1699.5,-55 1806.5,-55 1806.5,-74"/>
<text text-anchor="middle" x="1753" y="-62" font-family="Helvetica,sans-Serif" font-size="10.00">driver/rmt_types.h</text>
</a>
</g>
</g>
<!-- Node1&#45;&gt;Node21 -->
<g id="edge31_Node000001_Node000021" class="edge">
<title>Node1&#45;&gt;Node21</title>
<g id="a_edge31_Node000001_Node000021"><a xlink:title=" ">
<path fill="none" stroke="#63b8ff" d="M1601.19,-274.95C1624.74,-242.47 1708.94,-126.29 1740.73,-82.43"/>
<polygon fill="#63b8ff" stroke="#63b8ff" points="1743.64,-84.37 1746.68,-74.22 1737.97,-80.27 1743.64,-84.37"/>
</a>
</g>
</g>
<!-- Node3 -->
<g id="Node000003" class="node">
<title>Node3</title>
<g id="a_Node000003"><a xlink:href="ws2812__cpp_8hpp.html" target="_top" xlink:title="C++ wrapper for the HF&#45;WS2812 RMT LED driver.">
<polygon fill="white" stroke="#666666" points="1510,-184 1412,-184 1412,-165 1510,-165 1510,-184"/>
<text text-anchor="middle" x="1461" y="-172" font-family="Helvetica,sans-Serif" font-size="10.00">ws2812_cpp.hpp</text>
</a>
</g>
</g>
<!-- Node2&#45;&gt;Node3 -->
<g id="edge2_Node000002_Node000003" class="edge">
<title>Node2&#45;&gt;Node3</title>
<g id="a_edge2_Node000002_Node000003"><a xlink:title=" ">
<path fill="none" stroke="#63b8ff" d="M1538.22,-219.98C1523.82,-211.69 1501.69,-198.94 1484.81,-189.22"/>
<polygon fill="#63b8ff" stroke="#63b8ff" points="1486.46,-186.13 1476.05,-184.17 1482.97,-192.19 1486.46,-186.13"/>
</a>
</g>
</g>
<!-- Node4 -->
<g id="Node000004" class="node">
<title>Node4</title>
<g id="a_Node000004"><a xlink:href="rmt__wrapper_8hpp.html" target="_top" xlink:title="A modern C++17 header‑only wrapper around the ESP‑IDF v5.3 “new” RMT.">
<polygon fill="white" stroke="#666666" points="626.5,-129 527.5,-129 527.5,-110 626.5,-110 626.5,-129"/>
<text text-anchor="middle" x="577" y="-117" font-family="Helvetica,sans-Serif" font-size="10.00">rmt_wrapper.hpp</text>
</a>
</g>
</g>
<!-- Node3&#45;&gt;Node4 -->
<g id="edge3_Node000003_Node000004" class="edge">
<title>Node3&#45;&gt;Node4</title>
<g id="a_edge3_Node000003_Node000004"><a xlink:title=" ">
<path fill="none" stroke="#63b8ff" d="M1411.9,-170.56C1260.67,-161.49 802.28,-134.01 637.12,-124.1"/>
<polygon fill="#63b8ff" stroke="#63b8ff" points="636.86,-120.58 626.67,-123.48 636.44,-127.57 636.86,-120.58"/>
</a>
</g>
</g>
<!-- Node9 -->
<g id="Node000009" class="node">
<title>Node9</title>
<g id="a_Node000009"><a xlink:title=" ">
<polygon fill="#e0e0e0" stroke="#999999" points="50,-74 0,-74 0,-55 50,-55 50,-74"/>
<text text-anchor="middle" x="25" y="-62" font-family="Helvetica,sans-Serif" font-size="10.00">cstdint</text>
</a>
</g>
</g>
<!-- Node3&#45;&gt;Node9 -->
<g id="edge29_Node000003_Node000009" class="edge">
<title>Node3&#45;&gt;Node9</title>
<g id="a_edge29_Node000003_Node000009"><a xlink:title=" ">
<path fill="none" stroke="#63b8ff" d="M1411.83,-172.43C1271.87,-169.11 859.36,-157.47 518,-129 316.55,-112.2 262.78,-111.24 60.25,-74.03"/>
<polygon fill="#63b8ff" stroke="#63b8ff" points="60.64,-70.54 50.17,-72.17 59.37,-77.42 60.64,-70.54"/>
</a>
</g>
</g>
<!-- Node19 -->
<g id="Node000019" class="node">
<title>Node19</title>
<g id="a_Node000019"><a xlink:href="ws2812__control_8h.html" target="_top" xlink:title="ESP&#45;IDF RMT based driver for WS2812 / NeoPixel LED chains.">
<polygon fill="white" stroke="#666666" points="1467,-129 1365,-129 1365,-110 1467,-110 1467,-129"/>
<text text-anchor="middle" x="1416" y="-117" font-family="Helvetica,sans-Serif" font-size="10.00">ws2812_control.h</text>
</a>
</g>
</g>
<!-- Node3&#45;&gt;Node19 -->
<g id="edge18_Node000003_Node000019" class="edge">
<title>Node3&#45;&gt;Node19</title>
<g id="a_edge18_Node000003_Node000019"><a xlink:title=" ">
<path fill="none" stroke="#63b8ff" d="M1453.57,-164.75C1447.15,-157.18 1437.69,-146.05 1429.88,-136.84"/>
<polygon fill="#63b8ff" stroke="#63b8ff" points="1432.43,-134.45 1423.29,-129.09 1427.1,-138.98 1432.43,-134.45"/>
</a>
</g>
</g>
<!-- Node26 -->
<g id="Node000026" class="node">
<title>Node26</title>
<g id="a_Node000026"><a xlink:title=" ">
<polygon fill="#e0e0e0" stroke="#999999" points="1589,-129 1485,-129 1485,-110 1589,-110 1589,-129"/>
<text text-anchor="middle" x="1537" y="-117" font-family="Helvetica,sans-Serif" font-size="10.00">ws2812_version.h</text>
</a>
</g>
</g>
<!-- Node3&#45;&gt;Node26 -->
<g id="edge28_Node000003_Node000026" class="edge">
<title>Node3&#45;&gt;Node26</title>
<g id="a_edge28_Node000003_Node000026"><a xlink:title=" ">
<path fill="none" stroke="#63b8ff" d="M1473.21,-164.98C1484.78,-156.92 1502.38,-144.65 1516.16,-135.03"/>
<polygon fill="#63b8ff" stroke="#63b8ff" points="1518.37,-137.76 1524.57,-129.17 1514.36,-132.02 1518.37,-137.76"/>
</a>
</g>
</g>
<!-- Node27 -->
<g id="Node000027" class="node">
<title>Node27</title>
<g id="a_Node000027"><a xlink:title=" ">
<polygon fill="#e0e0e0" stroke="#999999" points="1654.5,-129 1607.5,-129 1607.5,-110 1654.5,-110 1654.5,-129"/>
<text text-anchor="middle" x="1631" y="-117" font-family="Helvetica,sans-Serif" font-size="10.00">vector</text>
</a>
</g>
</g>
<!-- Node3&#45;&gt;Node27 -->
<g id="edge30_Node000003_Node000027" class="edge">
<title>Node3&#45;&gt;Node27</title>
<g id="a_edge30_Node000003_Node000027"><a xlink:title=" ">
<path fill="none" stroke="#63b8ff" d="M1488.31,-164.98C1518.04,-155.72 1565.59,-140.89 1597.54,-130.93"/>
<polygon fill="#63b8ff" stroke="#63b8ff" points="1598.81,-134.2 1607.32,-127.88 1596.73,-127.52 1598.81,-134.2"/>
</a>
</g>
</g>
<!-- Node5 -->
<g id="Node000005" class="node">
<title>Node5</title>
<g id="a_Node000005"><a xlink:title=" ">
<polygon fill="#e0e0e0" stroke="#999999" points="170,-74 68,-74 68,-55 170,-55 170,-74"/>
<text text-anchor="middle" x="119" y="-62" font-family="Helvetica,sans-Serif" font-size="10.00">esp_idf_version.h</text>
</a>
</g>
</g>
<!-- Node4&#45;&gt;Node5 -->
<g id="edge4_Node000004_Node000005" class="edge">
<title>Node4&#45;&gt;Node5</title>
<g id="a_edge4_Node000004_Node000005"><a xlink:title=" ">
<path fill="none" stroke="#63b8ff" d="M527.31,-113.42C453.84,-105.8 311.65,-90.66 180.29,-74.13"/>
<polygon fill="#63b8ff" stroke="#63b8ff" points="180.41,-70.62 170.05,-72.84 179.53,-77.56 180.41,-70.62"/>
</a>
</g>
</g>
<!-- Node6 -->
<g id="Node000006" class="node">
<title>Node6</title>
<g id="a_Node000006"><a xlink:title=" ">
<polygon fill="#e0e0e0" stroke="#999999" points="230,-74 188,-74 188,-55 230,-55 230,-74"/>
<text text-anchor="middle" x="209" y="-62" font-family="Helvetica,sans-Serif" font-size="10.00">array</text>
</a>
</g>
</g>
<!-- Node4&#45;&gt;Node6 -->
<g id="edge5_Node000004_Node000006" class="edge">
<title>Node4&#45;&gt;Node6</title>
<g id="a_edge5_Node000004_Node000006"><a xlink:title=" ">
<path fill="none" stroke="#63b8ff" d="M527.37,-114.24C463.14,-108.23 347.7,-95.72 240.25,-73.98"/>
<polygon fill="#63b8ff" stroke="#63b8ff" points="240.71,-70.51 230.21,-71.92 239.3,-77.36 240.71,-70.51"/>
</a>
</g>
</g>
<!-- Node7 -->
<g id="Node000007" class="node">
<title>Node7</title>
<g id="a_Node000007"><a xlink:title=" ">
<polygon fill="#e0e0e0" stroke="#999999" points="298,-74 248,-74 248,-55 298,-55 298,-74"/>
<text text-anchor="middle" x="273" y="-62" font-family="Helvetica,sans-Serif" font-size="10.00">atomic</text>
</a>
</g>
</g>
<!-- Node4&#45;&gt;Node7 -->
<g id="edge6_Node000004_Node000007" class="edge">
<title>Node4&#45;&gt;Node7</title>
<g id="a_edge6_Node000004_Node000007"><a xlink:title=" ">
<path fill="none" stroke="#63b8ff" d="M527.01,-111.51C474.77,-103.92 390.22,-90.87 308.19,-74.11"/>
<polygon fill="#63b8ff" stroke="#63b8ff" points="308.7,-70.64 298.2,-72.04 307.28,-77.49 308.7,-70.64"/>
</a>
</g>
</g>
<!-- Node8 -->
<g id="Node000008" class="node">
<title>Node8</title>
<g id="a_Node000008"><a xlink:title=" ">
<polygon fill="#e0e0e0" stroke="#999999" points="369.5,-74 316.5,-74 316.5,-55 369.5,-55 369.5,-74"/>
<text text-anchor="middle" x="343" y="-62" font-family="Helvetica,sans-Serif" font-size="10.00">cstddef</text>
</a>
</g>
</g>
<!-- Node4&#45;&gt;Node8 -->
<g id="edge7_Node000004_Node000008" class="edge">
<title>Node4&#45;&gt;Node8</title>
<g id="a_edge7_Node000004_Node000008"><a xlink:title=" ">
<path fill="none" stroke="#63b8ff" d="M537.68,-109.93C499.62,-101.58 440.04,-88.39 379.8,-74.39"/>
<polygon fill="#63b8ff" stroke="#63b8ff" points="380.27,-70.91 369.74,-72.05 378.69,-77.73 380.27,-70.91"/>
</a>
</g>
</g>
<!-- Node4&#45;&gt;Node9 -->
<g id="edge8_Node000004_Node000009" class="edge">
<title>Node4&#45;&gt;Node9</title>
<g id="a_edge8_Node000004_Node000009"><a xlink:title=" ">
<path fill="none" stroke="#63b8ff" d="M527.39,-116.87C436.49,-113.3 237.07,-102.85 60.17,-73.92"/>
<polygon fill="#63b8ff" stroke="#63b8ff" points="60.6,-70.45 50.16,-72.26 59.45,-77.35 60.6,-70.45"/>
</a>
</g>
</g>
<!-- Node10 -->
<g id="Node000010" class="node">
<title>Node10</title>
<g id="a_Node000010"><a xlink:title=" ">
<polygon fill="#e0e0e0" stroke="#999999" points="432.5,-74 387.5,-74 387.5,-55 432.5,-55 432.5,-74"/>
<text text-anchor="middle" x="410" y="-62" font-family="Helvetica,sans-Serif" font-size="10.00">utility</text>
</a>
</g>
</g>
<!-- Node4&#45;&gt;Node10 -->
<g id="edge9_Node000004_Node000010" class="edge">
<title>Node4&#45;&gt;Node10</title>
<g id="a_edge9_Node000004_Node000010"><a xlink:title=" ">
<path fill="none" stroke="#63b8ff" d="M550.17,-109.98C520.8,-100.66 473.72,-85.72 442.34,-75.76"/>
<polygon fill="#63b8ff" stroke="#63b8ff" points="443.33,-72.41 432.74,-72.72 441.21,-79.08 443.33,-72.41"/>
</a>
</g>
</g>
<!-- Node11 -->
<g id="Node000011" class="node">
<title>Node11</title>
<g id="a_Node000011"><a xlink:title=" ">
<polygon fill="#e0e0e0" stroke="#999999" points="527.5,-74 450.5,-74 450.5,-55 527.5,-55 527.5,-74"/>
<text text-anchor="middle" x="489" y="-62" font-family="Helvetica,sans-Serif" font-size="10.00">esp_check.h</text>
</a>
</g>
</g>
<!-- Node4&#45;&gt;Node11 -->
<g id="edge10_Node000004_Node000011" class="edge">
<title>Node4&#45;&gt;Node11</title>
<g id="a_edge10_Node000004_Node000011"><a xlink:title=" ">
<path fill="none" stroke="#63b8ff" d="M562.86,-109.98C549.21,-101.77 528.31,-89.18 512.22,-79.49"/>
<polygon fill="#63b8ff" stroke="#63b8ff" points="513.77,-76.33 503.4,-74.17 510.16,-82.33 513.77,-76.33"/>
</a>
</g>
</g>
<!-- Node12 -->
<g id="Node000012" class="node">
<title>Node12</title>
<g id="a_Node000012"><a xlink:title=" ">
<polygon fill="#e0e0e0" stroke="#999999" points="608.5,-74 545.5,-74 545.5,-55 608.5,-55 608.5,-74"/>
<text text-anchor="middle" x="577" y="-62" font-family="Helvetica,sans-Serif" font-size="10.00">esp_log.h</text>
</a>
</g>
</g>
<!-- Node4&#45;&gt;Node12 -->
<g id="edge11_Node000004_Node000012" class="edge">
<title>Node4&#45;&gt;Node12</title>
<g id="a_edge11_Node000004_Node000012"><a xlink:title=" ">
<path fill="none" stroke="#63b8ff" d="M577,-109.75C577,-102.8 577,-92.85 577,-84.13"/>
<polygon fill="#63b8ff" stroke="#63b8ff" points="580.5,-84.09 577,-74.09 573.5,-84.09 580.5,-84.09"/>
</a>
</g>
</g>
<!-- Node13 -->
<g id="Node000013" class="node">
<title>Node13</title>
<g id="a_Node000013"><a xlink:title=" ">
<polygon fill="#e0e0e0" stroke="#999999" points="749,-74 627,-74 627,-55 749,-55 749,-74"/>
<text text-anchor="middle" x="688" y="-62" font-family="Helvetica,sans-Serif" font-size="10.00">esp_private/esp_clk.h</text>
</a>
</g>
</g>
<!-- Node4&#45;&gt;Node13 -->
<g id="edge12_Node000004_Node000013" class="edge">
<title>Node4&#45;&gt;Node13</title>
<g id="a_edge12_Node000004_Node000013"><a xlink:title=" ">
<path fill="none" stroke="#63b8ff" d="M594.83,-109.98C612.61,-101.5 640.15,-88.35 660.68,-78.54"/>
<polygon fill="#63b8ff" stroke="#63b8ff" points="662.33,-81.64 669.84,-74.17 659.31,-75.32 662.33,-81.64"/>
</a>
</g>
</g>
<!-- Node14 -->
<g id="Node000014" class="node">
<title>Node14</title>
<g id="a_Node000014"><a xlink:title=" ">
<polygon fill="#e0e0e0" stroke="#999999" points="1186,-19 1068,-19 1068,0 1186,0 1186,-19"/>
<text text-anchor="middle" x="1127" y="-7" font-family="Helvetica,sans-Serif" font-size="10.00">driver/rmt_encoder.h</text>
</a>
</g>
</g>
<!-- Node4&#45;&gt;Node14 -->
<g id="edge13_Node000004_Node000014" class="edge">
<title>Node4&#45;&gt;Node14</title>
<g id="a_edge13_Node000004_Node000014"><a xlink:title=" ">
<path fill="none" stroke="#63b8ff" d="M623.98,-109.94C661.02,-102.49 713.66,-90.3 758,-74 775.72,-67.48 777.95,-60.56 796,-55 883.76,-27.98 989.62,-17.36 1057.59,-13.19"/>
<polygon fill="#63b8ff" stroke="#63b8ff" points="1057.97,-16.68 1067.75,-12.6 1057.56,-9.69 1057.97,-16.68"/>
</a>
</g>
</g>
<!-- Node15 -->
<g id="Node000015" class="node">
<title>Node15</title>
<g id="a_Node000015"><a xlink:title=" ">
<polygon fill="#e0e0e0" stroke="#999999" points="894.5,-74 805.5,-74 805.5,-55 894.5,-55 894.5,-74"/>
<text text-anchor="middle" x="850" y="-62" font-family="Helvetica,sans-Serif" font-size="10.00">driver/rmt_rx.h</text>
</a>
</g>
</g>
<!-- Node4&#45;&gt;Node15 -->
<g id="edge14_Node000004_Node000015" class="edge">
<title>Node4&#45;&gt;Node15</title>
<g id="a_edge14_Node000004_Node000015"><a xlink:title=" ">
<path fill="none" stroke="#63b8ff" d="M620.86,-109.98C668.48,-100.74 744.58,-85.97 795.88,-76.01"/>
<polygon fill="#63b8ff" stroke="#63b8ff" points="796.64,-79.42 805.79,-74.08 795.31,-72.55 796.64,-79.42"/>
</a>
</g>
</g>
<!-- Node16 -->
<g id="Node000016" class="node">
<title>Node16</title>
<g id="a_Node000016"><a xlink:title=" ">
<polygon fill="#e0e0e0" stroke="#999999" points="1247.5,-74 1158.5,-74 1158.5,-55 1247.5,-55 1247.5,-74"/>
<text text-anchor="middle" x="1203" y="-62" font-family="Helvetica,sans-Serif" font-size="10.00">driver/rmt_tx.h</text>
</a>
</g>
</g>
<!-- Node4&#45;&gt;Node16 -->
<g id="edge15_Node000004_Node000016" class="edge">
<title>Node4&#45;&gt;Node16</title>
<g id="a_edge15_Node000004_Node000016"><a xlink:title=" ">
<path fill="none" stroke="#63b8ff" d="M626.86,-115.94C724.72,-110.63 948.98,-97.05 1148.18,-74"/>
<polygon fill="#63b8ff" stroke="#63b8ff" points="1148.72,-77.46 1158.25,-72.82 1147.91,-70.51 1148.72,-77.46"/>
</a>
</g>
</g>
<!-- Node17 -->
<g id="Node000017" class="node">
<title>Node17</title>
<g id="a_Node000017"><a xlink:title=" ">
<polygon fill="#e0e0e0" stroke="#999999" points="1025.5,-74 912.5,-74 912.5,-55 1025.5,-55 1025.5,-74"/>
<text text-anchor="middle" x="969" y="-62" font-family="Helvetica,sans-Serif" font-size="10.00">freertos/FreeRTOS.h</text>
</a>
</g>
</g>
<!-- Node4&#45;&gt;Node17 -->
<g id="edge16_Node000004_Node000017" class="edge">
<title>Node4&#45;&gt;Node17</title>
<g id="a_edge16_Node000004_Node000017"><a xlink:title=" ">
<path fill="none" stroke="#63b8ff" d="M626.65,-111.79C696.54,-102.34 824.13,-85.09 902.26,-74.52"/>
<polygon fill="#63b8ff" stroke="#63b8ff" points="903.03,-77.95 912.48,-73.14 902.1,-71.01 903.03,-77.95"/>
</a>
</g>
</g>
<!-- Node18 -->
<g id="Node000018" class="node">
<title>Node18</title>
<g id="a_Node000018"><a xlink:title=" ">
<polygon fill="#e0e0e0" stroke="#999999" points="1140.5,-74 1043.5,-74 1043.5,-55 1140.5,-55 1140.5,-74"/>
<text text-anchor="middle" x="1092" y="-62" font-family="Helvetica,sans-Serif" font-size="10.00">freertos/queue.h</text>
</a>
</g>
</g>
<!-- Node4&#45;&gt;Node18 -->
<g id="edge17_Node000004_Node000018" class="edge">
<title>Node4&#45;&gt;Node18</title>
<g id="a_edge17_Node000004_Node000018"><a xlink:title=" ">
<path fill="none" stroke="#63b8ff" d="M626.79,-114.45C709.05,-107.58 878.73,-92.67 1033.14,-74.05"/>
<polygon fill="#63b8ff" stroke="#63b8ff" points="1033.78,-77.49 1043.29,-72.81 1032.94,-70.54 1033.78,-77.49"/>
</a>
</g>
</g>
<!-- Node19&#45;&gt;Node16 -->
<g id="edge20_Node000019_Node000016" class="edge">
<title>Node19&#45;&gt;Node16</title>
<g id="a_edge20_Node000019_Node000016"><a xlink:title=" ">
<path fill="none" stroke="#63b8ff" d="M1381.78,-109.98C1345.24,-100.89 1287.22,-86.46 1247.24,-76.51"/>
<polygon fill="#63b8ff" stroke="#63b8ff" points="1248.04,-73.1 1237.49,-74.08 1246.35,-79.89 1248.04,-73.1"/>
</a>
</g>
</g>
<!-- Node20 -->
<g id="Node000020" class="node">
<title>Node20</title>
<g id="a_Node000020"><a xlink:title=" ">
<polygon fill="#e0e0e0" stroke="#999999" points="1344,-74 1266,-74 1266,-55 1344,-55 1344,-74"/>
<text text-anchor="middle" x="1305" y="-62" font-family="Helvetica,sans-Serif" font-size="10.00">driver/gpio.h</text>
</a>
</g>
</g>
<!-- Node19&#45;&gt;Node20 -->
<g id="edge19_Node000019_Node000020" class="edge">
<title>Node19&#45;&gt;Node20</title>
<g id="a_edge19_Node000019_Node000020"><a xlink:title=" ">
<path fill="none" stroke="#63b8ff" d="M1398.17,-109.98C1380.39,-101.5 1352.85,-88.35 1332.32,-78.54"/>
<polygon fill="#63b8ff" stroke="#63b8ff" points="1333.69,-75.32 1323.16,-74.17 1330.67,-81.64 1333.69,-75.32"/>
</a>
</g>
</g>
<!-- Node19&#45;&gt;Node21 -->
<g id="edge21_Node000019_Node000021" class="edge">
<title>Node19&#45;&gt;Node21</title>
<g id="a_edge21_Node000019_Node000021"><a xlink:title=" ">
<path fill="none" stroke="#63b8ff" d="M1467.18,-110.45C1526.7,-101.09 1624.97,-85.64 1689.35,-75.51"/>
<polygon fill="#63b8ff" stroke="#63b8ff" points="1690.05,-78.94 1699.38,-73.93 1688.96,-72.03 1690.05,-78.94"/>
</a>
</g>
</g>
<!-- Node22 -->
<g id="Node000022" class="node">
<title>Node22</title>
<g id="a_Node000022"><a xlink:title=" ">
<polygon fill="#e0e0e0" stroke="#999999" points="1423.5,-74 1362.5,-74 1362.5,-55 1423.5,-55 1423.5,-74"/>
<text text-anchor="middle" x="1393" y="-62" font-family="Helvetica,sans-Serif" font-size="10.00">esp_err.h</text>
</a>
</g>
</g>
<!-- Node19&#45;&gt;Node22 -->
<g id="edge22_Node000019_Node000022" class="edge">
<title>Node19&#45;&gt;Node22</title>
<g id="a_edge22_Node000019_Node000022"><a xlink:title=" ">
<path fill="none" stroke="#63b8ff" d="M1412.2,-109.75C1409.09,-102.57 1404.58,-92.18 1400.71,-83.27"/>
<polygon fill="#63b8ff" stroke="#63b8ff" points="1403.92,-81.87 1396.73,-74.09 1397.5,-84.66 1403.92,-81.87"/>
</a>
</g>
</g>
<!-- Node23 -->
<g id="Node000023" class="node">
<title>Node23</title>
<g id="a_Node000023"><a xlink:href="led__strip__encoder_8h.html" target="_top" xlink:title=" ">
<polygon fill="white" stroke="#666666" points="1552.5,-74 1441.5,-74 1441.5,-55 1552.5,-55 1552.5,-74"/>
<text text-anchor="middle" x="1497" y="-62" font-family="Helvetica,sans-Serif" font-size="10.00">led_strip_encoder.h</text>
</a>
</g>
</g>
<!-- Node19&#45;&gt;Node23 -->
<g id="edge23_Node000019_Node000023" class="edge">
<title>Node19&#45;&gt;Node23</title>
<g id="a_edge23_Node000019_Node000023"><a xlink:title=" ">
<path fill="none" stroke="#63b8ff" d="M1429.01,-109.98C1441.46,-101.84 1460.46,-89.41 1475.21,-79.76"/>
<polygon fill="#63b8ff" stroke="#63b8ff" points="1477.3,-82.57 1483.75,-74.17 1473.46,-76.72 1477.3,-82.57"/>
</a>
</g>
</g>
<!-- Node24 -->
<g id="Node000024" class="node">
<title>Node24</title>
<g id="a_Node000024"><a xlink:title=" ">
<polygon fill="#e0e0e0" stroke="#999999" points="1565.5,-19 1512.5,-19 1512.5,0 1565.5,0 1565.5,-19"/>
<text text-anchor="middle" x="1539" y="-7" font-family="Helvetica,sans-Serif" font-size="10.00">stdint.h</text>
</a>
</g>
</g>
<!-- Node19&#45;&gt;Node24 -->
<g id="edge27_Node000019_Node000024" class="edge">
<title>Node19&#45;&gt;Node24</title>
<g id="a_edge27_Node000019_Node000024"><a xlink:title=" ">
<path fill="none" stroke="#63b8ff" d="M1464.71,-109.94C1502.13,-102.26 1549.34,-89.78 1561,-74 1571.35,-59.99 1562.15,-40.73 1552.68,-27.1"/>
<polygon fill="#63b8ff" stroke="#63b8ff" points="1555.43,-24.94 1546.62,-19.07 1549.85,-29.16 1555.43,-24.94"/>
</a>
</g>
</g>
<!-- Node25 -->
<g id="Node000025" class="node">
<title>Node25</title>
<g id="a_Node000025"><a xlink:title=" ">
<polygon fill="#e0e0e0" stroke="#999999" points="1681,-74 1609,-74 1609,-55 1681,-55 1681,-74"/>
<text text-anchor="middle" x="1645" y="-62" font-family="Helvetica,sans-Serif" font-size="10.00">sdkconfig.h</text>
</a>
</g>
</g>
<!-- Node19&#45;&gt;Node25 -->
<g id="edge26_Node000019_Node000025" class="edge">
<title>Node19&#45;&gt;Node25</title>
<g id="a_edge26_Node000019_Node000025"><a xlink:title=" ">
<path fill="none" stroke="#63b8ff" d="M1452.79,-109.98C1492.47,-100.8 1555.73,-86.16 1598.74,-76.21"/>
<polygon fill="#63b8ff" stroke="#63b8ff" points="1599.72,-79.57 1608.68,-73.91 1598.15,-72.75 1599.72,-79.57"/>
</a>
</g>
</g>
<!-- Node23&#45;&gt;Node14 -->
<g id="edge24_Node000023_Node000014" class="edge">
<title>Node23&#45;&gt;Node14</title>
<g id="a_edge24_Node000023_Node000014"><a xlink:title=" ">
<path fill="none" stroke="#63b8ff" d="M1441.21,-55.51C1375.69,-46.12 1266.99,-30.55 1196.17,-20.41"/>
<polygon fill="#63b8ff" stroke="#63b8ff" points="1196.4,-16.91 1186.01,-18.95 1195.41,-23.83 1196.4,-16.91"/>
</a>
</g>
</g>
<!-- Node23&#45;&gt;Node24 -->
<g id="edge25_Node000023_Node000024" class="edge">
<title>Node23&#45;&gt;Node24</title>
<g id="a_edge25_Node000023_Node000024"><a xlink:title=" ">
<path fill="none" stroke="#63b8ff" d="M1503.94,-54.75C1509.87,-47.26 1518.57,-36.28 1525.82,-27.13"/>
<polygon fill="#63b8ff" stroke="#63b8ff" points="1528.73,-29.1 1532.19,-19.09 1523.24,-24.75 1528.73,-29.1"/>
</a>
</g>
</g>
</g>
</svg>
