<?xml version="1.0" encoding="UTF-8" standalone="no"?>
<!DOCTYPE svg PUBLIC "-//W3C//DTD SVG 1.1//EN"
 "http://www.w3.org/Graphics/SVG/1.1/DTD/svg11.dtd">
<!-- Generated by graphviz version 2.43.0 (0)
 -->
<!-- Title: inc/ws2812_multi_animator.hpp Pages: 1 -->
<svg width="1814pt" height="302pt"
 viewBox="0.00 0.00 1814.00 302.00" xmlns="http://www.w3.org/2000/svg" xmlns:xlink="http://www.w3.org/1999/xlink">
<g id="graph0" class="graph" transform="scale(1 1) rotate(0) translate(4 298)">
<title>inc/ws2812_multi_animator.hpp</title>
<!-- Node1 -->
<g id="Node000001" class="node">
<title>Node1</title>
<g id="a_Node000001"><a xlink:title=" ">
<polygon fill="#999999" stroke="#666666" points="1625,-294 1453,-294 1453,-275 1625,-275 1625,-294"/>
<text text-anchor="middle" x="1539" y="-282" font-family="Helvetica,sans-Serif" font-size="10.00">inc/ws2812_multi_animator.hpp</text>
</a>
</g>
</g>
<!-- Node2 -->
<g id="Node000002" class="node">
<title>Node2</title>
<g id="a_Node000002"><a xlink:href="ws2812__effects_8hpp.html" target="_top" xlink:title="LED animation effects for WS2812 strips.">
<polygon fill="white" stroke="#666666" points="1553.5,-239 1440.5,-239 1440.5,-220 1553.5,-220 1553.5,-239"/>
<text text-anchor="middle" x="1497" y="-227" font-family="Helvetica,sans-Serif" font-size="10.00">ws2812_effects.hpp</text>
</a>
</g>
</g>
<!-- Node1&#45;&gt;Node2 -->
<g id="edge1_Node000001_Node000002" class="edge">
<title>Node1&#45;&gt;Node2</title>
<g id="a_edge1_Node000001_Node000002"><a xlink:title=" ">
<path fill="none" stroke="#63b8ff" d="M1532.06,-274.75C1526.13,-267.26 1517.43,-256.28 1510.18,-247.13"/>
<polygon fill="#63b8ff" stroke="#63b8ff" points="1512.76,-244.75 1503.81,-239.09 1507.27,-249.1 1512.76,-244.75"/>
</a>
</g>
</g>
<!-- Node27 -->
<g id="Node000027" class="node">
<title>Node27</title>
<g id="a_Node000027"><a xlink:title=" ">
<polygon fill="#e0e0e0" stroke="#999999" points="1654.5,-129 1607.5,-129 1607.5,-110 1654.5,-110 1654.5,-129"/>
<text text-anchor="middle" x="1631" y="-117" font-family="Helvetica,sans-Serif" font-size="10.00">vector</text>
</a>
</g>
</g>
<!-- Node1&#45;&gt;Node27 -->
<g id="edge31_Node000001_Node000027" class="edge">
<title>Node1&#45;&gt;Node27</title>
<g id="a_edge31_Node000001_Node000027"><a xlink:title=" ">
<path fill="none" stroke="#63b8ff" d="M1543.95,-274.74C1558.49,-248.98 1601.29,-173.13 1620.94,-138.33"/>
<polygon fill="#63b8ff" stroke="#63b8ff" points="1624.16,-139.74 1626.03,-129.31 1618.07,-136.3 1624.16,-139.74"/>
</a>
</g>
</g>
<!-- Node3 -->
<g id="Node000003" class="node">
<title>Node3</title>
<g id="a_Node000003"><a xlink:href="ws2812__cpp_8hpp.html" target="_top" xlink:title="C++ wrapper for the HF&#45;WS2812 RMT LED driver.">
<polygon fill="white" stroke="#666666" points="1481,-184 1383,-184 1383,-165 1481,-165 1481,-184"/>
<text text-anchor="middle" x="1432" y="-172" font-family="Helvetica,sans-Serif" font-size="10.00">ws2812_cpp.hpp</text>
</a>
</g>
</g>
<!-- Node2&#45;&gt;Node3 -->
<g id="edge2_Node000002_Node000003" class="edge">
<title>Node2&#45;&gt;Node3</title>
<g id="a_edge2_Node000002_Node000003"><a xlink:title=" ">
<path fill="none" stroke="#63b8ff" d="M1486.56,-219.98C1476.85,-212.07 1462.18,-200.11 1450.5,-190.58"/>
<polygon fill="#63b8ff" stroke="#63b8ff" points="1452.6,-187.78 1442.63,-184.17 1448.17,-193.2 1452.6,-187.78"/>
</a>
</g>
</g>
<!-- Node4 -->
<g id="Node000004" class="node">
<title>Node4</title>
<g id="a_Node000004"><a xlink:href="rmt__wrapper_8hpp.html" target="_top" xlink:title="A modern C++17 header‑only wrapper around the ESP‑IDF v5.3 “new” RMT.">
<polygon fill="white" stroke="#666666" points="626.5,-129 527.5,-129 527.5,-110 626.5,-110 626.5,-129"/>
<text text-anchor="middle" x="577" y="-117" font-family="Helvetica,sans-Serif" font-size="10.00">rmt_wrapper.hpp</text>
</a>
</g>
</g>
<!-- Node3&#45;&gt;Node4 -->
<g id="edge3_Node000003_Node000004" class="edge">
<title>Node3&#45;&gt;Node4</title>
<g id="a_edge3_Node000003_Node000004"><a xlink:title=" ">
<path fill="none" stroke="#63b8ff" d="M1382.96,-170.46C1235.66,-161.33 797.37,-134.16 636.81,-124.21"/>
<polygon fill="#63b8ff" stroke="#63b8ff" points="636.84,-120.7 626.64,-123.58 636.41,-127.69 636.84,-120.7"/>
</a>
</g>
</g>
<!-- Node9 -->
<g id="Node000009" class="node">
<title>Node9</title>
<g id="a_Node000009"><a xlink:title=" ">
<polygon fill="#e0e0e0" stroke="#999999" points="50,-74 0,-74 0,-55 50,-55 50,-74"/>
<text text-anchor="middle" x="25" y="-62" font-family="Helvetica,sans-Serif" font-size="10.00">cstdint</text>
</a>
</g>
</g>
<!-- Node3&#45;&gt;Node9 -->
<g id="edge29_Node000003_Node000009" class="edge">
<title>Node3&#45;&gt;Node9</title>
<g id="a_edge29_Node000003_Node000009"><a xlink:title=" ">
<path fill="none" stroke="#63b8ff" d="M1382.88,-172.33C1245.82,-168.8 847.68,-156.74 518,-129 316.56,-112.05 262.78,-111.23 60.25,-74.03"/>
<polygon fill="#63b8ff" stroke="#63b8ff" points="60.64,-70.54 50.17,-72.17 59.37,-77.42 60.64,-70.54"/>
</a>
</g>
</g>
<!-- Node19 -->
<g id="Node000019" class="node">
<title>Node19</title>
<g id="a_Node000019"><a xlink:href="ws2812__control_8h.html" target="_top" xlink:title="ESP&#45;IDF RMT based driver for WS2812 / NeoPixel LED chains.">
<polygon fill="white" stroke="#666666" points="1467,-129 1365,-129 1365,-110 1467,-110 1467,-129"/>
<text text-anchor="middle" x="1416" y="-117" font-family="Helvetica,sans-Serif" font-size="10.00">ws2812_control.h</text>
</a>
</g>
</g>
<!-- Node3&#45;&gt;Node19 -->
<g id="edge18_Node000003_Node000019" class="edge">
<title>Node3&#45;&gt;Node19</title>
<g id="a_edge18_Node000003_Node000019"><a xlink:title=" ">
<path fill="none" stroke="#63b8ff" d="M1429.36,-164.75C1427.24,-157.72 1424.19,-147.62 1421.54,-138.84"/>
<polygon fill="#63b8ff" stroke="#63b8ff" points="1424.83,-137.65 1418.59,-129.09 1418.13,-139.67 1424.83,-137.65"/>
</a>
</g>
</g>
<!-- Node26 -->
<g id="Node000026" class="node">
<title>Node26</title>
<g id="a_Node000026"><a xlink:title=" ">
<polygon fill="#e0e0e0" stroke="#999999" points="1589,-129 1485,-129 1485,-110 1589,-110 1589,-129"/>
<text text-anchor="middle" x="1537" y="-117" font-family="Helvetica,sans-Serif" font-size="10.00">ws2812_version.h</text>
</a>
</g>
</g>
<!-- Node3&#45;&gt;Node26 -->
<g id="edge28_Node000003_Node000026" class="edge">
<title>Node3&#45;&gt;Node26</title>
<g id="a_edge28_Node000003_Node000026"><a xlink:title=" ">
<path fill="none" stroke="#63b8ff" d="M1448.87,-164.98C1465.61,-156.54 1491.5,-143.47 1510.89,-133.68"/>
<polygon fill="#63b8ff" stroke="#63b8ff" points="1512.47,-136.8 1519.82,-129.17 1509.32,-130.55 1512.47,-136.8"/>
</a>
</g>
</g>
<!-- Node3&#45;&gt;Node27 -->
<g id="edge30_Node000003_Node000027" class="edge">
<title>Node3&#45;&gt;Node27</title>
<g id="a_edge30_Node000003_Node000027"><a xlink:title=" ">
<path fill="none" stroke="#63b8ff" d="M1463.97,-164.98C1500.53,-155.25 1560.11,-139.38 1597.35,-129.46"/>
<polygon fill="#63b8ff" stroke="#63b8ff" points="1598.46,-132.79 1607.22,-126.83 1596.66,-126.02 1598.46,-132.79"/>
</a>
</g>
</g>
<!-- Node5 -->
<g id="Node000005" class="node">
<title>Node5</title>
<g id="a_Node000005"><a xlink:title=" ">
<polygon fill="#e0e0e0" stroke="#999999" points="170,-74 68,-74 68,-55 170,-55 170,-74"/>
<text text-anchor="middle" x="119" y="-62" font-family="Helvetica,sans-Serif" font-size="10.00">esp_idf_version.h</text>
</a>
</g>
</g>
<!-- Node4&#45;&gt;Node5 -->
<g id="edge4_Node000004_Node000005" class="edge">
<title>Node4&#45;&gt;Node5</title>
<g id="a_edge4_Node000004_Node000005"><a xlink:title=" ">
<path fill="none" stroke="#63b8ff" d="M527.31,-113.42C453.84,-105.8 311.65,-90.66 180.29,-74.13"/>
<polygon fill="#63b8ff" stroke="#63b8ff" points="180.41,-70.62 170.05,-72.84 179.53,-77.56 180.41,-70.62"/>
</a>
</g>
</g>
<!-- Node6 -->
<g id="Node000006" class="node">
<title>Node6</title>
<g id="a_Node000006"><a xlink:title=" ">
<polygon fill="#e0e0e0" stroke="#999999" points="230,-74 188,-74 188,-55 230,-55 230,-74"/>
<text text-anchor="middle" x="209" y="-62" font-family="Helvetica,sans-Serif" font-size="10.00">array</text>
</a>
</g>
</g>
<!-- Node4&#45;&gt;Node6 -->
<g id="edge5_Node000004_Node000006" class="edge">
<title>Node4&#45;&gt;Node6</title>
<g id="a_edge5_Node000004_Node000006"><a xlink:title=" ">
<path fill="none" stroke="#63b8ff" d="M527.37,-114.24C463.14,-108.23 347.7,-95.72 240.25,-73.98"/>
<polygon fill="#63b8ff" stroke="#63b8ff" points="240.71,-70.51 230.21,-71.92 239.3,-77.36 240.71,-70.51"/>
</a>
</g>
</g>
<!-- Node7 -->
<g id="Node000007" class="node">
<title>Node7</title>
<g id="a_Node000007"><a xlink:title=" ">
<polygon fill="#e0e0e0" stroke="#999999" points="298,-74 248,-74 248,-55 298,-55 298,-74"/>
<text text-anchor="middle" x="273" y="-62" font-family="Helvetica,sans-Serif" font-size="10.00">atomic</text>
</a>
</g>
</g>
<!-- Node4&#45;&gt;Node7 -->
<g id="edge6_Node000004_Node000007" class="edge">
<title>Node4&#45;&gt;Node7</title>
<g id="a_edge6_Node000004_Node000007"><a xlink:title=" ">
<path fill="none" stroke="#63b8ff" d="M527.01,-111.51C474.77,-103.92 390.22,-90.87 308.19,-74.11"/>
<polygon fill="#63b8ff" stroke="#63b8ff" points="308.7,-70.64 298.2,-72.04 307.28,-77.49 308.7,-70.64"/>
</a>
</g>
</g>
<!-- Node8 -->
<g id="Node000008" class="node">
<title>Node8</title>
<g id="a_Node000008"><a xlink:title=" ">
<polygon fill="#e0e0e0" stroke="#999999" points="369.5,-74 316.5,-74 316.5,-55 369.5,-55 369.5,-74"/>
<text text-anchor="middle" x="343" y="-62" font-family="Helvetica,sans-Serif" font-size="10.00">cstddef</text>
</a>
</g>
</g>
<!-- Node4&#45;&gt;Node8 -->
<g id="edge7_Node000004_Node000008" class="edge">
<title>Node4&#45;&gt;Node8</title>
<g id="a_edge7_Node000004_Node000008"><a xlink:title=" ">
<path fill="none" stroke="#63b8ff" d="M537.68,-109.93C499.62,-101.58 440.04,-88.39 379.8,-74.39"/>
<polygon fill="#63b8ff" stroke="#63b8ff" points="380.27,-70.91 369.74,-72.05 378.69,-77.73 380.27,-70.91"/>
</a>
</g>
</g>
<!-- Node4&#45;&gt;Node9 -->
<g id="edge8_Node000004_Node000009" class="edge">
<title>Node4&#45;&gt;Node9</title>
<g id="a_edge8_Node000004_Node000009"><a xlink:title=" ">
<path fill="none" stroke="#63b8ff" d="M527.39,-116.87C436.49,-113.3 237.07,-102.85 60.17,-73.92"/>
<polygon fill="#63b8ff" stroke="#63b8ff" points="60.6,-70.45 50.16,-72.26 59.45,-77.35 60.6,-70.45"/>
</a>
</g>
</g>
<!-- Node10 -->
<g id="Node000010" class="node">
<title>Node10</title>
<g id="a_Node000010"><a xlink:title=" ">
<polygon fill="#e0e0e0" stroke="#999999" points="432.5,-74 387.5,-74 387.5,-55 432.5,-55 432.5,-74"/>
<text text-anchor="middle" x="410" y="-62" font-family="Helvetica,sans-Serif" font-size="10.00">utility</text>
</a>
</g>
</g>
<!-- Node4&#45;&gt;Node10 -->
<g id="edge9_Node000004_Node000010" class="edge">
<title>Node4&#45;&gt;Node10</title>
<g id="a_edge9_Node000004_Node000010"><a xlink:title=" ">
<path fill="none" stroke="#63b8ff" d="M550.17,-109.98C520.8,-100.66 473.72,-85.72 442.34,-75.76"/>
<polygon fill="#63b8ff" stroke="#63b8ff" points="443.33,-72.41 432.74,-72.72 441.21,-79.08 443.33,-72.41"/>
</a>
</g>
</g>
<!-- Node11 -->
<g id="Node000011" class="node">
<title>Node11</title>
<g id="a_Node000011"><a xlink:title=" ">
<polygon fill="#e0e0e0" stroke="#999999" points="527.5,-74 450.5,-74 450.5,-55 527.5,-55 527.5,-74"/>
<text text-anchor="middle" x="489" y="-62" font-family="Helvetica,sans-Serif" font-size="10.00">esp_check.h</text>
</a>
</g>
</g>
<!-- Node4&#45;&gt;Node11 -->
<g id="edge10_Node000004_Node000011" class="edge">
<title>Node4&#45;&gt;Node11</title>
<g id="a_edge10_Node000004_Node000011"><a xlink:title=" ">
<path fill="none" stroke="#63b8ff" d="M562.86,-109.98C549.21,-101.77 528.31,-89.18 512.22,-79.49"/>
<polygon fill="#63b8ff" stroke="#63b8ff" points="513.77,-76.33 503.4,-74.17 510.16,-82.33 513.77,-76.33"/>
</a>
</g>
</g>
<!-- Node12 -->
<g id="Node000012" class="node">
<title>Node12</title>
<g id="a_Node000012"><a xlink:title=" ">
<polygon fill="#e0e0e0" stroke="#999999" points="608.5,-74 545.5,-74 545.5,-55 608.5,-55 608.5,-74"/>
<text text-anchor="middle" x="577" y="-62" font-family="Helvetica,sans-Serif" font-size="10.00">esp_log.h</text>
</a>
</g>
</g>
<!-- Node4&#45;&gt;Node12 -->
<g id="edge11_Node000004_Node000012" class="edge">
<title>Node4&#45;&gt;Node12</title>
<g id="a_edge11_Node000004_Node000012"><a xlink:title=" ">
<path fill="none" stroke="#63b8ff" d="M577,-109.75C577,-102.8 577,-92.85 577,-84.13"/>
<polygon fill="#63b8ff" stroke="#63b8ff" points="580.5,-84.09 577,-74.09 573.5,-84.09 580.5,-84.09"/>
</a>
</g>
</g>
<!-- Node13 -->
<g id="Node000013" class="node">
<title>Node13</title>
<g id="a_Node000013"><a xlink:title=" ">
<polygon fill="#e0e0e0" stroke="#999999" points="749,-74 627,-74 627,-55 749,-55 749,-74"/>
<text text-anchor="middle" x="688" y="-62" font-family="Helvetica,sans-Serif" font-size="10.00">esp_private/esp_clk.h</text>
</a>
</g>
</g>
<!-- Node4&#45;&gt;Node13 -->
<g id="edge12_Node000004_Node000013" class="edge">
<title>Node4&#45;&gt;Node13</title>
<g id="a_edge12_Node000004_Node000013"><a xlink:title=" ">
<path fill="none" stroke="#63b8ff" d="M594.83,-109.98C612.61,-101.5 640.15,-88.35 660.68,-78.54"/>
<polygon fill="#63b8ff" stroke="#63b8ff" points="662.33,-81.64 669.84,-74.17 659.31,-75.32 662.33,-81.64"/>
</a>
</g>
</g>
<!-- Node14 -->
<g id="Node000014" class="node">
<title>Node14</title>
<g id="a_Node000014"><a xlink:title=" ">
<polygon fill="#e0e0e0" stroke="#999999" points="1249,-19 1131,-19 1131,0 1249,0 1249,-19"/>
<text text-anchor="middle" x="1190" y="-7" font-family="Helvetica,sans-Serif" font-size="10.00">driver/rmt_encoder.h</text>
</a>
</g>
</g>
<!-- Node4&#45;&gt;Node14 -->
<g id="edge13_Node000004_Node000014" class="edge">
<title>Node4&#45;&gt;Node14</title>
<g id="a_edge13_Node000004_Node000014"><a xlink:title=" ">
<path fill="none" stroke="#63b8ff" d="M623.98,-109.94C661.02,-102.49 713.66,-90.3 758,-74 775.72,-67.48 777.9,-60.36 796,-55 906.38,-22.29 1040.69,-13.33 1120.56,-11.04"/>
<polygon fill="#63b8ff" stroke="#63b8ff" points="1121.08,-14.53 1130.98,-10.77 1120.9,-7.53 1121.08,-14.53"/>
</a>
</g>
</g>
<!-- Node15 -->
<g id="Node000015" class="node">
<title>Node15</title>
<g id="a_Node000015"><a xlink:title=" ">
<polygon fill="#e0e0e0" stroke="#999999" points="894.5,-74 805.5,-74 805.5,-55 894.5,-55 894.5,-74"/>
<text text-anchor="middle" x="850" y="-62" font-family="Helvetica,sans-Serif" font-size="10.00">driver/rmt_rx.h</text>
</a>
</g>
</g>
<!-- Node4&#45;&gt;Node15 -->
<g id="edge14_Node000004_Node000015" class="edge">
<title>Node4&#45;&gt;Node15</title>
<g id="a_edge14_Node000004_Node000015"><a xlink:title=" ">
<path fill="none" stroke="#63b8ff" d="M620.86,-109.98C668.48,-100.74 744.58,-85.97 795.88,-76.01"/>
<polygon fill="#63b8ff" stroke="#63b8ff" points="796.64,-79.42 805.79,-74.08 795.31,-72.55 796.64,-79.42"/>
</a>
</g>
</g>
<!-- Node16 -->
<g id="Node000016" class="node">
<title>Node16</title>
<g id="a_Node000016"><a xlink:title=" ">
<polygon fill="#e0e0e0" stroke="#999999" points="1247.5,-74 1158.5,-74 1158.5,-55 1247.5,-55 1247.5,-74"/>
<text text-anchor="middle" x="1203" y="-62" font-family="Helvetica,sans-Serif" font-size="10.00">driver/rmt_tx.h</text>
</a>
</g>
</g>
<!-- Node4&#45;&gt;Node16 -->
<g id="edge15_Node000004_Node000016" class="edge">
<title>Node4&#45;&gt;Node16</title>
<g id="a_edge15_Node000004_Node000016"><a xlink:title=" ">
<path fill="none" stroke="#63b8ff" d="M626.86,-115.94C724.72,-110.63 948.98,-97.05 1148.18,-74"/>
<polygon fill="#63b8ff" stroke="#63b8ff" points="1148.72,-77.46 1158.25,-72.82 1147.91,-70.51 1148.72,-77.46"/>
</a>
</g>
</g>
<!-- Node17 -->
<g id="Node000017" class="node">
<title>Node17</title>
<g id="a_Node000017"><a xlink:title=" ">
<polygon fill="#e0e0e0" stroke="#999999" points="1025.5,-74 912.5,-74 912.5,-55 1025.5,-55 1025.5,-74"/>
<text text-anchor="middle" x="969" y="-62" font-family="Helvetica,sans-Serif" font-size="10.00">freertos/FreeRTOS.h</text>
</a>
</g>
</g>
<!-- Node4&#45;&gt;Node17 -->
<g id="edge16_Node000004_Node000017" class="edge">
<title>Node4&#45;&gt;Node17</title>
<g id="a_edge16_Node000004_Node000017"><a xlink:title=" ">
<path fill="none" stroke="#63b8ff" d="M626.65,-111.79C696.54,-102.34 824.13,-85.09 902.26,-74.52"/>
<polygon fill="#63b8ff" stroke="#63b8ff" points="903.03,-77.95 912.48,-73.14 902.1,-71.01 903.03,-77.95"/>
</a>
</g>
</g>
<!-- Node18 -->
<g id="Node000018" class="node">
<title>Node18</title>
<g id="a_Node000018"><a xlink:title=" ">
<polygon fill="#e0e0e0" stroke="#999999" points="1140.5,-74 1043.5,-74 1043.5,-55 1140.5,-55 1140.5,-74"/>
<text text-anchor="middle" x="1092" y="-62" font-family="Helvetica,sans-Serif" font-size="10.00">freertos/queue.h</text>
</a>
</g>
</g>
<!-- Node4&#45;&gt;Node18 -->
<g id="edge17_Node000004_Node000018" class="edge">
<title>Node4&#45;&gt;Node18</title>
<g id="a_edge17_Node000004_Node000018"><a xlink:title=" ">
<path fill="none" stroke="#63b8ff" d="M626.79,-114.45C709.05,-107.58 878.73,-92.67 1033.14,-74.05"/>
<polygon fill="#63b8ff" stroke="#63b8ff" points="1033.78,-77.49 1043.29,-72.81 1032.94,-70.54 1033.78,-77.49"/>
</a>
</g>
</g>
<!-- Node19&#45;&gt;Node16 -->
<g id="edge20_Node000019_Node000016" class="edge">
<title>Node19&#45;&gt;Node16</title>
<g id="a_edge20_Node000019_Node000016"><a xlink:title=" ">
<path fill="none" stroke="#63b8ff" d="M1381.78,-109.98C1345.24,-100.89 1287.22,-86.46 1247.24,-76.51"/>
<polygon fill="#63b8ff" stroke="#63b8ff" points="1248.04,-73.1 1237.49,-74.08 1246.35,-79.89 1248.04,-73.1"/>
</a>
</g>
</g>
<!-- Node20 -->
<g id="Node000020" class="node">
<title>Node20</title>
<g id="a_Node000020"><a xlink:title=" ">
<polygon fill="#e0e0e0" stroke="#999999" points="1344,-74 1266,-74 1266,-55 1344,-55 1344,-74"/>
<text text-anchor="middle" x="1305" y="-62" font-family="Helvetica,sans-Serif" font-size="10.00">driver/gpio.h</text>
</a>
</g>
</g>
<!-- Node19&#45;&gt;Node20 -->
<g id="edge19_Node000019_Node000020" class="edge">
<title>Node19&#45;&gt;Node20</title>
<g id="a_edge19_Node000019_Node000020"><a xlink:title=" ">
<path fill="none" stroke="#63b8ff" d="M1398.17,-109.98C1380.39,-101.5 1352.85,-88.35 1332.32,-78.54"/>
<polygon fill="#63b8ff" stroke="#63b8ff" points="1333.69,-75.32 1323.16,-74.17 1330.67,-81.64 1333.69,-75.32"/>
</a>
</g>
</g>
<!-- Node21 -->
<g id="Node000021" class="node">
<title>Node21</title>
<g id="a_Node000021"><a xlink:title=" ">
<polygon fill="#e0e0e0" stroke="#999999" points="1469.5,-74 1362.5,-74 1362.5,-55 1469.5,-55 1469.5,-74"/>
<text text-anchor="middle" x="1416" y="-62" font-family="Helvetica,sans-Serif" font-size="10.00">driver/rmt_types.h</text>
</a>
</g>
</g>
<!-- Node19&#45;&gt;Node21 -->
<g id="edge21_Node000019_Node000021" class="edge">
<title>Node19&#45;&gt;Node21</title>
<g id="a_edge21_Node000019_Node000021"><a xlink:title=" ">
<path fill="none" stroke="#63b8ff" d="M1416,-109.75C1416,-102.8 1416,-92.85 1416,-84.13"/>
<polygon fill="#63b8ff" stroke="#63b8ff" points="1419.5,-84.09 1416,-74.09 1412.5,-84.09 1419.5,-84.09"/>
</a>
</g>
</g>
<!-- Node22 -->
<g id="Node000022" class="node">
<title>Node22</title>
<g id="a_Node000022"><a xlink:title=" ">
<polygon fill="#e0e0e0" stroke="#999999" points="1548.5,-74 1487.5,-74 1487.5,-55 1548.5,-55 1548.5,-74"/>
<text text-anchor="middle" x="1518" y="-62" font-family="Helvetica,sans-Serif" font-size="10.00">esp_err.h</text>
</a>
</g>
</g>
<!-- Node19&#45;&gt;Node22 -->
<g id="edge22_Node000019_Node000022" class="edge">
<title>Node19&#45;&gt;Node22</title>
<g id="a_edge22_Node000019_Node000022"><a xlink:title=" ">
<path fill="none" stroke="#63b8ff" d="M1432.39,-109.98C1448.57,-101.57 1473.57,-88.59 1492.38,-78.81"/>
<polygon fill="#63b8ff" stroke="#63b8ff" points="1494.05,-81.89 1501.31,-74.17 1490.83,-75.68 1494.05,-81.89"/>
</a>
</g>
</g>
<!-- Node23 -->
<g id="Node000023" class="node">
<title>Node23</title>
<g id="a_Node000023"><a xlink:href="led__strip__encoder_8h.html" target="_top" xlink:title=" ">
<polygon fill="white" stroke="#666666" points="1677.5,-74 1566.5,-74 1566.5,-55 1677.5,-55 1677.5,-74"/>
<text text-anchor="middle" x="1622" y="-62" font-family="Helvetica,sans-Serif" font-size="10.00">led_strip_encoder.h</text>
</a>
</g>
</g>
<!-- Node19&#45;&gt;Node23 -->
<g id="edge23_Node000019_Node000023" class="edge">
<title>Node19&#45;&gt;Node23</title>
<g id="a_edge23_Node000019_Node000023"><a xlink:title=" ">
<path fill="none" stroke="#63b8ff" d="M1449.1,-109.98C1484.28,-100.93 1540.07,-86.58 1578.72,-76.64"/>
<polygon fill="#63b8ff" stroke="#63b8ff" points="1579.83,-79.96 1588.64,-74.08 1578.09,-73.18 1579.83,-79.96"/>
</a>
</g>
</g>
<!-- Node24 -->
<g id="Node000024" class="node">
<title>Node24</title>
<g id="a_Node000024"><a xlink:title=" ">
<polygon fill="#e0e0e0" stroke="#999999" points="1690.5,-19 1637.5,-19 1637.5,0 1690.5,0 1690.5,-19"/>
<text text-anchor="middle" x="1664" y="-7" font-family="Helvetica,sans-Serif" font-size="10.00">stdint.h</text>
</a>
</g>
</g>
<!-- Node19&#45;&gt;Node24 -->
<g id="edge27_Node000019_Node000024" class="edge">
<title>Node19&#45;&gt;Node24</title>
<g id="a_edge27_Node000019_Node000024"><a xlink:title=" ">
<path fill="none" stroke="#63b8ff" d="M1467.09,-110.96C1544.63,-99.4 1683.45,-78.19 1687,-74 1698.33,-60.66 1688.62,-41.28 1678.56,-27.44"/>
<polygon fill="#63b8ff" stroke="#63b8ff" points="1681.06,-24.96 1672.12,-19.27 1675.56,-29.29 1681.06,-24.96"/>
</a>
</g>
</g>
<!-- Node25 -->
<g id="Node000025" class="node">
<title>Node25</title>
<g id="a_Node000025"><a xlink:title=" ">
<polygon fill="#e0e0e0" stroke="#999999" points="1806,-74 1734,-74 1734,-55 1806,-55 1806,-74"/>
<text text-anchor="middle" x="1770" y="-62" font-family="Helvetica,sans-Serif" font-size="10.00">sdkconfig.h</text>
</a>
</g>
</g>
<!-- Node19&#45;&gt;Node25 -->
<g id="edge26_Node000019_Node000025" class="edge">
<title>Node19&#45;&gt;Node25</title>
<g id="a_edge26_Node000019_Node000025"><a xlink:title=" ">
<path fill="none" stroke="#63b8ff" d="M1467.02,-111.18C1540.46,-100.61 1672.39,-81.53 1720,-74 1721.27,-73.8 1722.56,-73.59 1723.86,-73.38"/>
<polygon fill="#63b8ff" stroke="#63b8ff" points="1724.66,-76.8 1733.97,-71.73 1723.53,-69.89 1724.66,-76.8"/>
</a>
</g>
</g>
<!-- Node23&#45;&gt;Node14 -->
<g id="edge24_Node000023_Node000014" class="edge">
<title>Node23&#45;&gt;Node14</title>
<g id="a_edge24_Node000023_Node000014"><a xlink:title=" ">
<path fill="none" stroke="#63b8ff" d="M1566.34,-56.19C1563.18,-55.78 1560.05,-55.38 1557,-55 1453.31,-41.93 1333.04,-27.48 1259.23,-18.7"/>
<polygon fill="#63b8ff" stroke="#63b8ff" points="1259.48,-15.2 1249.13,-17.5 1258.65,-22.15 1259.48,-15.2"/>
</a>
</g>
</g>
<!-- Node23&#45;&gt;Node24 -->
<g id="edge25_Node000023_Node000024" class="edge">
<title>Node23&#45;&gt;Node24</title>
<g id="a_edge25_Node000023_Node000024"><a xlink:title=" ">
<path fill="none" stroke="#63b8ff" d="M1628.94,-54.75C1634.87,-47.26 1643.57,-36.28 1650.82,-27.13"/>
<polygon fill="#63b8ff" stroke="#63b8ff" points="1653.73,-29.1 1657.19,-19.09 1648.24,-24.75 1653.73,-29.1"/>
</a>
</g>
</g>
</g>
</svg>
