<?xml version="1.0" encoding="UTF-8" standalone="no"?>
<!DOCTYPE svg PUBLIC "-//W3C//DTD SVG 1.1//EN"
 "http://www.w3.org/Graphics/SVG/1.1/DTD/svg11.dtd">
<!-- Generated by graphviz version 2.43.0 (0)
 -->
<!-- Title: src/ws2812_control.c Pages: 1 -->
<svg width="668pt" height="192pt"
 viewBox="0.00 0.00 668.00 192.00" xmlns="http://www.w3.org/2000/svg" xmlns:xlink="http://www.w3.org/1999/xlink">
<g id="graph0" class="graph" transform="scale(1 1) rotate(0) translate(4 188)">
<title>src/ws2812_control.c</title>
<!-- Node1 -->
<g id="Node000001" class="node">
<title>Node1</title>
<g id="a_Node000001"><a xlink:title=" ">
<polygon fill="#999999" stroke="#666666" points="445,-184 326,-184 326,-165 445,-165 445,-184"/>
<text text-anchor="middle" x="385.5" y="-172" font-family="Helvetica,sans-Serif" font-size="10.00">src/ws2812_control.c</text>
</a>
</g>
</g>
<!-- Node2 -->
<g id="Node000002" class="node">
<title>Node2</title>
<g id="a_Node000002"><a xlink:href="ws2812__control_8h.html" target="_top" xlink:title="ESP&#45;IDF RMT based driver for WS2812 / NeoPixel LED chains.">
<polygon fill="white" stroke="#666666" points="357.5,-129 255.5,-129 255.5,-110 357.5,-110 357.5,-129"/>
<text text-anchor="middle" x="306.5" y="-117" font-family="Helvetica,sans-Serif" font-size="10.00">ws2812_control.h</text>
</a>
</g>
</g>
<!-- Node1&#45;&gt;Node2 -->
<g id="edge1_Node000001_Node000002" class="edge">
<title>Node1&#45;&gt;Node2</title>
<g id="a_edge1_Node000001_Node000002"><a xlink:title=" ">
<path fill="none" stroke="#63b8ff" d="M372.81,-164.98C360.67,-156.84 342.14,-144.41 327.75,-134.76"/>
<polygon fill="#63b8ff" stroke="#63b8ff" points="329.68,-131.84 319.42,-129.17 325.78,-137.65 329.68,-131.84"/>
</a>
</g>
</g>
<!-- Node4 -->
<g id="Node000004" class="node">
<title>Node4</title>
<g id="a_Node000004"><a xlink:title=" ">
<polygon fill="#e0e0e0" stroke="#999999" points="89,-74 0,-74 0,-55 89,-55 89,-74"/>
<text text-anchor="middle" x="44.5" y="-62" font-family="Helvetica,sans-Serif" font-size="10.00">driver/rmt_tx.h</text>
</a>
</g>
</g>
<!-- Node1&#45;&gt;Node4 -->
<g id="edge11_Node000001_Node000004" class="edge">
<title>Node1&#45;&gt;Node4</title>
<g id="a_edge11_Node000001_Node000004"><a xlink:title=" ">
<path fill="none" stroke="#63b8ff" d="M347.36,-164.96C312.08,-156.76 258.33,-143.51 212.5,-129 163.47,-113.48 107.88,-91.6 74.54,-78"/>
<polygon fill="#63b8ff" stroke="#63b8ff" points="75.52,-74.61 64.94,-74.06 72.86,-81.09 75.52,-74.61"/>
</a>
</g>
</g>
<!-- Node5 -->
<g id="Node000005" class="node">
<title>Node5</title>
<g id="a_Node000005"><a xlink:title=" ">
<polygon fill="#e0e0e0" stroke="#999999" points="214,-74 107,-74 107,-55 214,-55 214,-74"/>
<text text-anchor="middle" x="160.5" y="-62" font-family="Helvetica,sans-Serif" font-size="10.00">driver/rmt_types.h</text>
</a>
</g>
</g>
<!-- Node1&#45;&gt;Node5 -->
<g id="edge12_Node000001_Node000005" class="edge">
<title>Node1&#45;&gt;Node5</title>
<g id="a_edge12_Node000001_Node000005"><a xlink:title=" ">
<path fill="none" stroke="#63b8ff" d="M347.62,-164.94C318.9,-157.62 278.98,-145.62 246.5,-129 220.61,-115.75 194.2,-94.93 177.6,-80.77"/>
<polygon fill="#63b8ff" stroke="#63b8ff" points="179.71,-77.97 169.87,-74.05 175.12,-83.26 179.71,-77.97"/>
</a>
</g>
</g>
<!-- Node6 -->
<g id="Node000006" class="node">
<title>Node6</title>
<g id="a_Node000006"><a xlink:title=" ">
<polygon fill="#e0e0e0" stroke="#999999" points="518,-74 457,-74 457,-55 518,-55 518,-74"/>
<text text-anchor="middle" x="487.5" y="-62" font-family="Helvetica,sans-Serif" font-size="10.00">esp_err.h</text>
</a>
</g>
</g>
<!-- Node1&#45;&gt;Node6 -->
<g id="edge14_Node000001_Node000006" class="edge">
<title>Node1&#45;&gt;Node6</title>
<g id="a_edge14_Node000001_Node000006"><a xlink:title=" ">
<path fill="none" stroke="#63b8ff" d="M386.86,-164.74C389.32,-151.52 395.57,-126.31 409.5,-110 421.41,-96.06 438.83,-85.54 454.2,-78.23"/>
<polygon fill="#63b8ff" stroke="#63b8ff" points="455.73,-81.38 463.43,-74.1 452.87,-74.99 455.73,-81.38"/>
</a>
</g>
</g>
<!-- Node7 -->
<g id="Node000007" class="node">
<title>Node7</title>
<g id="a_Node000007"><a xlink:href="led__strip__encoder_8h.html" target="_top" xlink:title=" ">
<polygon fill="white" stroke="#666666" points="647,-74 536,-74 536,-55 647,-55 647,-74"/>
<text text-anchor="middle" x="591.5" y="-62" font-family="Helvetica,sans-Serif" font-size="10.00">led_strip_encoder.h</text>
</a>
</g>
</g>
<!-- Node1&#45;&gt;Node7 -->
<g id="edge16_Node000001_Node000007" class="edge">
<title>Node1&#45;&gt;Node7</title>
<g id="a_edge16_Node000001_Node000007"><a xlink:title=" ">
<path fill="none" stroke="#63b8ff" d="M391.16,-164.73C400.46,-151.03 420.24,-124.62 443.5,-110 469.39,-93.72 501.57,-83.11 529.31,-76.36"/>
<polygon fill="#63b8ff" stroke="#63b8ff" points="530.35,-79.71 539.3,-74.04 528.77,-72.89 530.35,-79.71"/>
</a>
</g>
</g>
<!-- Node11 -->
<g id="Node000011" class="node">
<title>Node11</title>
<g id="a_Node000011"><a xlink:title=" ">
<polygon fill="#e0e0e0" stroke="#999999" points="529,-129 452,-129 452,-110 529,-110 529,-129"/>
<text text-anchor="middle" x="490.5" y="-117" font-family="Helvetica,sans-Serif" font-size="10.00">esp_check.h</text>
</a>
</g>
</g>
<!-- Node1&#45;&gt;Node11 -->
<g id="edge13_Node000001_Node000011" class="edge">
<title>Node1&#45;&gt;Node11</title>
<g id="a_edge13_Node000001_Node000011"><a xlink:title=" ">
<path fill="none" stroke="#63b8ff" d="M402.37,-164.98C419.11,-156.54 445,-143.47 464.39,-133.68"/>
<polygon fill="#63b8ff" stroke="#63b8ff" points="465.97,-136.8 473.32,-129.17 462.82,-130.55 465.97,-136.8"/>
</a>
</g>
</g>
<!-- Node12 -->
<g id="Node000012" class="node">
<title>Node12</title>
<g id="a_Node000012"><a xlink:title=" ">
<polygon fill="#e0e0e0" stroke="#999999" points="660,-129 547,-129 547,-110 660,-110 660,-129"/>
<text text-anchor="middle" x="603.5" y="-117" font-family="Helvetica,sans-Serif" font-size="10.00">freertos/FreeRTOS.h</text>
</a>
</g>
</g>
<!-- Node1&#45;&gt;Node12 -->
<g id="edge15_Node000001_Node000012" class="edge">
<title>Node1&#45;&gt;Node12</title>
<g id="a_edge15_Node000001_Node000012"><a xlink:title=" ">
<path fill="none" stroke="#63b8ff" d="M420.53,-164.98C458,-155.87 517.55,-141.4 558.48,-131.45"/>
<polygon fill="#63b8ff" stroke="#63b8ff" points="559.31,-134.85 568.2,-129.08 557.66,-128.04 559.31,-134.85"/>
</a>
</g>
</g>
<!-- Node3 -->
<g id="Node000003" class="node">
<title>Node3</title>
<g id="a_Node000003"><a xlink:title=" ">
<polygon fill="#e0e0e0" stroke="#999999" points="438.5,-74 360.5,-74 360.5,-55 438.5,-55 438.5,-74"/>
<text text-anchor="middle" x="399.5" y="-62" font-family="Helvetica,sans-Serif" font-size="10.00">driver/gpio.h</text>
</a>
</g>
</g>
<!-- Node2&#45;&gt;Node3 -->
<g id="edge2_Node000002_Node000003" class="edge">
<title>Node2&#45;&gt;Node3</title>
<g id="a_edge2_Node000002_Node000003"><a xlink:title=" ">
<path fill="none" stroke="#63b8ff" d="M321.44,-109.98C336,-101.69 358.37,-88.94 375.43,-79.22"/>
<polygon fill="#63b8ff" stroke="#63b8ff" points="377.33,-82.16 384.29,-74.17 373.86,-76.08 377.33,-82.16"/>
</a>
</g>
</g>
<!-- Node2&#45;&gt;Node4 -->
<g id="edge3_Node000002_Node000004" class="edge">
<title>Node2&#45;&gt;Node4</title>
<g id="a_edge3_Node000002_Node000004"><a xlink:title=" ">
<path fill="none" stroke="#63b8ff" d="M264.41,-109.98C218.8,-100.76 145.98,-86.03 96.75,-76.07"/>
<polygon fill="#63b8ff" stroke="#63b8ff" points="97.42,-72.63 86.92,-74.08 96.03,-79.5 97.42,-72.63"/>
</a>
</g>
</g>
<!-- Node2&#45;&gt;Node5 -->
<g id="edge4_Node000002_Node000005" class="edge">
<title>Node2&#45;&gt;Node5</title>
<g id="a_edge4_Node000002_Node000005"><a xlink:title=" ">
<path fill="none" stroke="#63b8ff" d="M283.04,-109.98C258.92,-101.23 221.13,-87.51 193.9,-77.62"/>
<polygon fill="#63b8ff" stroke="#63b8ff" points="194.98,-74.29 184.38,-74.17 192.59,-80.87 194.98,-74.29"/>
</a>
</g>
</g>
<!-- Node2&#45;&gt;Node6 -->
<g id="edge5_Node000002_Node000006" class="edge">
<title>Node2&#45;&gt;Node6</title>
<g id="a_edge5_Node000002_Node000006"><a xlink:title=" ">
<path fill="none" stroke="#63b8ff" d="M335.58,-109.98C366.1,-101.05 414.26,-86.94 448.16,-77.02"/>
<polygon fill="#63b8ff" stroke="#63b8ff" points="449.58,-80.25 458.19,-74.08 447.61,-73.53 449.58,-80.25"/>
</a>
</g>
</g>
<!-- Node2&#45;&gt;Node7 -->
<g id="edge6_Node000002_Node000007" class="edge">
<title>Node2&#45;&gt;Node7</title>
<g id="a_edge6_Node000002_Node000007"><a xlink:title=" ">
<path fill="none" stroke="#63b8ff" d="M352.29,-109.98C402.11,-100.72 481.78,-85.9 535.34,-75.94"/>
<polygon fill="#63b8ff" stroke="#63b8ff" points="536.16,-79.35 545.35,-74.08 534.88,-72.47 536.16,-79.35"/>
</a>
</g>
</g>
<!-- Node9 -->
<g id="Node000009" class="node">
<title>Node9</title>
<g id="a_Node000009"><a xlink:title=" ">
<polygon fill="#e0e0e0" stroke="#999999" points="392,-19 339,-19 339,0 392,0 392,-19"/>
<text text-anchor="middle" x="365.5" y="-7" font-family="Helvetica,sans-Serif" font-size="10.00">stdint.h</text>
</a>
</g>
</g>
<!-- Node2&#45;&gt;Node9 -->
<g id="edge10_Node000002_Node000009" class="edge">
<title>Node2&#45;&gt;Node9</title>
<g id="a_edge10_Node000002_Node000009"><a xlink:title=" ">
<path fill="none" stroke="#63b8ff" d="M292.82,-110C275.18,-97.93 248.25,-75.08 261.5,-55 276.39,-32.44 305.33,-21.27 328.91,-15.77"/>
<polygon fill="#63b8ff" stroke="#63b8ff" points="329.88,-19.15 338.96,-13.68 328.46,-12.29 329.88,-19.15"/>
</a>
</g>
</g>
<!-- Node10 -->
<g id="Node000010" class="node">
<title>Node10</title>
<g id="a_Node000010"><a xlink:title=" ">
<polygon fill="#e0e0e0" stroke="#999999" points="342.5,-74 270.5,-74 270.5,-55 342.5,-55 342.5,-74"/>
<text text-anchor="middle" x="306.5" y="-62" font-family="Helvetica,sans-Serif" font-size="10.00">sdkconfig.h</text>
</a>
</g>
</g>
<!-- Node2&#45;&gt;Node10 -->
<g id="edge9_Node000002_Node000010" class="edge">
<title>Node2&#45;&gt;Node10</title>
<g id="a_edge9_Node000002_Node000010"><a xlink:title=" ">
<path fill="none" stroke="#63b8ff" d="M306.5,-109.75C306.5,-102.8 306.5,-92.85 306.5,-84.13"/>
<polygon fill="#63b8ff" stroke="#63b8ff" points="310,-84.09 306.5,-74.09 303,-84.09 310,-84.09"/>
</a>
</g>
</g>
<!-- Node8 -->
<g id="Node000008" class="node">
<title>Node8</title>
<g id="a_Node000008"><a xlink:title=" ">
<polygon fill="#e0e0e0" stroke="#999999" points="650.5,-19 532.5,-19 532.5,0 650.5,0 650.5,-19"/>
<text text-anchor="middle" x="591.5" y="-7" font-family="Helvetica,sans-Serif" font-size="10.00">driver/rmt_encoder.h</text>
</a>
</g>
</g>
<!-- Node7&#45;&gt;Node8 -->
<g id="edge7_Node000007_Node000008" class="edge">
<title>Node7&#45;&gt;Node8</title>
<g id="a_edge7_Node000007_Node000008"><a xlink:title=" ">
<path fill="none" stroke="#63b8ff" d="M591.5,-54.75C591.5,-47.8 591.5,-37.85 591.5,-29.13"/>
<polygon fill="#63b8ff" stroke="#63b8ff" points="595,-29.09 591.5,-19.09 588,-29.09 595,-29.09"/>
</a>
</g>
</g>
<!-- Node7&#45;&gt;Node9 -->
<g id="edge8_Node000007_Node000009" class="edge">
<title>Node7&#45;&gt;Node9</title>
<g id="a_edge8_Node000007_Node000009"><a xlink:title=" ">
<path fill="none" stroke="#63b8ff" d="M555.19,-54.98C513.12,-45.12 444.18,-28.95 402.02,-19.06"/>
<polygon fill="#63b8ff" stroke="#63b8ff" points="402.7,-15.63 392.17,-16.75 401.1,-22.44 402.7,-15.63"/>
</a>
</g>
</g>
</g>
</svg>
