<?xml version="1.0" encoding="UTF-8" standalone="no"?>
<!DOCTYPE svg PUBLIC "-//W3C//DTD SVG 1.1//EN"
 "http://www.w3.org/Graphics/SVG/1.1/DTD/svg11.dtd">
<!-- Generated by graphviz version 2.43.0 (0)
 -->
<!-- Title: examples/esp32/main/WS2812ComprehensiveTest.cpp Pages: 1 -->
<svg width="2134pt" height="258pt"
 viewBox="0.00 0.00 2134.00 258.00" xmlns="http://www.w3.org/2000/svg" xmlns:xlink="http://www.w3.org/1999/xlink">
<g id="graph0" class="graph" transform="scale(1 1) rotate(0) translate(4 254)">
<title>examples/esp32/main/WS2812ComprehensiveTest.cpp</title>
<!-- Node1 -->
<g id="Node000001" class="node">
<title>Node1</title>
<g id="a_Node000001"><a xlink:title="Comprehensive test suite for WS2812 driver on ESP32&#45;C6.">
<polygon fill="#999999" stroke="#666666" points="1539,-250 1363,-250 1363,-220 1539,-220 1539,-250"/>
<text text-anchor="start" x="1371" y="-238" font-family="Helvetica,sans-Serif" font-size="10.00">examples/esp32/main</text>
<text text-anchor="middle" x="1451" y="-227" font-family="Helvetica,sans-Serif" font-size="10.00">/WS2812ComprehensiveTest.cpp</text>
</a>
</g>
</g>
<!-- Node2 -->
<g id="Node000002" class="node">
<title>Node2</title>
<g id="a_Node000002"><a xlink:href="ws2812__cpp_8hpp.html" target="_top" xlink:title="C++ wrapper for the HF&#45;WS2812 RMT LED driver.">
<polygon fill="white" stroke="#666666" points="1514,-184 1416,-184 1416,-165 1514,-165 1514,-184"/>
<text text-anchor="middle" x="1465" y="-172" font-family="Helvetica,sans-Serif" font-size="10.00">ws2812_cpp.hpp</text>
</a>
</g>
</g>
<!-- Node1&#45;&gt;Node2 -->
<g id="edge1_Node000001_Node000002" class="edge">
<title>Node1&#45;&gt;Node2</title>
<g id="a_edge1_Node000001_Node000002"><a xlink:title=" ">
<path fill="none" stroke="#63b8ff" d="M1454.39,-219.84C1456.23,-212.13 1458.54,-202.49 1460.53,-194.17"/>
<polygon fill="#63b8ff" stroke="#63b8ff" points="1463.98,-194.81 1462.9,-184.27 1457.17,-193.18 1463.98,-194.81"/>
</a>
</g>
</g>
<!-- Node11 -->
<g id="Node000011" class="node">
<title>Node11</title>
<g id="a_Node000011"><a xlink:title=" ">
<polygon fill="#e0e0e0" stroke="#999999" points="894.5,-74 831.5,-74 831.5,-55 894.5,-55 894.5,-74"/>
<text text-anchor="middle" x="863" y="-62" font-family="Helvetica,sans-Serif" font-size="10.00">esp_log.h</text>
</a>
</g>
</g>
<!-- Node1&#45;&gt;Node11 -->
<g id="edge41_Node000001_Node000011" class="edge">
<title>Node1&#45;&gt;Node11</title>
<g id="a_edge41_Node000001_Node000011"><a xlink:title=" ">
<path fill="none" stroke="#63b8ff" d="M1394.27,-219.9C1355.73,-210.18 1303.67,-196.76 1258,-184 1125.57,-147 969.53,-98.82 899.84,-77.06"/>
<polygon fill="#63b8ff" stroke="#63b8ff" points="900.78,-73.69 890.19,-74.05 898.69,-80.37 900.78,-73.69"/>
</a>
</g>
</g>
<!-- Node16 -->
<g id="Node000016" class="node">
<title>Node16</title>
<g id="a_Node000016"><a xlink:title=" ">
<polygon fill="#e0e0e0" stroke="#999999" points="1025.5,-74 912.5,-74 912.5,-55 1025.5,-55 1025.5,-74"/>
<text text-anchor="middle" x="969" y="-62" font-family="Helvetica,sans-Serif" font-size="10.00">freertos/FreeRTOS.h</text>
</a>
</g>
</g>
<!-- Node1&#45;&gt;Node16 -->
<g id="edge39_Node000001_Node000016" class="edge">
<title>Node1&#45;&gt;Node16</title>
<g id="a_edge39_Node000001_Node000016"><a xlink:title=" ">
<path fill="none" stroke="#63b8ff" d="M1410.73,-219.92C1317.8,-187.44 1089.69,-107.69 1003.1,-77.42"/>
<polygon fill="#63b8ff" stroke="#63b8ff" points="1004.09,-74.06 993.49,-74.06 1001.78,-80.67 1004.09,-74.06"/>
</a>
</g>
</g>
<!-- Node27 -->
<g id="Node000027" class="node">
<title>Node27</title>
<g id="a_Node000027"><a xlink:href="TestFramework_8h.html" target="_top" xlink:title="Shared testing framework for ESP32&#45;C6 comprehensive test suites.">
<polygon fill="white" stroke="#666666" points="1366,-129 1266,-129 1266,-110 1366,-110 1366,-129"/>
<text text-anchor="middle" x="1316" y="-117" font-family="Helvetica,sans-Serif" font-size="10.00">TestFramework.h</text>
</a>
</g>
</g>
<!-- Node1&#45;&gt;Node27 -->
<g id="edge30_Node000001_Node000027" class="edge">
<title>Node1&#45;&gt;Node27</title>
<g id="a_edge30_Node000001_Node000027"><a xlink:title=" ">
<path fill="none" stroke="#63b8ff" d="M1434.18,-219.85C1408.66,-198.41 1360.39,-157.82 1334.13,-135.74"/>
<polygon fill="#63b8ff" stroke="#63b8ff" points="1336.34,-133.03 1326.43,-129.27 1331.83,-138.38 1336.34,-133.03"/>
</a>
</g>
</g>
<!-- Node30 -->
<g id="Node000030" class="node">
<title>Node30</title>
<g id="a_Node000030"><a xlink:title=" ">
<polygon fill="#e0e0e0" stroke="#999999" points="2126,-74 2038,-74 2038,-55 2126,-55 2126,-74"/>
<text text-anchor="middle" x="2082" y="-62" font-family="Helvetica,sans-Serif" font-size="10.00">freertos/task.h</text>
</a>
</g>
</g>
<!-- Node1&#45;&gt;Node30 -->
<g id="edge40_Node000001_Node000030" class="edge">
<title>Node1&#45;&gt;Node30</title>
<g id="a_edge40_Node000001_Node000030"><a xlink:title=" ">
<path fill="none" stroke="#63b8ff" d="M1503.44,-220C1625.9,-187.3 1928.69,-106.44 2040.04,-76.7"/>
<polygon fill="#63b8ff" stroke="#63b8ff" points="2041.14,-80.03 2049.9,-74.07 2039.33,-73.27 2041.14,-80.03"/>
</a>
</g>
</g>
<!-- Node31 -->
<g id="Node000031" class="node">
<title>Node31</title>
<g id="a_Node000031"><a xlink:title=" ">
<polygon fill="#e0e0e0" stroke="#999999" points="1872,-184 1814,-184 1814,-165 1872,-165 1872,-184"/>
<text text-anchor="middle" x="1843" y="-172" font-family="Helvetica,sans-Serif" font-size="10.00">memory</text>
</a>
</g>
</g>
<!-- Node1&#45;&gt;Node31 -->
<g id="edge38_Node000001_Node000031" class="edge">
<title>Node1&#45;&gt;Node31</title>
<g id="a_edge38_Node000001_Node000031"><a xlink:title=" ">
<path fill="none" stroke="#63b8ff" d="M1539.05,-222.7C1609.74,-213.3 1711.45,-199.08 1800,-184 1801.27,-183.78 1802.55,-183.56 1803.85,-183.33"/>
<polygon fill="#63b8ff" stroke="#63b8ff" points="1804.7,-186.73 1813.89,-181.47 1803.42,-179.85 1804.7,-186.73"/>
</a>
</g>
</g>
<!-- Node3 -->
<g id="Node000003" class="node">
<title>Node3</title>
<g id="a_Node000003"><a xlink:href="rmt__wrapper_8hpp.html" target="_top" xlink:title="A modern C++17 header‑only wrapper around the ESP‑IDF v5.3 “new” RMT.">
<polygon fill="white" stroke="#666666" points="605.5,-129 506.5,-129 506.5,-110 605.5,-110 605.5,-129"/>
<text text-anchor="middle" x="556" y="-117" font-family="Helvetica,sans-Serif" font-size="10.00">rmt_wrapper.hpp</text>
</a>
</g>
</g>
<!-- Node2&#45;&gt;Node3 -->
<g id="edge2_Node000002_Node000003" class="edge">
<title>Node2&#45;&gt;Node3</title>
<g id="a_edge2_Node000002_Node000003"><a xlink:title=" ">
<path fill="none" stroke="#63b8ff" d="M1415.81,-170.63C1261.03,-161.61 784.33,-133.81 615.79,-123.99"/>
<polygon fill="#63b8ff" stroke="#63b8ff" points="615.8,-120.48 605.62,-123.39 615.39,-127.47 615.8,-120.48"/>
</a>
</g>
</g>
<!-- Node8 -->
<g id="Node000008" class="node">
<title>Node8</title>
<g id="a_Node000008"><a xlink:title=" ">
<polygon fill="#e0e0e0" stroke="#999999" points="50,-74 0,-74 0,-55 50,-55 50,-74"/>
<text text-anchor="middle" x="25" y="-62" font-family="Helvetica,sans-Serif" font-size="10.00">cstdint</text>
</a>
</g>
</g>
<!-- Node2&#45;&gt;Node8 -->
<g id="edge28_Node000002_Node000008" class="edge">
<title>Node2&#45;&gt;Node8</title>
<g id="a_edge28_Node000002_Node000008"><a xlink:title=" ">
<path fill="none" stroke="#63b8ff" d="M1415.8,-172.61C1273.36,-169.74 848.37,-159.09 497,-129 304.77,-112.54 253.54,-110.16 60.1,-74.01"/>
<polygon fill="#63b8ff" stroke="#63b8ff" points="60.65,-70.55 50.18,-72.15 59.36,-77.43 60.65,-70.55"/>
</a>
</g>
</g>
<!-- Node18 -->
<g id="Node000018" class="node">
<title>Node18</title>
<g id="a_Node000018"><a xlink:href="ws2812__control_8h.html" target="_top" xlink:title="ESP&#45;IDF RMT based driver for WS2812 / NeoPixel LED chains.">
<polygon fill="white" stroke="#666666" points="1570,-129 1468,-129 1468,-110 1570,-110 1570,-129"/>
<text text-anchor="middle" x="1519" y="-117" font-family="Helvetica,sans-Serif" font-size="10.00">ws2812_control.h</text>
</a>
</g>
</g>
<!-- Node2&#45;&gt;Node18 -->
<g id="edge17_Node000002_Node000018" class="edge">
<title>Node2&#45;&gt;Node18</title>
<g id="a_edge17_Node000002_Node000018"><a xlink:title=" ">
<path fill="none" stroke="#63b8ff" d="M1473.92,-164.75C1481.78,-157.03 1493.43,-145.6 1502.92,-136.28"/>
<polygon fill="#63b8ff" stroke="#63b8ff" points="1505.56,-138.59 1510.25,-129.09 1500.66,-133.6 1505.56,-138.59"/>
</a>
</g>
</g>
<!-- Node25 -->
<g id="Node000025" class="node">
<title>Node25</title>
<g id="a_Node000025"><a xlink:title=" ">
<polygon fill="#e0e0e0" stroke="#999999" points="1692,-129 1588,-129 1588,-110 1692,-110 1692,-129"/>
<text text-anchor="middle" x="1640" y="-117" font-family="Helvetica,sans-Serif" font-size="10.00">ws2812_version.h</text>
</a>
</g>
</g>
<!-- Node2&#45;&gt;Node25 -->
<g id="edge27_Node000002_Node000025" class="edge">
<title>Node2&#45;&gt;Node25</title>
<g id="a_edge27_Node000002_Node000025"><a xlink:title=" ">
<path fill="none" stroke="#63b8ff" d="M1493.12,-164.98C1522.62,-156.05 1569.19,-141.94 1601.97,-132.02"/>
<polygon fill="#63b8ff" stroke="#63b8ff" points="1603.11,-135.33 1611.66,-129.08 1601.08,-128.63 1603.11,-135.33"/>
</a>
</g>
</g>
<!-- Node26 -->
<g id="Node000026" class="node">
<title>Node26</title>
<g id="a_Node000026"><a xlink:title=" ">
<polygon fill="#e0e0e0" stroke="#999999" points="1757.5,-129 1710.5,-129 1710.5,-110 1757.5,-110 1757.5,-129"/>
<text text-anchor="middle" x="1734" y="-117" font-family="Helvetica,sans-Serif" font-size="10.00">vector</text>
</a>
</g>
</g>
<!-- Node2&#45;&gt;Node26 -->
<g id="edge29_Node000002_Node000026" class="edge">
<title>Node2&#45;&gt;Node26</title>
<g id="a_edge29_Node000002_Node000026"><a xlink:title=" ">
<path fill="none" stroke="#63b8ff" d="M1514.01,-165.23C1559.72,-157.29 1630.03,-144.54 1700.33,-129.02"/>
<polygon fill="#63b8ff" stroke="#63b8ff" points="1701.25,-132.4 1710.25,-126.82 1699.73,-125.57 1701.25,-132.4"/>
</a>
</g>
</g>
<!-- Node4 -->
<g id="Node000004" class="node">
<title>Node4</title>
<g id="a_Node000004"><a xlink:title=" ">
<polygon fill="#e0e0e0" stroke="#999999" points="170,-74 68,-74 68,-55 170,-55 170,-74"/>
<text text-anchor="middle" x="119" y="-62" font-family="Helvetica,sans-Serif" font-size="10.00">esp_idf_version.h</text>
</a>
</g>
</g>
<!-- Node3&#45;&gt;Node4 -->
<g id="edge3_Node000003_Node000004" class="edge">
<title>Node3&#45;&gt;Node4</title>
<g id="a_edge3_Node000003_Node000004"><a xlink:title=" ">
<path fill="none" stroke="#63b8ff" d="M506.25,-113C435.98,-105.15 303.38,-90.03 180.05,-74.11"/>
<polygon fill="#63b8ff" stroke="#63b8ff" points="180.42,-70.63 170.05,-72.81 179.52,-77.57 180.42,-70.63"/>
</a>
</g>
</g>
<!-- Node5 -->
<g id="Node000005" class="node">
<title>Node5</title>
<g id="a_Node000005"><a xlink:title=" ">
<polygon fill="#e0e0e0" stroke="#999999" points="230,-74 188,-74 188,-55 230,-55 230,-74"/>
<text text-anchor="middle" x="209" y="-62" font-family="Helvetica,sans-Serif" font-size="10.00">array</text>
</a>
</g>
</g>
<!-- Node3&#45;&gt;Node5 -->
<g id="edge4_Node000003_Node000005" class="edge">
<title>Node3&#45;&gt;Node5</title>
<g id="a_edge4_Node000003_Node000005"><a xlink:title=" ">
<path fill="none" stroke="#63b8ff" d="M506.49,-113.67C445.82,-107.28 339.78,-94.6 240.15,-73.98"/>
<polygon fill="#63b8ff" stroke="#63b8ff" points="240.72,-70.53 230.22,-71.9 239.28,-77.38 240.72,-70.53"/>
</a>
</g>
</g>
<!-- Node6 -->
<g id="Node000006" class="node">
<title>Node6</title>
<g id="a_Node000006"><a xlink:title=" ">
<polygon fill="#e0e0e0" stroke="#999999" points="298,-74 248,-74 248,-55 298,-55 298,-74"/>
<text text-anchor="middle" x="273" y="-62" font-family="Helvetica,sans-Serif" font-size="10.00">atomic</text>
</a>
</g>
</g>
<!-- Node3&#45;&gt;Node6 -->
<g id="edge5_Node000003_Node000006" class="edge">
<title>Node3&#45;&gt;Node6</title>
<g id="a_edge5_Node000003_Node000006"><a xlink:title=" ">
<path fill="none" stroke="#63b8ff" d="M506.2,-110.63C457.96,-102.77 382.53,-89.88 308.21,-74.14"/>
<polygon fill="#63b8ff" stroke="#63b8ff" points="308.72,-70.67 298.21,-72 307.25,-77.52 308.72,-70.67"/>
</a>
</g>
</g>
<!-- Node7 -->
<g id="Node000007" class="node">
<title>Node7</title>
<g id="a_Node000007"><a xlink:title=" ">
<polygon fill="#e0e0e0" stroke="#999999" points="369.5,-74 316.5,-74 316.5,-55 369.5,-55 369.5,-74"/>
<text text-anchor="middle" x="343" y="-62" font-family="Helvetica,sans-Serif" font-size="10.00">cstddef</text>
</a>
</g>
</g>
<!-- Node3&#45;&gt;Node7 -->
<g id="edge6_Node000003_Node000007" class="edge">
<title>Node3&#45;&gt;Node7</title>
<g id="a_edge6_Node000003_Node000007"><a xlink:title=" ">
<path fill="none" stroke="#63b8ff" d="M521.78,-109.98C482.83,-100.29 419.47,-84.53 379.57,-74.6"/>
<polygon fill="#63b8ff" stroke="#63b8ff" points="380.27,-71.17 369.72,-72.15 378.58,-77.96 380.27,-71.17"/>
</a>
</g>
</g>
<!-- Node3&#45;&gt;Node8 -->
<g id="edge7_Node000003_Node000008" class="edge">
<title>Node3&#45;&gt;Node8</title>
<g id="a_edge7_Node000003_Node000008"><a xlink:title=" ">
<path fill="none" stroke="#63b8ff" d="M506.29,-116.61C418.21,-112.71 228.89,-101.82 60.21,-73.94"/>
<polygon fill="#63b8ff" stroke="#63b8ff" points="60.6,-70.46 50.16,-72.25 59.44,-77.36 60.6,-70.46"/>
</a>
</g>
</g>
<!-- Node9 -->
<g id="Node000009" class="node">
<title>Node9</title>
<g id="a_Node000009"><a xlink:title=" ">
<polygon fill="#e0e0e0" stroke="#999999" points="432.5,-74 387.5,-74 387.5,-55 432.5,-55 432.5,-74"/>
<text text-anchor="middle" x="410" y="-62" font-family="Helvetica,sans-Serif" font-size="10.00">utility</text>
</a>
</g>
</g>
<!-- Node3&#45;&gt;Node9 -->
<g id="edge8_Node000003_Node000009" class="edge">
<title>Node3&#45;&gt;Node9</title>
<g id="a_edge8_Node000003_Node000009"><a xlink:title=" ">
<path fill="none" stroke="#63b8ff" d="M532.54,-109.98C508.13,-101.12 469.73,-87.18 442.43,-77.27"/>
<polygon fill="#63b8ff" stroke="#63b8ff" points="443.51,-73.94 432.92,-73.82 441.12,-80.52 443.51,-73.94"/>
</a>
</g>
</g>
<!-- Node10 -->
<g id="Node000010" class="node">
<title>Node10</title>
<g id="a_Node000010"><a xlink:title=" ">
<polygon fill="#e0e0e0" stroke="#999999" points="527.5,-74 450.5,-74 450.5,-55 527.5,-55 527.5,-74"/>
<text text-anchor="middle" x="489" y="-62" font-family="Helvetica,sans-Serif" font-size="10.00">esp_check.h</text>
</a>
</g>
</g>
<!-- Node3&#45;&gt;Node10 -->
<g id="edge9_Node000003_Node000010" class="edge">
<title>Node3&#45;&gt;Node10</title>
<g id="a_edge9_Node000003_Node000010"><a xlink:title=" ">
<path fill="none" stroke="#63b8ff" d="M545.24,-109.98C535.23,-102.07 520.11,-90.11 508.07,-80.58"/>
<polygon fill="#63b8ff" stroke="#63b8ff" points="509.97,-77.63 499.96,-74.17 505.63,-83.12 509.97,-77.63"/>
</a>
</g>
</g>
<!-- Node3&#45;&gt;Node11 -->
<g id="edge10_Node000003_Node000011" class="edge">
<title>Node3&#45;&gt;Node11</title>
<g id="a_edge10_Node000003_Node000011"><a xlink:title=" ">
<path fill="none" stroke="#63b8ff" d="M605.62,-110.79C657.03,-102.66 739.96,-89.19 821.33,-74.06"/>
<polygon fill="#63b8ff" stroke="#63b8ff" points="822.05,-77.49 831.24,-72.21 820.77,-70.61 822.05,-77.49"/>
</a>
</g>
</g>
<!-- Node12 -->
<g id="Node000012" class="node">
<title>Node12</title>
<g id="a_Node000012"><a xlink:title=" ">
<polygon fill="#e0e0e0" stroke="#999999" points="706,-74 584,-74 584,-55 706,-55 706,-74"/>
<text text-anchor="middle" x="645" y="-62" font-family="Helvetica,sans-Serif" font-size="10.00">esp_private/esp_clk.h</text>
</a>
</g>
</g>
<!-- Node3&#45;&gt;Node12 -->
<g id="edge11_Node000003_Node000012" class="edge">
<title>Node3&#45;&gt;Node12</title>
<g id="a_edge11_Node000003_Node000012"><a xlink:title=" ">
<path fill="none" stroke="#63b8ff" d="M570.3,-109.98C584.1,-101.77 605.24,-89.18 621.51,-79.49"/>
<polygon fill="#63b8ff" stroke="#63b8ff" points="623.64,-82.29 630.44,-74.17 620.06,-76.28 623.64,-82.29"/>
</a>
</g>
</g>
<!-- Node13 -->
<g id="Node000013" class="node">
<title>Node13</title>
<g id="a_Node000013"><a xlink:title=" ">
<polygon fill="#e0e0e0" stroke="#999999" points="1245,-19 1127,-19 1127,0 1245,0 1245,-19"/>
<text text-anchor="middle" x="1186" y="-7" font-family="Helvetica,sans-Serif" font-size="10.00">driver/rmt_encoder.h</text>
</a>
</g>
</g>
<!-- Node3&#45;&gt;Node13 -->
<g id="edge12_Node000003_Node000013" class="edge">
<title>Node3&#45;&gt;Node13</title>
<g id="a_edge12_Node000003_Node000013"><a xlink:title=" ">
<path fill="none" stroke="#63b8ff" d="M555.74,-109.86C555.84,-95.85 558.31,-68.4 575,-55 616.45,-21.73 965.74,-13.28 1116.82,-11.18"/>
<polygon fill="#63b8ff" stroke="#63b8ff" points="1116.96,-14.68 1126.92,-11.05 1116.87,-7.68 1116.96,-14.68"/>
</a>
</g>
</g>
<!-- Node14 -->
<g id="Node000014" class="node">
<title>Node14</title>
<g id="a_Node000014"><a xlink:title=" ">
<polygon fill="#e0e0e0" stroke="#999999" points="813.5,-74 724.5,-74 724.5,-55 813.5,-55 813.5,-74"/>
<text text-anchor="middle" x="769" y="-62" font-family="Helvetica,sans-Serif" font-size="10.00">driver/rmt_rx.h</text>
</a>
</g>
</g>
<!-- Node3&#45;&gt;Node14 -->
<g id="edge13_Node000003_Node000014" class="edge">
<title>Node3&#45;&gt;Node14</title>
<g id="a_edge13_Node000003_Node000014"><a xlink:title=" ">
<path fill="none" stroke="#63b8ff" d="M590.22,-109.98C626.76,-100.89 684.78,-86.46 724.76,-76.51"/>
<polygon fill="#63b8ff" stroke="#63b8ff" points="725.65,-79.89 734.51,-74.08 723.96,-73.1 725.65,-79.89"/>
</a>
</g>
</g>
<!-- Node15 -->
<g id="Node000015" class="node">
<title>Node15</title>
<g id="a_Node000015"><a xlink:title=" ">
<polygon fill="#e0e0e0" stroke="#999999" points="1247.5,-74 1158.5,-74 1158.5,-55 1247.5,-55 1247.5,-74"/>
<text text-anchor="middle" x="1203" y="-62" font-family="Helvetica,sans-Serif" font-size="10.00">driver/rmt_tx.h</text>
</a>
</g>
</g>
<!-- Node3&#45;&gt;Node15 -->
<g id="edge14_Node000003_Node000015" class="edge">
<title>Node3&#45;&gt;Node15</title>
<g id="a_edge14_Node000003_Node000015"><a xlink:title=" ">
<path fill="none" stroke="#63b8ff" d="M605.72,-116.14C706.14,-111.07 940.54,-97.73 1148.08,-74"/>
<polygon fill="#63b8ff" stroke="#63b8ff" points="1148.72,-77.45 1158.25,-72.83 1147.91,-70.5 1148.72,-77.45"/>
</a>
</g>
</g>
<!-- Node3&#45;&gt;Node16 -->
<g id="edge15_Node000003_Node000016" class="edge">
<title>Node3&#45;&gt;Node16</title>
<g id="a_edge15_Node000003_Node000016"><a xlink:title=" ">
<path fill="none" stroke="#63b8ff" d="M605.71,-112.13C671.1,-103.76 789.91,-88.53 902.32,-74.09"/>
<polygon fill="#63b8ff" stroke="#63b8ff" points="903,-77.53 912.47,-72.78 902.11,-70.59 903,-77.53"/>
</a>
</g>
</g>
<!-- Node17 -->
<g id="Node000017" class="node">
<title>Node17</title>
<g id="a_Node000017"><a xlink:title=" ">
<polygon fill="#e0e0e0" stroke="#999999" points="1140.5,-74 1043.5,-74 1043.5,-55 1140.5,-55 1140.5,-74"/>
<text text-anchor="middle" x="1092" y="-62" font-family="Helvetica,sans-Serif" font-size="10.00">freertos/queue.h</text>
</a>
</g>
</g>
<!-- Node3&#45;&gt;Node17 -->
<g id="edge16_Node000003_Node000017" class="edge">
<title>Node3&#45;&gt;Node17</title>
<g id="a_edge16_Node000003_Node000017"><a xlink:title=" ">
<path fill="none" stroke="#63b8ff" d="M605.64,-114.75C690.79,-108.12 870.44,-93.3 1033.1,-74.04"/>
<polygon fill="#63b8ff" stroke="#63b8ff" points="1033.78,-77.49 1043.29,-72.83 1032.95,-70.54 1033.78,-77.49"/>
</a>
</g>
</g>
<!-- Node18&#45;&gt;Node15 -->
<g id="edge19_Node000018_Node000015" class="edge">
<title>Node18&#45;&gt;Node15</title>
<g id="a_edge19_Node000018_Node000015"><a xlink:title=" ">
<path fill="none" stroke="#63b8ff" d="M1468.23,-109.98C1410.51,-100.3 1316.63,-84.56 1257.43,-74.63"/>
<polygon fill="#63b8ff" stroke="#63b8ff" points="1257.96,-71.17 1247.52,-72.97 1256.8,-78.07 1257.96,-71.17"/>
</a>
</g>
</g>
<!-- Node19 -->
<g id="Node000019" class="node">
<title>Node19</title>
<g id="a_Node000019"><a xlink:title=" ">
<polygon fill="#e0e0e0" stroke="#999999" points="1558,-74 1480,-74 1480,-55 1558,-55 1558,-74"/>
<text text-anchor="middle" x="1519" y="-62" font-family="Helvetica,sans-Serif" font-size="10.00">driver/gpio.h</text>
</a>
</g>
</g>
<!-- Node18&#45;&gt;Node19 -->
<g id="edge18_Node000018_Node000019" class="edge">
<title>Node18&#45;&gt;Node19</title>
<g id="a_edge18_Node000018_Node000019"><a xlink:title=" ">
<path fill="none" stroke="#63b8ff" d="M1519,-109.75C1519,-102.8 1519,-92.85 1519,-84.13"/>
<polygon fill="#63b8ff" stroke="#63b8ff" points="1522.5,-84.09 1519,-74.09 1515.5,-84.09 1522.5,-84.09"/>
</a>
</g>
</g>
<!-- Node20 -->
<g id="Node000020" class="node">
<title>Node20</title>
<g id="a_Node000020"><a xlink:title=" ">
<polygon fill="#e0e0e0" stroke="#999999" points="1683.5,-74 1576.5,-74 1576.5,-55 1683.5,-55 1683.5,-74"/>
<text text-anchor="middle" x="1630" y="-62" font-family="Helvetica,sans-Serif" font-size="10.00">driver/rmt_types.h</text>
</a>
</g>
</g>
<!-- Node18&#45;&gt;Node20 -->
<g id="edge20_Node000018_Node000020" class="edge">
<title>Node18&#45;&gt;Node20</title>
<g id="a_edge20_Node000018_Node000020"><a xlink:title=" ">
<path fill="none" stroke="#63b8ff" d="M1536.83,-109.98C1554.61,-101.5 1582.15,-88.35 1602.68,-78.54"/>
<polygon fill="#63b8ff" stroke="#63b8ff" points="1604.33,-81.64 1611.84,-74.17 1601.31,-75.32 1604.33,-81.64"/>
</a>
</g>
</g>
<!-- Node21 -->
<g id="Node000021" class="node">
<title>Node21</title>
<g id="a_Node000021"><a xlink:title=" ">
<polygon fill="#e0e0e0" stroke="#999999" points="1762.5,-74 1701.5,-74 1701.5,-55 1762.5,-55 1762.5,-74"/>
<text text-anchor="middle" x="1732" y="-62" font-family="Helvetica,sans-Serif" font-size="10.00">esp_err.h</text>
</a>
</g>
</g>
<!-- Node18&#45;&gt;Node21 -->
<g id="edge21_Node000018_Node000021" class="edge">
<title>Node18&#45;&gt;Node21</title>
<g id="a_edge21_Node000018_Node000021"><a xlink:title=" ">
<path fill="none" stroke="#63b8ff" d="M1553.22,-109.98C1590.95,-100.6 1651.59,-85.51 1691.61,-75.55"/>
<polygon fill="#63b8ff" stroke="#63b8ff" points="1692.46,-78.95 1701.32,-73.13 1690.77,-72.15 1692.46,-78.95"/>
</a>
</g>
</g>
<!-- Node22 -->
<g id="Node000022" class="node">
<title>Node22</title>
<g id="a_Node000022"><a xlink:href="led__strip__encoder_8h.html" target="_top" xlink:title=" ">
<polygon fill="white" stroke="#666666" points="1891.5,-74 1780.5,-74 1780.5,-55 1891.5,-55 1891.5,-74"/>
<text text-anchor="middle" x="1836" y="-62" font-family="Helvetica,sans-Serif" font-size="10.00">led_strip_encoder.h</text>
</a>
</g>
</g>
<!-- Node18&#45;&gt;Node22 -->
<g id="edge22_Node000018_Node000022" class="edge">
<title>Node18&#45;&gt;Node22</title>
<g id="a_edge22_Node000018_Node000022"><a xlink:title=" ">
<path fill="none" stroke="#63b8ff" d="M1569.93,-109.98C1625.77,-100.65 1715.33,-85.67 1774.91,-75.71"/>
<polygon fill="#63b8ff" stroke="#63b8ff" points="1775.65,-79.14 1784.93,-74.04 1774.49,-72.24 1775.65,-79.14"/>
</a>
</g>
</g>
<!-- Node23 -->
<g id="Node000023" class="node">
<title>Node23</title>
<g id="a_Node000023"><a xlink:title=" ">
<polygon fill="#e0e0e0" stroke="#999999" points="1904.5,-19 1851.5,-19 1851.5,0 1904.5,0 1904.5,-19"/>
<text text-anchor="middle" x="1878" y="-7" font-family="Helvetica,sans-Serif" font-size="10.00">stdint.h</text>
</a>
</g>
</g>
<!-- Node18&#45;&gt;Node23 -->
<g id="edge26_Node000018_Node000023" class="edge">
<title>Node18&#45;&gt;Node23</title>
<g id="a_edge26_Node000018_Node000023"><a xlink:title=" ">
<path fill="none" stroke="#63b8ff" d="M1570.05,-111.16C1573.08,-110.76 1576.08,-110.37 1579,-110 1650.43,-100.95 1853,-127.67 1901,-74 1912.78,-60.83 1902.72,-41.16 1892.45,-27.2"/>
<polygon fill="#63b8ff" stroke="#63b8ff" points="1895.18,-25.02 1886.22,-19.36 1889.7,-29.37 1895.18,-25.02"/>
</a>
</g>
</g>
<!-- Node24 -->
<g id="Node000024" class="node">
<title>Node24</title>
<g id="a_Node000024"><a xlink:title=" ">
<polygon fill="#e0e0e0" stroke="#999999" points="2020,-74 1948,-74 1948,-55 2020,-55 2020,-74"/>
<text text-anchor="middle" x="1984" y="-62" font-family="Helvetica,sans-Serif" font-size="10.00">sdkconfig.h</text>
</a>
</g>
</g>
<!-- Node18&#45;&gt;Node24 -->
<g id="edge25_Node000018_Node000024" class="edge">
<title>Node18&#45;&gt;Node24</title>
<g id="a_edge25_Node000018_Node000024"><a xlink:title=" ">
<path fill="none" stroke="#63b8ff" d="M1570.04,-111.13C1573.07,-110.73 1576.08,-110.36 1579,-110 1736.43,-90.87 1776.85,-95.3 1934,-74 1935.28,-73.83 1936.57,-73.65 1937.87,-73.46"/>
<polygon fill="#63b8ff" stroke="#63b8ff" points="1938.63,-76.88 1947.99,-71.92 1937.58,-69.96 1938.63,-76.88"/>
</a>
</g>
</g>
<!-- Node22&#45;&gt;Node13 -->
<g id="edge23_Node000022_Node000013" class="edge">
<title>Node22&#45;&gt;Node13</title>
<g id="a_edge23_Node000022_Node000013"><a xlink:title=" ">
<path fill="none" stroke="#63b8ff" d="M1780.17,-55.9C1777.41,-55.58 1774.68,-55.28 1772,-55 1585.71,-35.57 1365.25,-21.12 1255.43,-14.5"/>
<polygon fill="#63b8ff" stroke="#63b8ff" points="1255.35,-10.99 1245.15,-13.89 1254.93,-17.98 1255.35,-10.99"/>
</a>
</g>
</g>
<!-- Node22&#45;&gt;Node23 -->
<g id="edge24_Node000022_Node000023" class="edge">
<title>Node22&#45;&gt;Node23</title>
<g id="a_edge24_Node000022_Node000023"><a xlink:title=" ">
<path fill="none" stroke="#63b8ff" d="M1842.94,-54.75C1848.87,-47.26 1857.57,-36.28 1864.82,-27.13"/>
<polygon fill="#63b8ff" stroke="#63b8ff" points="1867.73,-29.1 1871.19,-19.09 1862.24,-24.75 1867.73,-29.1"/>
</a>
</g>
</g>
<!-- Node27&#45;&gt;Node11 -->
<g id="edge31_Node000027_Node000011" class="edge">
<title>Node27&#45;&gt;Node11</title>
<g id="a_edge31_Node000027_Node000011"><a xlink:title=" ">
<path fill="none" stroke="#63b8ff" d="M1265.88,-114.76C1189.85,-108.72 1040.66,-95.45 904.98,-74.18"/>
<polygon fill="#63b8ff" stroke="#63b8ff" points="905.25,-70.68 894.82,-72.57 904.15,-77.59 905.25,-70.68"/>
</a>
</g>
</g>
<!-- Node27&#45;&gt;Node16 -->
<g id="edge34_Node000027_Node000016" class="edge">
<title>Node27&#45;&gt;Node16</title>
<g id="a_edge34_Node000027_Node000016"><a xlink:title=" ">
<path fill="none" stroke="#63b8ff" d="M1265.91,-110.85C1205.04,-101.55 1102.13,-85.83 1034.88,-75.56"/>
<polygon fill="#63b8ff" stroke="#63b8ff" points="1035.23,-72.08 1024.82,-74.03 1034.18,-79 1035.23,-72.08"/>
</a>
</g>
</g>
<!-- Node27&#45;&gt;Node17 -->
<g id="edge35_Node000027_Node000017" class="edge">
<title>Node27&#45;&gt;Node17</title>
<g id="a_edge35_Node000027_Node000017"><a xlink:title=" ">
<path fill="none" stroke="#63b8ff" d="M1280.01,-109.98C1241.51,-100.87 1180.31,-86.4 1138.26,-76.45"/>
<polygon fill="#63b8ff" stroke="#63b8ff" points="1138.81,-72.98 1128.27,-74.08 1137.2,-79.79 1138.81,-72.98"/>
</a>
</g>
</g>
<!-- Node27&#45;&gt;Node19 -->
<g id="edge33_Node000027_Node000019" class="edge">
<title>Node27&#45;&gt;Node19</title>
<g id="a_edge33_Node000027_Node000019"><a xlink:title=" ">
<path fill="none" stroke="#63b8ff" d="M1348.62,-109.98C1383.29,-100.93 1438.26,-86.58 1476.35,-76.64"/>
<polygon fill="#63b8ff" stroke="#63b8ff" points="1477.34,-79.99 1486.13,-74.08 1475.57,-73.22 1477.34,-79.99"/>
</a>
</g>
</g>
<!-- Node28 -->
<g id="Node000028" class="node">
<title>Node28</title>
<g id="a_Node000028"><a xlink:title=" ">
<polygon fill="#e0e0e0" stroke="#999999" points="1340,-74 1266,-74 1266,-55 1340,-55 1340,-74"/>
<text text-anchor="middle" x="1303" y="-62" font-family="Helvetica,sans-Serif" font-size="10.00">esp_timer.h</text>
</a>
</g>
</g>
<!-- Node27&#45;&gt;Node28 -->
<g id="edge32_Node000027_Node000028" class="edge">
<title>Node27&#45;&gt;Node28</title>
<g id="a_edge32_Node000027_Node000028"><a xlink:title=" ">
<path fill="none" stroke="#63b8ff" d="M1313.85,-109.75C1312.13,-102.72 1309.65,-92.62 1307.5,-83.84"/>
<polygon fill="#63b8ff" stroke="#63b8ff" points="1310.89,-82.97 1305.11,-74.09 1304.09,-84.63 1310.89,-82.97"/>
</a>
</g>
</g>
<!-- Node29 -->
<g id="Node000029" class="node">
<title>Node29</title>
<g id="a_Node000029"><a xlink:title=" ">
<polygon fill="#e0e0e0" stroke="#999999" points="1461.5,-74 1358.5,-74 1358.5,-55 1461.5,-55 1461.5,-74"/>
<text text-anchor="middle" x="1410" y="-62" font-family="Helvetica,sans-Serif" font-size="10.00">freertos/semphr.h</text>
</a>
</g>
</g>
<!-- Node27&#45;&gt;Node29 -->
<g id="edge36_Node000027_Node000029" class="edge">
<title>Node27&#45;&gt;Node29</title>
<g id="a_edge36_Node000027_Node000029"><a xlink:title=" ">
<path fill="none" stroke="#63b8ff" d="M1331.1,-109.98C1345.82,-101.69 1368.42,-88.94 1385.67,-79.22"/>
<polygon fill="#63b8ff" stroke="#63b8ff" points="1387.63,-82.13 1394.62,-74.17 1384.19,-76.03 1387.63,-82.13"/>
</a>
</g>
</g>
<!-- Node27&#45;&gt;Node30 -->
<g id="edge37_Node000027_Node000030" class="edge">
<title>Node27&#45;&gt;Node30</title>
<g id="a_edge37_Node000027_Node000030"><a xlink:title=" ">
<path fill="none" stroke="#63b8ff" d="M1366.26,-115.5C1514.99,-106.59 1947.15,-80.6 2027.72,-73.86"/>
<polygon fill="#63b8ff" stroke="#63b8ff" points="2028.17,-77.33 2037.8,-72.92 2027.52,-70.36 2028.17,-77.33"/>
</a>
</g>
</g>
</g>
</svg>
