<?xml version="1.0" encoding="UTF-8" standalone="no"?>
<!DOCTYPE svg PUBLIC "-//W3C//DTD SVG 1.1//EN"
 "http://www.w3.org/Graphics/SVG/1.1/DTD/svg11.dtd">
<!-- Generated by graphviz version 2.43.0 (0)
 -->
<!-- Title: examples/esp32/main/WS2812ComprehensiveTest.cpp Pages: 1 -->
<svg width="2111pt" height="258pt"
 viewBox="0.00 0.00 2110.54 258.00" xmlns="http://www.w3.org/2000/svg" xmlns:xlink="http://www.w3.org/1999/xlink">
<g id="graph0" class="graph" transform="scale(1 1) rotate(0) translate(4 254)">
<title>examples/esp32/main/WS2812ComprehensiveTest.cpp</title>
<!-- Node1 -->
<g id="Node000001" class="node">
<title>Node1</title>
<g id="a_Node000001"><a xlink:title="Comprehensive test suite for WS2812 driver on ESP32&#45;C6.">
<polygon fill="#999999" stroke="#666666" points="1738.54,-250 1562.54,-250 1562.54,-220 1738.54,-220 1738.54,-250"/>
<text text-anchor="start" x="1570.54" y="-238" font-family="Helvetica,sans-Serif" font-size="10.00">examples/esp32/main</text>
<text text-anchor="middle" x="1650.54" y="-227" font-family="Helvetica,sans-Serif" font-size="10.00">/WS2812ComprehensiveTest.cpp</text>
</a>
</g>
</g>
<!-- Node2 -->
<g id="Node000002" class="node">
<title>Node2</title>
<g id="a_Node000002"><a xlink:href="ws2812__cpp_8hpp.html" target="_top" xlink:title="C++ wrapper for the HF&#45;WS2812 RMT LED driver.">
<polygon fill="white" stroke="#666666" points="823.54,-184 725.54,-184 725.54,-165 823.54,-165 823.54,-184"/>
<text text-anchor="middle" x="774.54" y="-172" font-family="Helvetica,sans-Serif" font-size="10.00">ws2812_cpp.hpp</text>
</a>
</g>
</g>
<!-- Node1&#45;&gt;Node2 -->
<g id="edge1_Node000001_Node000002" class="edge">
<title>Node1&#45;&gt;Node2</title>
<g id="a_edge1_Node000001_Node000002"><a xlink:title=" ">
<path fill="none" stroke="#63b8ff" d="M1562.53,-228.12C1384.19,-216.21 984.3,-189.51 833.55,-179.44"/>
<polygon fill="#63b8ff" stroke="#63b8ff" points="833.77,-175.95 823.56,-178.77 833.31,-182.93 833.77,-175.95"/>
</a>
</g>
</g>
<!-- Node11 -->
<g id="Node000011" class="node">
<title>Node11</title>
<g id="a_Node000011"><a xlink:title=" ">
<polygon fill="#e0e0e0" stroke="#999999" points="1537.04,-74 1474.04,-74 1474.04,-55 1537.04,-55 1537.04,-74"/>
<text text-anchor="middle" x="1505.54" y="-62" font-family="Helvetica,sans-Serif" font-size="10.00">esp_log.h</text>
</a>
</g>
</g>
<!-- Node1&#45;&gt;Node11 -->
<g id="edge40_Node000001_Node000011" class="edge">
<title>Node1&#45;&gt;Node11</title>
<g id="a_edge40_Node000001_Node000011"><a xlink:title=" ">
<path fill="none" stroke="#63b8ff" d="M1638.42,-219.92C1611.81,-188.99 1548.33,-115.23 1519.82,-82.1"/>
<polygon fill="#63b8ff" stroke="#63b8ff" points="1522.25,-79.55 1513.07,-74.25 1516.94,-84.12 1522.25,-79.55"/>
</a>
</g>
</g>
<!-- Node16 -->
<g id="Node000016" class="node">
<title>Node16</title>
<g id="a_Node000016"><a xlink:title=" ">
<polygon fill="#e0e0e0" stroke="#999999" points="1668.04,-74 1555.04,-74 1555.04,-55 1668.04,-55 1668.04,-74"/>
<text text-anchor="middle" x="1611.54" y="-62" font-family="Helvetica,sans-Serif" font-size="10.00">freertos/FreeRTOS.h</text>
</a>
</g>
</g>
<!-- Node1&#45;&gt;Node16 -->
<g id="edge38_Node000001_Node000016" class="edge">
<title>Node1&#45;&gt;Node16</title>
<g id="a_edge38_Node000001_Node000016"><a xlink:title=" ">
<path fill="none" stroke="#63b8ff" d="M1647.28,-219.92C1640.27,-189.65 1623.77,-118.35 1615.88,-84.27"/>
<polygon fill="#63b8ff" stroke="#63b8ff" points="1619.23,-83.21 1613.56,-74.25 1612.41,-84.79 1619.23,-83.21"/>
</a>
</g>
</g>
<!-- Node26 -->
<g id="Node000026" class="node">
<title>Node26</title>
<g id="a_Node000026"><a xlink:href="TestFramework_8h.html" target="_top" xlink:title="Shared testing framework for ESP32&#45;C6 comprehensive test suites.">
<polygon fill="white" stroke="#666666" points="1739.54,-129 1639.54,-129 1639.54,-110 1739.54,-110 1739.54,-129"/>
<text text-anchor="middle" x="1689.54" y="-117" font-family="Helvetica,sans-Serif" font-size="10.00">TestFramework.h</text>
</a>
</g>
</g>
<!-- Node1&#45;&gt;Node26 -->
<g id="edge29_Node000001_Node000026" class="edge">
<title>Node1&#45;&gt;Node26</title>
<g id="a_edge29_Node000001_Node000026"><a xlink:title=" ">
<path fill="none" stroke="#63b8ff" d="M1655.48,-219.63C1662.52,-199.12 1675.46,-161.47 1683.2,-138.93"/>
<polygon fill="#63b8ff" stroke="#63b8ff" points="1686.6,-139.82 1686.54,-129.23 1679.98,-137.55 1686.6,-139.82"/>
</a>
</g>
</g>
<!-- Node29 -->
<g id="Node000029" class="node">
<title>Node29</title>
<g id="a_Node000029"><a xlink:title=" ">
<polygon fill="#e0e0e0" stroke="#999999" points="2102.54,-74 2014.54,-74 2014.54,-55 2102.54,-55 2102.54,-74"/>
<text text-anchor="middle" x="2058.54" y="-62" font-family="Helvetica,sans-Serif" font-size="10.00">freertos/task.h</text>
</a>
</g>
</g>
<!-- Node1&#45;&gt;Node29 -->
<g id="edge39_Node000001_Node000029" class="edge">
<title>Node1&#45;&gt;Node29</title>
<g id="a_edge39_Node000001_Node000029"><a xlink:title=" ">
<path fill="none" stroke="#63b8ff" d="M1676.17,-219.84C1703.19,-205.19 1747.2,-182.1 1786.54,-165 1869.28,-129.03 1969.66,-94.6 2022.3,-77.22"/>
<polygon fill="#63b8ff" stroke="#63b8ff" points="2023.46,-80.53 2031.87,-74.08 2021.28,-73.88 2023.46,-80.53"/>
</a>
</g>
</g>
<!-- Node30 -->
<g id="Node000030" class="node">
<title>Node30</title>
<g id="a_Node000030"><a xlink:title=" ">
<polygon fill="#e0e0e0" stroke="#999999" points="1853.54,-184 1795.54,-184 1795.54,-165 1853.54,-165 1853.54,-184"/>
<text text-anchor="middle" x="1824.54" y="-172" font-family="Helvetica,sans-Serif" font-size="10.00">memory</text>
</a>
</g>
</g>
<!-- Node1&#45;&gt;Node30 -->
<g id="edge37_Node000001_Node000030" class="edge">
<title>Node1&#45;&gt;Node30</title>
<g id="a_edge37_Node000001_Node000030"><a xlink:title=" ">
<path fill="none" stroke="#63b8ff" d="M1692.21,-219.99C1721.85,-210.02 1761.23,-196.78 1789.3,-187.35"/>
<polygon fill="#63b8ff" stroke="#63b8ff" points="1790.73,-190.56 1799.1,-184.05 1788.5,-183.92 1790.73,-190.56"/>
</a>
</g>
</g>
<!-- Node3 -->
<g id="Node000003" class="node">
<title>Node3</title>
<g id="a_Node000003"><a xlink:href="rmt__wrapper_8hpp.html" target="_top" xlink:title="A modern C++17 header‑only wrapper around the ESP‑IDF v5.3 “new” RMT.">
<polygon fill="white" stroke="#666666" points="965.04,-129 866.04,-129 866.04,-110 965.04,-110 965.04,-129"/>
<text text-anchor="middle" x="915.54" y="-117" font-family="Helvetica,sans-Serif" font-size="10.00">rmt_wrapper.hpp</text>
</a>
</g>
</g>
<!-- Node2&#45;&gt;Node3 -->
<g id="edge2_Node000002_Node000003" class="edge">
<title>Node2&#45;&gt;Node3</title>
<g id="a_edge2_Node000002_Node000003"><a xlink:title=" ">
<path fill="none" stroke="#63b8ff" d="M797.19,-164.98C820.38,-156.27 856.66,-142.63 882.94,-132.75"/>
<polygon fill="#63b8ff" stroke="#63b8ff" points="884.34,-135.97 892.47,-129.17 881.88,-129.41 884.34,-135.97"/>
</a>
</g>
</g>
<!-- Node8 -->
<g id="Node000008" class="node">
<title>Node8</title>
<g id="a_Node000008"><a xlink:title=" ">
<polygon fill="#e0e0e0" stroke="#999999" points="596.54,-74 546.54,-74 546.54,-55 596.54,-55 596.54,-74"/>
<text text-anchor="middle" x="571.54" y="-62" font-family="Helvetica,sans-Serif" font-size="10.00">cstdint</text>
</a>
</g>
</g>
<!-- Node2&#45;&gt;Node8 -->
<g id="edge27_Node000002_Node000008" class="edge">
<title>Node2&#45;&gt;Node8</title>
<g id="a_edge27_Node000002_Node000008"><a xlink:title=" ">
<path fill="none" stroke="#63b8ff" d="M758.27,-164.84C722.92,-146.04 638.89,-101.33 596.67,-78.87"/>
<polygon fill="#63b8ff" stroke="#63b8ff" points="598.07,-75.65 587.6,-74.05 594.79,-81.83 598.07,-75.65"/>
</a>
</g>
</g>
<!-- Node18 -->
<g id="Node000018" class="node">
<title>Node18</title>
<g id="a_Node000018"><a xlink:href="ws2812__control_8h.html" target="_top" xlink:title="ESP&#45;IDF RMT based driver for WS2812 / NeoPixel LED chains.">
<polygon fill="white" stroke="#666666" points="390.54,-129 288.54,-129 288.54,-110 390.54,-110 390.54,-129"/>
<text text-anchor="middle" x="339.54" y="-117" font-family="Helvetica,sans-Serif" font-size="10.00">ws2812_control.h</text>
</a>
</g>
</g>
<!-- Node2&#45;&gt;Node18 -->
<g id="edge17_Node000002_Node000018" class="edge">
<title>Node2&#45;&gt;Node18</title>
<g id="a_edge17_Node000002_Node000018"><a xlink:title=" ">
<path fill="none" stroke="#63b8ff" d="M725.48,-167.52C645.65,-157.8 487.82,-138.57 400.76,-127.96"/>
<polygon fill="#63b8ff" stroke="#63b8ff" points="401.11,-124.48 390.76,-126.74 400.27,-131.43 401.11,-124.48"/>
</a>
</g>
</g>
<!-- Node25 -->
<g id="Node000025" class="node">
<title>Node25</title>
<g id="a_Node000025"><a xlink:title=" ">
<polygon fill="#e0e0e0" stroke="#999999" points="798.04,-129 751.04,-129 751.04,-110 798.04,-110 798.04,-129"/>
<text text-anchor="middle" x="774.54" y="-117" font-family="Helvetica,sans-Serif" font-size="10.00">vector</text>
</a>
</g>
</g>
<!-- Node2&#45;&gt;Node25 -->
<g id="edge28_Node000002_Node000025" class="edge">
<title>Node2&#45;&gt;Node25</title>
<g id="a_edge28_Node000002_Node000025"><a xlink:title=" ">
<path fill="none" stroke="#63b8ff" d="M774.54,-164.75C774.54,-157.8 774.54,-147.85 774.54,-139.13"/>
<polygon fill="#63b8ff" stroke="#63b8ff" points="778.04,-139.09 774.54,-129.09 771.04,-139.09 778.04,-139.09"/>
</a>
</g>
</g>
<!-- Node4 -->
<g id="Node000004" class="node">
<title>Node4</title>
<g id="a_Node000004"><a xlink:title=" ">
<polygon fill="#e0e0e0" stroke="#999999" points="1455.54,-74 1353.54,-74 1353.54,-55 1455.54,-55 1455.54,-74"/>
<text text-anchor="middle" x="1404.54" y="-62" font-family="Helvetica,sans-Serif" font-size="10.00">esp_idf_version.h</text>
</a>
</g>
</g>
<!-- Node3&#45;&gt;Node4 -->
<g id="edge3_Node000003_Node000004" class="edge">
<title>Node3&#45;&gt;Node4</title>
<g id="a_edge3_Node000003_Node000004"><a xlink:title=" ">
<path fill="none" stroke="#63b8ff" d="M965.15,-113.96C1043.24,-106.68 1199.85,-91.55 1343.19,-74.12"/>
<polygon fill="#63b8ff" stroke="#63b8ff" points="1343.99,-77.55 1353.49,-72.86 1343.14,-70.6 1343.99,-77.55"/>
</a>
</g>
</g>
<!-- Node5 -->
<g id="Node000005" class="node">
<title>Node5</title>
<g id="a_Node000005"><a xlink:title=" ">
<polygon fill="#e0e0e0" stroke="#999999" points="656.54,-74 614.54,-74 614.54,-55 656.54,-55 656.54,-74"/>
<text text-anchor="middle" x="635.54" y="-62" font-family="Helvetica,sans-Serif" font-size="10.00">array</text>
</a>
</g>
</g>
<!-- Node3&#45;&gt;Node5 -->
<g id="edge4_Node000003_Node000005" class="edge">
<title>Node3&#45;&gt;Node5</title>
<g id="a_edge4_Node000003_Node000005"><a xlink:title=" ">
<path fill="none" stroke="#63b8ff" d="M865.91,-111.17C817.43,-103.66 741.38,-91.01 666.81,-74.1"/>
<polygon fill="#63b8ff" stroke="#63b8ff" points="667.3,-70.63 656.77,-71.8 665.74,-77.45 667.3,-70.63"/>
</a>
</g>
</g>
<!-- Node6 -->
<g id="Node000006" class="node">
<title>Node6</title>
<g id="a_Node000006"><a xlink:title=" ">
<polygon fill="#e0e0e0" stroke="#999999" points="724.54,-74 674.54,-74 674.54,-55 724.54,-55 724.54,-74"/>
<text text-anchor="middle" x="699.54" y="-62" font-family="Helvetica,sans-Serif" font-size="10.00">atomic</text>
</a>
</g>
</g>
<!-- Node3&#45;&gt;Node6 -->
<g id="edge5_Node000003_Node000006" class="edge">
<title>Node3&#45;&gt;Node6</title>
<g id="a_edge5_Node000003_Node000006"><a xlink:title=" ">
<path fill="none" stroke="#63b8ff" d="M880.29,-109.94C845.63,-101.51 790.93,-88.17 734.58,-74.25"/>
<polygon fill="#63b8ff" stroke="#63b8ff" points="735.33,-70.83 724.78,-71.83 733.65,-77.62 735.33,-70.83"/>
</a>
</g>
</g>
<!-- Node7 -->
<g id="Node000007" class="node">
<title>Node7</title>
<g id="a_Node000007"><a xlink:title=" ">
<polygon fill="#e0e0e0" stroke="#999999" points="796.04,-74 743.04,-74 743.04,-55 796.04,-55 796.04,-74"/>
<text text-anchor="middle" x="769.54" y="-62" font-family="Helvetica,sans-Serif" font-size="10.00">cstddef</text>
</a>
</g>
</g>
<!-- Node3&#45;&gt;Node7 -->
<g id="edge6_Node000003_Node000007" class="edge">
<title>Node3&#45;&gt;Node7</title>
<g id="a_edge6_Node000003_Node000007"><a xlink:title=" ">
<path fill="none" stroke="#63b8ff" d="M892.08,-109.98C867.96,-101.23 830.17,-87.51 802.93,-77.62"/>
<polygon fill="#63b8ff" stroke="#63b8ff" points="804.02,-74.29 793.42,-74.17 801.63,-80.87 804.02,-74.29"/>
</a>
</g>
</g>
<!-- Node3&#45;&gt;Node8 -->
<g id="edge7_Node000003_Node000008" class="edge">
<title>Node3&#45;&gt;Node8</title>
<g id="a_edge7_Node000003_Node000008"><a xlink:title=" ">
<path fill="none" stroke="#63b8ff" d="M865.88,-112.96C806.48,-105.98 703.87,-92.82 606.71,-74.05"/>
<polygon fill="#63b8ff" stroke="#63b8ff" points="607.21,-70.59 596.72,-72.1 605.87,-77.46 607.21,-70.59"/>
</a>
</g>
</g>
<!-- Node9 -->
<g id="Node000009" class="node">
<title>Node9</title>
<g id="a_Node000009"><a xlink:title=" ">
<polygon fill="#e0e0e0" stroke="#999999" points="859.04,-74 814.04,-74 814.04,-55 859.04,-55 859.04,-74"/>
<text text-anchor="middle" x="836.54" y="-62" font-family="Helvetica,sans-Serif" font-size="10.00">utility</text>
</a>
</g>
</g>
<!-- Node3&#45;&gt;Node9 -->
<g id="edge8_Node000003_Node000009" class="edge">
<title>Node3&#45;&gt;Node9</title>
<g id="a_edge8_Node000003_Node000009"><a xlink:title=" ">
<path fill="none" stroke="#63b8ff" d="M902.84,-109.98C890.71,-101.84 872.18,-89.41 857.79,-79.76"/>
<polygon fill="#63b8ff" stroke="#63b8ff" points="859.71,-76.84 849.46,-74.17 855.81,-82.65 859.71,-76.84"/>
</a>
</g>
</g>
<!-- Node10 -->
<g id="Node000010" class="node">
<title>Node10</title>
<g id="a_Node000010"><a xlink:title=" ">
<polygon fill="#e0e0e0" stroke="#999999" points="954.04,-74 877.04,-74 877.04,-55 954.04,-55 954.04,-74"/>
<text text-anchor="middle" x="915.54" y="-62" font-family="Helvetica,sans-Serif" font-size="10.00">esp_check.h</text>
</a>
</g>
</g>
<!-- Node3&#45;&gt;Node10 -->
<g id="edge9_Node000003_Node000010" class="edge">
<title>Node3&#45;&gt;Node10</title>
<g id="a_edge9_Node000003_Node000010"><a xlink:title=" ">
<path fill="none" stroke="#63b8ff" d="M915.54,-109.75C915.54,-102.8 915.54,-92.85 915.54,-84.13"/>
<polygon fill="#63b8ff" stroke="#63b8ff" points="919.04,-84.09 915.54,-74.09 912.04,-84.09 919.04,-84.09"/>
</a>
</g>
</g>
<!-- Node3&#45;&gt;Node11 -->
<g id="edge10_Node000003_Node000011" class="edge">
<title>Node3&#45;&gt;Node11</title>
<g id="a_edge10_Node000003_Node000011"><a xlink:title=" ">
<path fill="none" stroke="#63b8ff" d="M965.35,-116.53C1060.32,-112.31 1273.94,-100.69 1463.66,-73.93"/>
<polygon fill="#63b8ff" stroke="#63b8ff" points="1464.42,-77.36 1473.82,-72.48 1463.43,-70.43 1464.42,-77.36"/>
</a>
</g>
</g>
<!-- Node12 -->
<g id="Node000012" class="node">
<title>Node12</title>
<g id="a_Node000012"><a xlink:title=" ">
<polygon fill="#e0e0e0" stroke="#999999" points="1132.54,-74 1010.54,-74 1010.54,-55 1132.54,-55 1132.54,-74"/>
<text text-anchor="middle" x="1071.54" y="-62" font-family="Helvetica,sans-Serif" font-size="10.00">esp_private/esp_clk.h</text>
</a>
</g>
</g>
<!-- Node3&#45;&gt;Node12 -->
<g id="edge11_Node000003_Node000012" class="edge">
<title>Node3&#45;&gt;Node12</title>
<g id="a_edge11_Node000003_Node000012"><a xlink:title=" ">
<path fill="none" stroke="#63b8ff" d="M940.6,-109.98C966.56,-101.16 1007.35,-87.31 1036.49,-77.41"/>
<polygon fill="#63b8ff" stroke="#63b8ff" points="1037.93,-80.61 1046.28,-74.08 1035.68,-73.99 1037.93,-80.61"/>
</a>
</g>
</g>
<!-- Node13 -->
<g id="Node000013" class="node">
<title>Node13</title>
<g id="a_Node000013"><a xlink:title=" ">
<polygon fill="#e0e0e0" stroke="#999999" points="616.54,-19 498.54,-19 498.54,0 616.54,0 616.54,-19"/>
<text text-anchor="middle" x="557.54" y="-7" font-family="Helvetica,sans-Serif" font-size="10.00">driver/rmt_encoder.h</text>
</a>
</g>
</g>
<!-- Node3&#45;&gt;Node13 -->
<g id="edge12_Node000003_Node000013" class="edge">
<title>Node3&#45;&gt;Node13</title>
<g id="a_edge12_Node000003_Node000013"><a xlink:title=" ">
<path fill="none" stroke="#63b8ff" d="M929.86,-109.89C949.08,-97.31 979.01,-73.39 962.54,-55 940.56,-30.48 736.32,-18.09 626.56,-13.15"/>
<polygon fill="#63b8ff" stroke="#63b8ff" points="626.71,-9.66 616.57,-12.71 626.41,-16.65 626.71,-9.66"/>
</a>
</g>
</g>
<!-- Node14 -->
<g id="Node000014" class="node">
<title>Node14</title>
<g id="a_Node000014"><a xlink:title=" ">
<polygon fill="#e0e0e0" stroke="#999999" points="1336.04,-74 1247.04,-74 1247.04,-55 1336.04,-55 1336.04,-74"/>
<text text-anchor="middle" x="1291.54" y="-62" font-family="Helvetica,sans-Serif" font-size="10.00">driver/rmt_rx.h</text>
</a>
</g>
</g>
<!-- Node3&#45;&gt;Node14 -->
<g id="edge13_Node000003_Node000014" class="edge">
<title>Node3&#45;&gt;Node14</title>
<g id="a_edge13_Node000003_Node000014"><a xlink:title=" ">
<path fill="none" stroke="#63b8ff" d="M965.22,-111.93C1026.53,-103.75 1134.24,-89.18 1236.85,-74.08"/>
<polygon fill="#63b8ff" stroke="#63b8ff" points="1237.38,-77.54 1246.76,-72.61 1236.35,-70.61 1237.38,-77.54"/>
</a>
</g>
</g>
<!-- Node15 -->
<g id="Node000015" class="node">
<title>Node15</title>
<g id="a_Node000015"><a xlink:title=" ">
<polygon fill="#e0e0e0" stroke="#999999" points="528.04,-74 439.04,-74 439.04,-55 528.04,-55 528.04,-74"/>
<text text-anchor="middle" x="483.54" y="-62" font-family="Helvetica,sans-Serif" font-size="10.00">driver/rmt_tx.h</text>
</a>
</g>
</g>
<!-- Node3&#45;&gt;Node15 -->
<g id="edge14_Node000003_Node000015" class="edge">
<title>Node3&#45;&gt;Node15</title>
<g id="a_edge14_Node000003_Node000015"><a xlink:title=" ">
<path fill="none" stroke="#63b8ff" d="M865.93,-113.28C795.51,-105.74 662.3,-90.96 538.35,-74.06"/>
<polygon fill="#63b8ff" stroke="#63b8ff" points="538.69,-70.58 528.31,-72.68 537.74,-77.51 538.69,-70.58"/>
</a>
</g>
</g>
<!-- Node3&#45;&gt;Node16 -->
<g id="edge15_Node000003_Node000016" class="edge">
<title>Node3&#45;&gt;Node16</title>
<g id="a_edge15_Node000003_Node000016"><a xlink:title=" ">
<path fill="none" stroke="#63b8ff" d="M965.44,-115.95C1070.47,-110.38 1322.27,-95.92 1544.8,-74.01"/>
<polygon fill="#63b8ff" stroke="#63b8ff" points="1545.43,-77.46 1555.04,-72.99 1544.74,-70.5 1545.43,-77.46"/>
</a>
</g>
</g>
<!-- Node17 -->
<g id="Node000017" class="node">
<title>Node17</title>
<g id="a_Node000017"><a xlink:title=" ">
<polygon fill="#e0e0e0" stroke="#999999" points="1783.04,-74 1686.04,-74 1686.04,-55 1783.04,-55 1783.04,-74"/>
<text text-anchor="middle" x="1734.54" y="-62" font-family="Helvetica,sans-Serif" font-size="10.00">freertos/queue.h</text>
</a>
</g>
</g>
<!-- Node3&#45;&gt;Node17 -->
<g id="edge16_Node000003_Node000017" class="edge">
<title>Node3&#45;&gt;Node17</title>
<g id="a_edge16_Node000003_Node000017"><a xlink:title=" ">
<path fill="none" stroke="#63b8ff" d="M965.07,-117.1C1085.08,-113.38 1401.1,-101.67 1675.68,-73.98"/>
<polygon fill="#63b8ff" stroke="#63b8ff" points="1676.25,-77.44 1685.84,-72.95 1675.54,-70.48 1676.25,-77.44"/>
</a>
</g>
</g>
<!-- Node18&#45;&gt;Node15 -->
<g id="edge19_Node000018_Node000015" class="edge">
<title>Node18&#45;&gt;Node15</title>
<g id="a_edge19_Node000018_Node000015"><a xlink:title=" ">
<path fill="none" stroke="#63b8ff" d="M362.67,-109.98C386.36,-101.27 423.41,-87.63 450.24,-77.75"/>
<polygon fill="#63b8ff" stroke="#63b8ff" points="451.8,-80.91 459.98,-74.17 449.39,-74.34 451.8,-80.91"/>
</a>
</g>
</g>
<!-- Node19 -->
<g id="Node000019" class="node">
<title>Node19</title>
<g id="a_Node000019"><a xlink:title=" ">
<polygon fill="#e0e0e0" stroke="#999999" points="1228.54,-74 1150.54,-74 1150.54,-55 1228.54,-55 1228.54,-74"/>
<text text-anchor="middle" x="1189.54" y="-62" font-family="Helvetica,sans-Serif" font-size="10.00">driver/gpio.h</text>
</a>
</g>
</g>
<!-- Node18&#45;&gt;Node19 -->
<g id="edge18_Node000018_Node000019" class="edge">
<title>Node18&#45;&gt;Node19</title>
<g id="a_edge18_Node000018_Node000019"><a xlink:title=" ">
<path fill="none" stroke="#63b8ff" d="M390.85,-117.78C516.8,-115.56 851.33,-106.91 1140.05,-74.02"/>
<polygon fill="#63b8ff" stroke="#63b8ff" points="1140.77,-77.46 1150.3,-72.84 1139.97,-70.51 1140.77,-77.46"/>
</a>
</g>
</g>
<!-- Node20 -->
<g id="Node000020" class="node">
<title>Node20</title>
<g id="a_Node000020"><a xlink:title=" ">
<polygon fill="#e0e0e0" stroke="#999999" points="342.04,-74 235.04,-74 235.04,-55 342.04,-55 342.04,-74"/>
<text text-anchor="middle" x="288.54" y="-62" font-family="Helvetica,sans-Serif" font-size="10.00">driver/rmt_types.h</text>
</a>
</g>
</g>
<!-- Node18&#45;&gt;Node20 -->
<g id="edge20_Node000018_Node000020" class="edge">
<title>Node18&#45;&gt;Node20</title>
<g id="a_edge20_Node000018_Node000020"><a xlink:title=" ">
<path fill="none" stroke="#63b8ff" d="M331.12,-109.75C323.76,-102.11 312.9,-90.82 303.99,-81.56"/>
<polygon fill="#63b8ff" stroke="#63b8ff" points="306.26,-78.87 296.8,-74.09 301.21,-83.72 306.26,-78.87"/>
</a>
</g>
</g>
<!-- Node21 -->
<g id="Node000021" class="node">
<title>Node21</title>
<g id="a_Node000021"><a xlink:title=" ">
<polygon fill="#e0e0e0" stroke="#999999" points="421.04,-74 360.04,-74 360.04,-55 421.04,-55 421.04,-74"/>
<text text-anchor="middle" x="390.54" y="-62" font-family="Helvetica,sans-Serif" font-size="10.00">esp_err.h</text>
</a>
</g>
</g>
<!-- Node18&#45;&gt;Node21 -->
<g id="edge21_Node000018_Node000021" class="edge">
<title>Node18&#45;&gt;Node21</title>
<g id="a_edge21_Node000018_Node000021"><a xlink:title=" ">
<path fill="none" stroke="#63b8ff" d="M347.96,-109.75C355.31,-102.11 366.17,-90.82 375.08,-81.56"/>
<polygon fill="#63b8ff" stroke="#63b8ff" points="377.86,-83.72 382.27,-74.09 372.82,-78.87 377.86,-83.72"/>
</a>
</g>
</g>
<!-- Node22 -->
<g id="Node000022" class="node">
<title>Node22</title>
<g id="a_Node000022"><a xlink:href="led__strip__encoder_8h.html" target="_top" xlink:title=" ">
<polygon fill="white" stroke="#666666" points="126.04,-74 15.04,-74 15.04,-55 126.04,-55 126.04,-74"/>
<text text-anchor="middle" x="70.54" y="-62" font-family="Helvetica,sans-Serif" font-size="10.00">led_strip_encoder.h</text>
</a>
</g>
</g>
<!-- Node18&#45;&gt;Node22 -->
<g id="edge22_Node000018_Node000022" class="edge">
<title>Node18&#45;&gt;Node22</title>
<g id="a_edge22_Node000018_Node000022"><a xlink:title=" ">
<path fill="none" stroke="#63b8ff" d="M296.32,-109.98C249.49,-100.76 174.72,-86.03 124.18,-76.07"/>
<polygon fill="#63b8ff" stroke="#63b8ff" points="124.58,-72.58 114.1,-74.08 123.23,-79.45 124.58,-72.58"/>
</a>
</g>
</g>
<!-- Node23 -->
<g id="Node000023" class="node">
<title>Node23</title>
<g id="a_Node000023"><a xlink:title=" ">
<polygon fill="#e0e0e0" stroke="#999999" points="55.04,-19 2.04,-19 2.04,0 55.04,0 55.04,-19"/>
<text text-anchor="middle" x="28.54" y="-7" font-family="Helvetica,sans-Serif" font-size="10.00">stdint.h</text>
</a>
</g>
</g>
<!-- Node18&#45;&gt;Node23 -->
<g id="edge26_Node000018_Node000023" class="edge">
<title>Node18&#45;&gt;Node23</title>
<g id="a_edge26_Node000018_Node000023"><a xlink:title=" ">
<path fill="none" stroke="#63b8ff" d="M288.38,-115.34C199.42,-109.33 23.87,-94.93 5.54,-74 -6,-60.83 3.75,-41.42 13.87,-27.54"/>
<polygon fill="#63b8ff" stroke="#63b8ff" points="16.9,-29.34 20.36,-19.33 11.41,-25 16.9,-29.34"/>
</a>
</g>
</g>
<!-- Node24 -->
<g id="Node000024" class="node">
<title>Node24</title>
<g id="a_Node000024"><a xlink:title=" ">
<polygon fill="#e0e0e0" stroke="#999999" points="216.54,-74 144.54,-74 144.54,-55 216.54,-55 216.54,-74"/>
<text text-anchor="middle" x="180.54" y="-62" font-family="Helvetica,sans-Serif" font-size="10.00">sdkconfig.h</text>
</a>
</g>
</g>
<!-- Node18&#45;&gt;Node24 -->
<g id="edge25_Node000018_Node000024" class="edge">
<title>Node18&#45;&gt;Node24</title>
<g id="a_edge25_Node000018_Node000024"><a xlink:title=" ">
<path fill="none" stroke="#63b8ff" d="M313.99,-109.98C287.41,-101.13 245.6,-87.19 215.86,-77.28"/>
<polygon fill="#63b8ff" stroke="#63b8ff" points="216.88,-73.92 206.28,-74.08 214.66,-80.56 216.88,-73.92"/>
</a>
</g>
</g>
<!-- Node22&#45;&gt;Node13 -->
<g id="edge23_Node000022_Node000013" class="edge">
<title>Node22&#45;&gt;Node13</title>
<g id="a_edge23_Node000022_Node000013"><a xlink:title=" ">
<path fill="none" stroke="#63b8ff" d="M126.19,-56.13C129.35,-55.74 132.49,-55.36 135.54,-55 259.67,-40.34 404.64,-25.57 488.29,-17.27"/>
<polygon fill="#63b8ff" stroke="#63b8ff" points="488.82,-20.73 498.43,-16.26 488.13,-13.77 488.82,-20.73"/>
</a>
</g>
</g>
<!-- Node22&#45;&gt;Node23 -->
<g id="edge24_Node000022_Node000023" class="edge">
<title>Node22&#45;&gt;Node23</title>
<g id="a_edge24_Node000022_Node000023"><a xlink:title=" ">
<path fill="none" stroke="#63b8ff" d="M63.6,-54.75C57.67,-47.26 48.96,-36.28 41.71,-27.13"/>
<polygon fill="#63b8ff" stroke="#63b8ff" points="44.3,-24.75 35.34,-19.09 38.81,-29.1 44.3,-24.75"/>
</a>
</g>
</g>
<!-- Node26&#45;&gt;Node11 -->
<g id="edge30_Node000026_Node000011" class="edge">
<title>Node26&#45;&gt;Node11</title>
<g id="a_edge30_Node000026_Node000011"><a xlink:title=" ">
<path fill="none" stroke="#63b8ff" d="M1659.97,-109.98C1628.82,-101.01 1579.56,-86.82 1545.08,-76.89"/>
<polygon fill="#63b8ff" stroke="#63b8ff" points="1545.91,-73.49 1535.33,-74.08 1543.97,-80.21 1545.91,-73.49"/>
</a>
</g>
</g>
<!-- Node26&#45;&gt;Node16 -->
<g id="edge33_Node000026_Node000016" class="edge">
<title>Node26&#45;&gt;Node16</title>
<g id="a_edge33_Node000026_Node000016"><a xlink:title=" ">
<path fill="none" stroke="#63b8ff" d="M1677,-109.98C1665.14,-101.92 1647.07,-89.65 1632.92,-80.03"/>
<polygon fill="#63b8ff" stroke="#63b8ff" points="1634.54,-76.9 1624.3,-74.17 1630.6,-82.69 1634.54,-76.9"/>
</a>
</g>
</g>
<!-- Node26&#45;&gt;Node17 -->
<g id="edge34_Node000026_Node000017" class="edge">
<title>Node26&#45;&gt;Node17</title>
<g id="a_edge34_Node000026_Node000017"><a xlink:title=" ">
<path fill="none" stroke="#63b8ff" d="M1696.97,-109.75C1703.39,-102.18 1712.84,-91.05 1720.66,-81.84"/>
<polygon fill="#63b8ff" stroke="#63b8ff" points="1723.44,-83.98 1727.24,-74.09 1718.1,-79.45 1723.44,-83.98"/>
</a>
</g>
</g>
<!-- Node26&#45;&gt;Node19 -->
<g id="edge32_Node000026_Node000019" class="edge">
<title>Node26&#45;&gt;Node19</title>
<g id="a_edge32_Node000026_Node000019"><a xlink:title=" ">
<path fill="none" stroke="#63b8ff" d="M1639.22,-114.82C1557.4,-108.56 1390.22,-94.6 1238.74,-74.07"/>
<polygon fill="#63b8ff" stroke="#63b8ff" points="1239.17,-70.59 1228.79,-72.71 1238.22,-77.53 1239.17,-70.59"/>
</a>
</g>
</g>
<!-- Node27 -->
<g id="Node000027" class="node">
<title>Node27</title>
<g id="a_Node000027"><a xlink:title=" ">
<polygon fill="#e0e0e0" stroke="#999999" points="1996.54,-74 1922.54,-74 1922.54,-55 1996.54,-55 1996.54,-74"/>
<text text-anchor="middle" x="1959.54" y="-62" font-family="Helvetica,sans-Serif" font-size="10.00">esp_timer.h</text>
</a>
</g>
</g>
<!-- Node26&#45;&gt;Node27 -->
<g id="edge31_Node000026_Node000027" class="edge">
<title>Node26&#45;&gt;Node27</title>
<g id="a_edge31_Node000026_Node000027"><a xlink:title=" ">
<path fill="none" stroke="#63b8ff" d="M1732.92,-109.98C1782.01,-100.35 1861.7,-84.71 1912.32,-74.77"/>
<polygon fill="#63b8ff" stroke="#63b8ff" points="1913.21,-78.16 1922.35,-72.8 1911.86,-71.29 1913.21,-78.16"/>
</a>
</g>
</g>
<!-- Node28 -->
<g id="Node000028" class="node">
<title>Node28</title>
<g id="a_Node000028"><a xlink:title=" ">
<polygon fill="#e0e0e0" stroke="#999999" points="1904.04,-74 1801.04,-74 1801.04,-55 1904.04,-55 1904.04,-74"/>
<text text-anchor="middle" x="1852.54" y="-62" font-family="Helvetica,sans-Serif" font-size="10.00">freertos/semphr.h</text>
</a>
</g>
</g>
<!-- Node26&#45;&gt;Node28 -->
<g id="edge35_Node000026_Node000028" class="edge">
<title>Node26&#45;&gt;Node28</title>
<g id="a_edge35_Node000026_Node000028"><a xlink:title=" ">
<path fill="none" stroke="#63b8ff" d="M1715.73,-109.98C1742.97,-101.13 1785.84,-87.19 1816.32,-77.28"/>
<polygon fill="#63b8ff" stroke="#63b8ff" points="1817.72,-80.5 1826.14,-74.08 1815.55,-73.85 1817.72,-80.5"/>
</a>
</g>
</g>
<!-- Node26&#45;&gt;Node29 -->
<g id="edge36_Node000026_Node000029" class="edge">
<title>Node26&#45;&gt;Node29</title>
<g id="a_edge36_Node000026_Node000029"><a xlink:title=" ">
<path fill="none" stroke="#63b8ff" d="M1739.66,-111.74C1800,-103.54 1904.7,-89.1 2004.36,-74.15"/>
<polygon fill="#63b8ff" stroke="#63b8ff" points="2004.93,-77.61 2014.3,-72.66 2003.89,-70.69 2004.93,-77.61"/>
</a>
</g>
</g>
</g>
</svg>
