<?xml version="1.0" encoding="UTF-8" standalone="no"?>
<!DOCTYPE svg PUBLIC "-//W3C//DTD SVG 1.1//EN"
 "http://www.w3.org/Graphics/SVG/1.1/DTD/svg11.dtd">
<!-- Generated by graphviz version 2.43.0 (0)
 -->
<!-- Title: inc/led_strip_encoder.h Pages: 1 -->
<svg width="559pt" height="313pt"
 viewBox="0.00 0.00 559.00 313.00" xmlns="http://www.w3.org/2000/svg" xmlns:xlink="http://www.w3.org/1999/xlink">
<g id="graph0" class="graph" transform="scale(1 1) rotate(0) translate(4 309)">
<title>inc/led_strip_encoder.h</title>
<!-- Node1 -->
<g id="Node000001" class="node">
<title>Node1</title>
<g id="a_Node000001"><a xlink:title=" ">
<polygon fill="#999999" stroke="#666666" points="459,-305 331,-305 331,-286 459,-286 459,-305"/>
<text text-anchor="middle" x="395" y="-293" font-family="Helvetica,sans-Serif" font-size="10.00">inc/led_strip_encoder.h</text>
</a>
</g>
</g>
<!-- Node2 -->
<g id="Node000002" class="node">
<title>Node2</title>
<g id="a_Node000002"><a xlink:href="ws2812__control_8h.html" target="_top" xlink:title="ESP&#45;IDF RMT based driver for WS2812 / NeoPixel LED chains.">
<polygon fill="white" stroke="#666666" points="366.5,-250 247.5,-250 247.5,-231 366.5,-231 366.5,-250"/>
<text text-anchor="middle" x="307" y="-238" font-family="Helvetica,sans-Serif" font-size="10.00">inc/ws2812_control.h</text>
</a>
</g>
</g>
<!-- Node1&#45;&gt;Node2 -->
<g id="edge1_Node000001_Node000002" class="edge">
<title>Node1&#45;&gt;Node2</title>
<g id="a_edge1_Node000001_Node000002"><a xlink:title=" ">
<path fill="none" stroke="#63b8ff" d="M372.08,-280.7C356.05,-271.04 335.13,-258.44 321.4,-250.17"/>
<polygon fill="#63b8ff" stroke="#63b8ff" points="370.49,-283.82 380.86,-285.98 374.1,-277.83 370.49,-283.82"/>
</a>
</g>
</g>
<!-- Node10 -->
<g id="Node000010" class="node">
<title>Node10</title>
<g id="a_Node000010"><a xlink:href="ws2812__control_8c.html" target="_top" xlink:title=" ">
<polygon fill="white" stroke="#666666" points="454.5,-195 335.5,-195 335.5,-176 454.5,-176 454.5,-195"/>
<text text-anchor="middle" x="395" y="-183" font-family="Helvetica,sans-Serif" font-size="10.00">src/ws2812_control.c</text>
</a>
</g>
</g>
<!-- Node1&#45;&gt;Node10 -->
<g id="edge11_Node000001_Node000010" class="edge">
<title>Node1&#45;&gt;Node10</title>
<g id="a_edge11_Node000001_Node000010"><a xlink:title=" ">
<path fill="none" stroke="#63b8ff" d="M395,-275.48C395,-251.84 395,-212.5 395,-195.16"/>
<polygon fill="#63b8ff" stroke="#63b8ff" points="391.5,-275.66 395,-285.66 398.5,-275.66 391.5,-275.66"/>
</a>
</g>
</g>
<!-- Node11 -->
<g id="Node000011" class="node">
<title>Node11</title>
<g id="a_Node000011"><a xlink:href="led__strip__encoder_8c.html" target="_top" xlink:title=" ">
<polygon fill="white" stroke="#666666" points="551,-250 423,-250 423,-231 551,-231 551,-250"/>
<text text-anchor="middle" x="487" y="-238" font-family="Helvetica,sans-Serif" font-size="10.00">src/led_strip_encoder.c</text>
</a>
</g>
</g>
<!-- Node1&#45;&gt;Node11 -->
<g id="edge10_Node000001_Node000011" class="edge">
<title>Node1&#45;&gt;Node11</title>
<g id="a_edge10_Node000001_Node000011"><a xlink:title=" ">
<path fill="none" stroke="#63b8ff" d="M418.49,-280.97C435.31,-271.28 457.45,-258.52 471.95,-250.17"/>
<polygon fill="#63b8ff" stroke="#63b8ff" points="416.7,-277.96 409.78,-285.98 420.19,-284.03 416.7,-277.96"/>
</a>
</g>
</g>
<!-- Node3 -->
<g id="Node000003" class="node">
<title>Node3</title>
<g id="a_Node000003"><a xlink:href="ws2812__cpp_8hpp.html" target="_top" xlink:title=" ">
<polygon fill="white" stroke="#666666" points="317.5,-195 202.5,-195 202.5,-176 317.5,-176 317.5,-195"/>
<text text-anchor="middle" x="260" y="-183" font-family="Helvetica,sans-Serif" font-size="10.00">inc/ws2812_cpp.hpp</text>
</a>
</g>
</g>
<!-- Node2&#45;&gt;Node3 -->
<g id="edge2_Node000002_Node000003" class="edge">
<title>Node2&#45;&gt;Node3</title>
<g id="a_edge2_Node000002_Node000003"><a xlink:title=" ">
<path fill="none" stroke="#63b8ff" d="M292.58,-223.24C284.34,-213.95 274.35,-202.68 267.62,-195.09"/>
<polygon fill="#63b8ff" stroke="#63b8ff" points="289.99,-225.59 299.24,-230.75 295.22,-220.94 289.99,-225.59"/>
</a>
</g>
</g>
<!-- Node2&#45;&gt;Node10 -->
<g id="edge9_Node000002_Node000010" class="edge">
<title>Node2&#45;&gt;Node10</title>
<g id="a_edge9_Node000002_Node000010"><a xlink:title=" ">
<path fill="none" stroke="#63b8ff" d="M329.92,-225.7C345.95,-216.04 366.87,-203.44 380.6,-195.17"/>
<polygon fill="#63b8ff" stroke="#63b8ff" points="327.9,-222.83 321.14,-230.98 331.51,-228.82 327.9,-222.83"/>
</a>
</g>
</g>
<!-- Node4 -->
<g id="Node000004" class="node">
<title>Node4</title>
<g id="a_Node000004"><a xlink:href="WS2812ComprehensiveTest_8cpp.html" target="_top" xlink:title="Comprehensive test suite for WS2812 driver on ESP32&#45;C6.">
<polygon fill="white" stroke="#666666" points="176,-140 0,-140 0,-110 176,-110 176,-140"/>
<text text-anchor="start" x="8" y="-128" font-family="Helvetica,sans-Serif" font-size="10.00">examples/esp32/main</text>
<text text-anchor="middle" x="88" y="-117" font-family="Helvetica,sans-Serif" font-size="10.00">/WS2812ComprehensiveTest.cpp</text>
</a>
</g>
</g>
<!-- Node3&#45;&gt;Node4 -->
<g id="edge3_Node000003_Node000004" class="edge">
<title>Node3&#45;&gt;Node4</title>
<g id="a_edge3_Node000003_Node000004"><a xlink:title=" ">
<path fill="none" stroke="#63b8ff" d="M225.33,-172.71C197.61,-163.28 158.69,-150.04 129.35,-140.06"/>
<polygon fill="#63b8ff" stroke="#63b8ff" points="224.4,-176.09 234.99,-175.99 226.65,-169.46 224.4,-176.09"/>
</a>
</g>
</g>
<!-- Node5 -->
<g id="Node000005" class="node">
<title>Node5</title>
<g id="a_Node000005"><a xlink:href="ws2812__effects_8hpp.html" target="_top" xlink:title=" ">
<polygon fill="white" stroke="#666666" points="325.5,-134.5 194.5,-134.5 194.5,-115.5 325.5,-115.5 325.5,-134.5"/>
<text text-anchor="middle" x="260" y="-122.5" font-family="Helvetica,sans-Serif" font-size="10.00">inc/ws2812_effects.hpp</text>
</a>
</g>
</g>
<!-- Node3&#45;&gt;Node5 -->
<g id="edge4_Node000003_Node000005" class="edge">
<title>Node3&#45;&gt;Node5</title>
<g id="a_edge4_Node000003_Node000005"><a xlink:title=" ">
<path fill="none" stroke="#63b8ff" d="M260,-165.66C260,-155.24 260,-142.8 260,-134.67"/>
<polygon fill="#63b8ff" stroke="#63b8ff" points="256.5,-165.87 260,-175.87 263.5,-165.87 256.5,-165.87"/>
</a>
</g>
</g>
<!-- Node9 -->
<g id="Node000009" class="node">
<title>Node9</title>
<g id="a_Node000009"><a xlink:href="ws2812__cpp_8cpp.html" target="_top" xlink:title=" ">
<polygon fill="white" stroke="#666666" points="458,-134.5 344,-134.5 344,-115.5 458,-115.5 458,-134.5"/>
<text text-anchor="middle" x="401" y="-122.5" font-family="Helvetica,sans-Serif" font-size="10.00">src/ws2812_cpp.cpp</text>
</a>
</g>
</g>
<!-- Node3&#45;&gt;Node9 -->
<g id="edge8_Node000003_Node000009" class="edge">
<title>Node3&#45;&gt;Node9</title>
<g id="a_edge8_Node000003_Node000009"><a xlink:title=" ">
<path fill="none" stroke="#63b8ff" d="M289.93,-172.08C317.17,-160.78 356.65,-144.4 380.47,-134.52"/>
<polygon fill="#63b8ff" stroke="#63b8ff" points="288.4,-168.93 280.5,-175.99 291.08,-175.39 288.4,-168.93"/>
</a>
</g>
</g>
<!-- Node6 -->
<g id="Node000006" class="node">
<title>Node6</title>
<g id="a_Node000006"><a xlink:href="ws2812__multi__animator_8hpp.html" target="_top" xlink:title=" ">
<polygon fill="white" stroke="#666666" points="261,-74 89,-74 89,-55 261,-55 261,-74"/>
<text text-anchor="middle" x="175" y="-62" font-family="Helvetica,sans-Serif" font-size="10.00">inc/ws2812_multi_animator.hpp</text>
</a>
</g>
</g>
<!-- Node5&#45;&gt;Node6 -->
<g id="edge5_Node000005_Node000006" class="edge">
<title>Node5&#45;&gt;Node6</title>
<g id="a_edge5_Node000005_Node000006"><a xlink:title=" ">
<path fill="none" stroke="#63b8ff" d="M239.16,-109.66C223.01,-98.55 201.17,-83.51 187.59,-74.17"/>
<polygon fill="#63b8ff" stroke="#63b8ff" points="237.24,-112.58 247.46,-115.37 241.2,-106.82 237.24,-112.58"/>
</a>
</g>
</g>
<!-- Node8 -->
<g id="Node000008" class="node">
<title>Node8</title>
<g id="a_Node000008"><a xlink:href="ws2812__effects_8cpp.html" target="_top" xlink:title=" ">
<polygon fill="white" stroke="#666666" points="409,-74 279,-74 279,-55 409,-55 409,-74"/>
<text text-anchor="middle" x="344" y="-62" font-family="Helvetica,sans-Serif" font-size="10.00">src/ws2812_effects.cpp</text>
</a>
</g>
</g>
<!-- Node5&#45;&gt;Node8 -->
<g id="edge7_Node000005_Node000008" class="edge">
<title>Node5&#45;&gt;Node8</title>
<g id="a_edge7_Node000005_Node000008"><a xlink:title=" ">
<path fill="none" stroke="#63b8ff" d="M281.04,-109.35C296.95,-98.27 318.26,-83.43 331.55,-74.17"/>
<polygon fill="#63b8ff" stroke="#63b8ff" points="278.6,-106.78 272.39,-115.37 282.6,-112.53 278.6,-106.78"/>
</a>
</g>
</g>
<!-- Node7 -->
<g id="Node000007" class="node">
<title>Node7</title>
<g id="a_Node000007"><a xlink:href="ws2812__multi__animator_8cpp.html" target="_top" xlink:title=" ">
<polygon fill="white" stroke="#666666" points="260.5,-19 89.5,-19 89.5,0 260.5,0 260.5,-19"/>
<text text-anchor="middle" x="175" y="-7" font-family="Helvetica,sans-Serif" font-size="10.00">src/ws2812_multi_animator.cpp</text>
</a>
</g>
</g>
<!-- Node6&#45;&gt;Node7 -->
<g id="edge6_Node000006_Node000007" class="edge">
<title>Node6&#45;&gt;Node7</title>
<g id="a_edge6_Node000006_Node000007"><a xlink:title=" ">
<path fill="none" stroke="#63b8ff" d="M175,-44.66C175,-35.93 175,-25.99 175,-19.09"/>
<polygon fill="#63b8ff" stroke="#63b8ff" points="171.5,-44.75 175,-54.75 178.5,-44.75 171.5,-44.75"/>
</a>
</g>
</g>
</g>
</svg>
