<?xml version="1.0" encoding="UTF-8" standalone="no"?>
<!DOCTYPE svg PUBLIC "-//W3C//DTD SVG 1.1//EN"
 "http://www.w3.org/Graphics/SVG/1.1/DTD/svg11.dtd">
<!-- Generated by graphviz version 2.43.0 (0)
 -->
<!-- Title: inc/ws2812_control.h Pages: 1 -->
<svg width="466pt" height="258pt"
 viewBox="0.00 0.00 466.00 258.00" xmlns="http://www.w3.org/2000/svg" xmlns:xlink="http://www.w3.org/1999/xlink">
<g id="graph0" class="graph" transform="scale(1 1) rotate(0) translate(4 254)">
<title>inc/ws2812_control.h</title>
<!-- Node1 -->
<g id="Node000001" class="node">
<title>Node1</title>
<g id="a_Node000001"><a xlink:title="ESP&#45;IDF RMT based driver for WS2812 / NeoPixel LED chains.">
<polygon fill="#999999" stroke="#666666" points="386.5,-250 267.5,-250 267.5,-231 386.5,-231 386.5,-250"/>
<text text-anchor="middle" x="327" y="-238" font-family="Helvetica,sans-Serif" font-size="10.00">inc/ws2812_control.h</text>
</a>
</g>
</g>
<!-- Node2 -->
<g id="Node000002" class="node">
<title>Node2</title>
<g id="a_Node000002"><a xlink:href="ws2812__cpp_8hpp.html" target="_top" xlink:title="C++ wrapper for the HF&#45;WS2812 RMT LED driver.">
<polygon fill="white" stroke="#666666" points="317.5,-195 202.5,-195 202.5,-176 317.5,-176 317.5,-195"/>
<text text-anchor="middle" x="260" y="-183" font-family="Helvetica,sans-Serif" font-size="10.00">inc/ws2812_cpp.hpp</text>
</a>
</g>
</g>
<!-- Node1&#45;&gt;Node2 -->
<g id="edge1_Node000001_Node000002" class="edge">
<title>Node1&#45;&gt;Node2</title>
<g id="a_edge1_Node000001_Node000002"><a xlink:title=" ">
<path fill="none" stroke="#63b8ff" d="M308.17,-224.6C296.16,-215.11 281.03,-203.13 270.96,-195.17"/>
<polygon fill="#63b8ff" stroke="#63b8ff" points="306.22,-227.53 316.24,-230.98 310.56,-222.04 306.22,-227.53"/>
</a>
</g>
</g>
<!-- Node9 -->
<g id="Node000009" class="node">
<title>Node9</title>
<g id="a_Node000009"><a xlink:href="ws2812__control_8c.html" target="_top" xlink:title=" ">
<polygon fill="white" stroke="#666666" points="454.5,-195 335.5,-195 335.5,-176 454.5,-176 454.5,-195"/>
<text text-anchor="middle" x="395" y="-183" font-family="Helvetica,sans-Serif" font-size="10.00">src/ws2812_control.c</text>
</a>
</g>
</g>
<!-- Node1&#45;&gt;Node9 -->
<g id="edge8_Node000001_Node000009" class="edge">
<title>Node1&#45;&gt;Node9</title>
<g id="a_edge8_Node000001_Node000009"><a xlink:title=" ">
<path fill="none" stroke="#63b8ff" d="M346.12,-224.6C358.3,-215.11 373.66,-203.13 383.88,-195.17"/>
<polygon fill="#63b8ff" stroke="#63b8ff" points="343.66,-222.08 337.93,-230.98 347.96,-227.6 343.66,-222.08"/>
</a>
</g>
</g>
<!-- Node3 -->
<g id="Node000003" class="node">
<title>Node3</title>
<g id="a_Node000003"><a xlink:href="WS2812ComprehensiveTest_8cpp.html" target="_top" xlink:title="Comprehensive test suite for WS2812 driver on ESP32&#45;C6.">
<polygon fill="white" stroke="#666666" points="176,-140 0,-140 0,-110 176,-110 176,-140"/>
<text text-anchor="start" x="8" y="-128" font-family="Helvetica,sans-Serif" font-size="10.00">examples/esp32/main</text>
<text text-anchor="middle" x="88" y="-117" font-family="Helvetica,sans-Serif" font-size="10.00">/WS2812ComprehensiveTest.cpp</text>
</a>
</g>
</g>
<!-- Node2&#45;&gt;Node3 -->
<g id="edge2_Node000002_Node000003" class="edge">
<title>Node2&#45;&gt;Node3</title>
<g id="a_edge2_Node000002_Node000003"><a xlink:title=" ">
<path fill="none" stroke="#63b8ff" d="M225.33,-172.71C197.61,-163.28 158.69,-150.04 129.35,-140.06"/>
<polygon fill="#63b8ff" stroke="#63b8ff" points="224.4,-176.09 234.99,-175.99 226.65,-169.46 224.4,-176.09"/>
</a>
</g>
</g>
<!-- Node4 -->
<g id="Node000004" class="node">
<title>Node4</title>
<g id="a_Node000004"><a xlink:href="ws2812__effects_8hpp.html" target="_top" xlink:title="LED animation effects for WS2812 strips.">
<polygon fill="white" stroke="#666666" points="325.5,-134.5 194.5,-134.5 194.5,-115.5 325.5,-115.5 325.5,-134.5"/>
<text text-anchor="middle" x="260" y="-122.5" font-family="Helvetica,sans-Serif" font-size="10.00">inc/ws2812_effects.hpp</text>
</a>
</g>
</g>
<!-- Node2&#45;&gt;Node4 -->
<g id="edge3_Node000002_Node000004" class="edge">
<title>Node2&#45;&gt;Node4</title>
<g id="a_edge3_Node000002_Node000004"><a xlink:title=" ">
<path fill="none" stroke="#63b8ff" d="M260,-165.66C260,-155.24 260,-142.8 260,-134.67"/>
<polygon fill="#63b8ff" stroke="#63b8ff" points="256.5,-165.87 260,-175.87 263.5,-165.87 256.5,-165.87"/>
</a>
</g>
</g>
<!-- Node8 -->
<g id="Node000008" class="node">
<title>Node8</title>
<g id="a_Node000008"><a xlink:href="ws2812__cpp_8cpp.html" target="_top" xlink:title="WS2812Strip C++ wrapper implementation.">
<polygon fill="white" stroke="#666666" points="458,-134.5 344,-134.5 344,-115.5 458,-115.5 458,-134.5"/>
<text text-anchor="middle" x="401" y="-122.5" font-family="Helvetica,sans-Serif" font-size="10.00">src/ws2812_cpp.cpp</text>
</a>
</g>
</g>
<!-- Node2&#45;&gt;Node8 -->
<g id="edge7_Node000002_Node000008" class="edge">
<title>Node2&#45;&gt;Node8</title>
<g id="a_edge7_Node000002_Node000008"><a xlink:title=" ">
<path fill="none" stroke="#63b8ff" d="M289.93,-172.08C317.17,-160.78 356.65,-144.4 380.47,-134.52"/>
<polygon fill="#63b8ff" stroke="#63b8ff" points="288.4,-168.93 280.5,-175.99 291.08,-175.39 288.4,-168.93"/>
</a>
</g>
</g>
<!-- Node5 -->
<g id="Node000005" class="node">
<title>Node5</title>
<g id="a_Node000005"><a xlink:href="ws2812__multi__animator_8hpp.html" target="_top" xlink:title=" ">
<polygon fill="white" stroke="#666666" points="261,-74 89,-74 89,-55 261,-55 261,-74"/>
<text text-anchor="middle" x="175" y="-62" font-family="Helvetica,sans-Serif" font-size="10.00">inc/ws2812_multi_animator.hpp</text>
</a>
</g>
</g>
<!-- Node4&#45;&gt;Node5 -->
<g id="edge4_Node000004_Node000005" class="edge">
<title>Node4&#45;&gt;Node5</title>
<g id="a_edge4_Node000004_Node000005"><a xlink:title=" ">
<path fill="none" stroke="#63b8ff" d="M239.16,-109.66C223.01,-98.55 201.17,-83.51 187.59,-74.17"/>
<polygon fill="#63b8ff" stroke="#63b8ff" points="237.24,-112.58 247.46,-115.37 241.2,-106.82 237.24,-112.58"/>
</a>
</g>
</g>
<!-- Node7 -->
<g id="Node000007" class="node">
<title>Node7</title>
<g id="a_Node000007"><a xlink:href="ws2812__effects_8cpp.html" target="_top" xlink:title="LED animation effects implementation.">
<polygon fill="white" stroke="#666666" points="409,-74 279,-74 279,-55 409,-55 409,-74"/>
<text text-anchor="middle" x="344" y="-62" font-family="Helvetica,sans-Serif" font-size="10.00">src/ws2812_effects.cpp</text>
</a>
</g>
</g>
<!-- Node4&#45;&gt;Node7 -->
<g id="edge6_Node000004_Node000007" class="edge">
<title>Node4&#45;&gt;Node7</title>
<g id="a_edge6_Node000004_Node000007"><a xlink:title=" ">
<path fill="none" stroke="#63b8ff" d="M281.04,-109.35C296.95,-98.27 318.26,-83.43 331.55,-74.17"/>
<polygon fill="#63b8ff" stroke="#63b8ff" points="278.6,-106.78 272.39,-115.37 282.6,-112.53 278.6,-106.78"/>
</a>
</g>
</g>
<!-- Node6 -->
<g id="Node000006" class="node">
<title>Node6</title>
<g id="a_Node000006"><a xlink:href="ws2812__multi__animator_8cpp.html" target="_top" xlink:title="Multi&#45;strip animation coordinator implementation.">
<polygon fill="white" stroke="#666666" points="260.5,-19 89.5,-19 89.5,0 260.5,0 260.5,-19"/>
<text text-anchor="middle" x="175" y="-7" font-family="Helvetica,sans-Serif" font-size="10.00">src/ws2812_multi_animator.cpp</text>
</a>
</g>
</g>
<!-- Node5&#45;&gt;Node6 -->
<g id="edge5_Node000005_Node000006" class="edge">
<title>Node5&#45;&gt;Node6</title>
<g id="a_edge5_Node000005_Node000006"><a xlink:title=" ">
<path fill="none" stroke="#63b8ff" d="M175,-44.66C175,-35.93 175,-25.99 175,-19.09"/>
<polygon fill="#63b8ff" stroke="#63b8ff" points="171.5,-44.75 175,-54.75 178.5,-44.75 171.5,-44.75"/>
</a>
</g>
</g>
</g>
</svg>
