<?xml version="1.0" encoding="UTF-8" standalone="no"?>
<!DOCTYPE svg PUBLIC "-//W3C//DTD SVG 1.1//EN"
 "http://www.w3.org/Graphics/SVG/1.1/DTD/svg11.dtd">
<!-- Generated by graphviz version 2.43.0 (0)
 -->
<!-- Title: inc/ws2812_effects.hpp Pages: 1 -->
<svg width="328pt" height="137pt"
 viewBox="0.00 0.00 328.00 137.00" xmlns="http://www.w3.org/2000/svg" xmlns:xlink="http://www.w3.org/1999/xlink">
<g id="graph0" class="graph" transform="scale(1 1) rotate(0) translate(4 133)">
<title>inc/ws2812_effects.hpp</title>
<!-- Node1 -->
<g id="Node000001" class="node">
<title>Node1</title>
<g id="a_Node000001"><a xlink:title="LED animation effects for WS2812 strips.">
<polygon fill="#999999" stroke="#666666" points="235.5,-129 104.5,-129 104.5,-110 235.5,-110 235.5,-129"/>
<text text-anchor="middle" x="170" y="-117" font-family="Helvetica,sans-Serif" font-size="10.00">inc/ws2812_effects.hpp</text>
</a>
</g>
</g>
<!-- Node2 -->
<g id="Node000002" class="node">
<title>Node2</title>
<g id="a_Node000002"><a xlink:href="ws2812__multi__animator_8hpp.html" target="_top" xlink:title=" ">
<polygon fill="white" stroke="#666666" points="172,-74 0,-74 0,-55 172,-55 172,-74"/>
<text text-anchor="middle" x="86" y="-62" font-family="Helvetica,sans-Serif" font-size="10.00">inc/ws2812_multi_animator.hpp</text>
</a>
</g>
</g>
<!-- Node1&#45;&gt;Node2 -->
<g id="edge1_Node000001_Node000002" class="edge">
<title>Node1&#45;&gt;Node2</title>
<g id="a_edge1_Node000001_Node000002"><a xlink:title=" ">
<path fill="none" stroke="#63b8ff" d="M147.69,-104.42C132.45,-94.81 112.73,-82.37 99.74,-74.17"/>
<polygon fill="#63b8ff" stroke="#63b8ff" points="146.18,-107.61 156.5,-109.98 149.91,-101.69 146.18,-107.61"/>
</a>
</g>
</g>
<!-- Node4 -->
<g id="Node000004" class="node">
<title>Node4</title>
<g id="a_Node000004"><a xlink:href="ws2812__effects_8cpp.html" target="_top" xlink:title="LED animation effects implementation.">
<polygon fill="white" stroke="#666666" points="320,-74 190,-74 190,-55 320,-55 320,-74"/>
<text text-anchor="middle" x="255" y="-62" font-family="Helvetica,sans-Serif" font-size="10.00">src/ws2812_effects.cpp</text>
</a>
</g>
</g>
<!-- Node1&#45;&gt;Node4 -->
<g id="edge3_Node000001_Node000004" class="edge">
<title>Node1&#45;&gt;Node4</title>
<g id="a_edge3_Node000001_Node000004"><a xlink:title=" ">
<path fill="none" stroke="#63b8ff" d="M192.57,-104.42C208,-94.81 227.95,-82.37 241.09,-74.17"/>
<polygon fill="#63b8ff" stroke="#63b8ff" points="190.29,-101.72 183.66,-109.98 193.99,-107.66 190.29,-101.72"/>
</a>
</g>
</g>
<!-- Node3 -->
<g id="Node000003" class="node">
<title>Node3</title>
<g id="a_Node000003"><a xlink:href="ws2812__multi__animator_8cpp.html" target="_top" xlink:title="Multi&#45;strip animation coordinator implementation.">
<polygon fill="white" stroke="#666666" points="171.5,-19 0.5,-19 0.5,0 171.5,0 171.5,-19"/>
<text text-anchor="middle" x="86" y="-7" font-family="Helvetica,sans-Serif" font-size="10.00">src/ws2812_multi_animator.cpp</text>
</a>
</g>
</g>
<!-- Node2&#45;&gt;Node3 -->
<g id="edge2_Node000002_Node000003" class="edge">
<title>Node2&#45;&gt;Node3</title>
<g id="a_edge2_Node000002_Node000003"><a xlink:title=" ">
<path fill="none" stroke="#63b8ff" d="M86,-44.66C86,-35.93 86,-25.99 86,-19.09"/>
<polygon fill="#63b8ff" stroke="#63b8ff" points="82.5,-44.75 86,-54.75 89.5,-44.75 82.5,-44.75"/>
</a>
</g>
</g>
</g>
</svg>
